<svg width="24" height="24" viewBox="0 0 48 48" fill="none" xmlns="http://www.w3.org/2000/svg">
    <rect width="48" height="48" rx="24" fill="#0085FF" />
    <mask id="mask0_3570_28505" style="mask-type:alpha" maskUnits="userSpaceOnUse" x="10" y="10"
        width="28" height="28">
        <rect x="10" y="10" width="28" height="28" fill="#D9D9D9" />
    </mask>
    <g mask="url(#mask0_3570_28505)">
        <path
            d="M14.8708 35.375C14.5791 35.375 14.3263 35.2681 14.1125 35.0542C13.8986 34.8403 13.7916 34.5778 13.7916 34.2667C13.7916 33.975 13.8986 33.7222 14.1125 33.5083C14.3263 33.2945 14.5791 33.1875 14.8708 33.1875H16.0666V29.4833C15.4055 29.2695 14.8611 28.8759 14.4333 28.3027C14.0055 27.7287 13.7916 27.082 13.7916 26.3625V18.3708C13.7916 18.0597 13.8939 17.8019 14.0985 17.5973C14.3022 17.3936 14.5597 17.2917 14.8708 17.2917H19.4208C19.7319 17.2917 19.9897 17.3936 20.1943 17.5973C20.3981 17.8019 20.5 18.0597 20.5 18.3708V26.3625C20.5 27.082 20.2861 27.7287 19.8583 28.3027C19.4305 28.8759 18.8958 29.2695 18.2541 29.4833V33.1875H19.4208C19.7319 33.1875 19.9944 33.2945 20.2083 33.5083C20.4222 33.7222 20.5291 33.975 20.5291 34.2667C20.5291 34.5778 20.4222 34.8403 20.2083 35.0542C19.9944 35.2681 19.7319 35.375 19.4208 35.375H14.8708ZM15.9791 22.9792H18.3125V19.4792H15.9791V22.9792ZM25.1666 35.375C24.5638 35.375 24.0486 35.1611 23.6208 34.7333C23.193 34.3056 22.9791 33.7903 22.9791 33.1875V22.2208C22.9791 21.7542 23.1203 21.3311 23.4026 20.9515C23.6842 20.5727 24.0388 20.3056 24.4666 20.15L25.5458 19.7417C25.8375 19.625 26.0564 19.4741 26.2026 19.289C26.3481 19.1047 26.4208 18.857 26.4208 18.5458V13.7625C26.4208 13.4514 26.5328 13.1889 26.7568 12.975C26.98 12.7611 27.2472 12.6542 27.5583 12.6542H30.825C31.1361 12.6542 31.4036 12.7611 31.6276 12.975C31.8508 13.1889 31.9625 13.4514 31.9625 13.7625V18.5458C31.9625 18.857 32.0402 19.1047 32.1958 19.289C32.3513 19.4741 32.5652 19.625 32.8375 19.7417L33.9166 20.15C34.3444 20.3056 34.6995 20.5727 34.9818 20.9515C35.2633 21.3311 35.4041 21.7542 35.4041 22.2208V33.1875C35.4041 33.7903 35.1902 34.3056 34.7625 34.7333C34.3347 35.1611 33.8194 35.375 33.2166 35.375H25.1666ZM28.6083 16.0083H29.775V14.8417H28.6083V16.0083ZM25.1666 24.0875H33.2166V22.2208L32.1083 21.8125C31.3694 21.5403 30.7958 21.1172 30.3875 20.5432C29.9791 19.97 29.775 19.3236 29.775 18.6042V18.1958H28.6083V18.6042C28.6083 19.3236 28.3995 19.97 27.9818 20.5432C27.5633 21.1172 26.9847 21.5403 26.2458 21.8125L25.1666 22.2208V24.0875ZM25.1666 33.1875H33.2166V30.825H25.1666V33.1875Z"
            fill="white" />
    </g>
</svg>