<svg width="24" height="24" viewBox="0 0 48 48" fill="none" xmlns="http://www.w3.org/2000/svg">
    <rect width="48" height="48" rx="24" fill="#0085FF" />
    <mask id="mask0_3570_28456" style="mask-type:alpha" maskUnits="userSpaceOnUse" x="10" y="10"
        width="28" height="28">
        <rect x="10" y="10" width="28" height="28" fill="#D9D9D9" />
    </mask>
    <g mask="url(#mask0_3570_28456)">
        <path
            d="M33.8875 28.9C33.4014 28.9 32.9884 28.7297 32.6485 28.389C32.3079 28.0491 32.1375 27.6361 32.1375 27.15V24.2333C32.1375 23.7472 32.3079 23.3338 32.6485 22.9932C32.9884 22.6533 33.4014 22.4833 33.8875 22.4833C34.3737 22.4833 34.787 22.6533 35.1277 22.9932C35.4676 23.3338 35.6375 23.7472 35.6375 24.2333V27.15C35.6375 27.6361 35.4676 28.0491 35.1277 28.389C34.787 28.7297 34.3737 28.9 33.8875 28.9ZM20.7917 24C19.5862 23.9222 18.5848 23.4458 17.7875 22.5708C16.9903 21.6958 16.5917 20.675 16.5917 19.5083C16.5917 18.3417 16.9857 17.3255 17.7735 16.4598C18.5607 15.5949 19.5667 15.1139 20.7917 15.0167C20.9278 15.0167 21.0593 15.0264 21.186 15.0458C21.312 15.0653 21.4431 15.0944 21.5792 15.1333C21.0737 15.7167 20.675 16.3824 20.3834 17.1307C20.0917 17.8797 19.9459 18.6722 19.9459 19.5083C19.9459 20.3444 20.0917 21.1319 20.3834 21.8708C20.675 22.6097 21.0737 23.2708 21.5792 23.8542C21.4431 23.9125 21.312 23.9514 21.186 23.9708C21.0593 23.9903 20.9278 24 20.7917 24ZM11.8959 32.9542V29.775C11.8959 29.25 12.0273 28.7542 12.2902 28.2875C12.5523 27.8208 12.9362 27.4319 13.4417 27.1208C13.9667 26.8097 14.5454 26.5324 15.1777 26.289C15.8093 26.0463 16.4945 25.8472 17.2334 25.6917C16.6112 26.1972 16.125 26.7953 15.775 27.486C15.425 28.1759 15.25 28.9389 15.25 29.775V32.9542H11.8959ZM26.6542 24.0292C25.4098 24.0292 24.3454 23.5866 23.461 22.7015C22.5759 21.8172 22.1334 20.7528 22.1334 19.5083C22.1334 18.2444 22.5759 17.175 23.461 16.3C24.3454 15.425 25.4098 14.9875 26.6542 14.9875C27.9181 14.9875 28.9875 15.425 29.8625 16.3C30.7375 17.175 31.175 18.2444 31.175 19.5083C31.175 20.7528 30.7375 21.8172 29.8625 22.7015C28.9875 23.5866 27.9181 24.0292 26.6542 24.0292ZM17.5834 32.9542V29.8625C17.5834 29.2208 17.7436 28.6324 18.064 28.0973C18.3853 27.563 18.8278 27.1597 19.3917 26.8875C20.3834 26.3819 21.4917 25.9588 22.7167 25.6182C23.9417 25.2783 25.2542 25.1083 26.6542 25.1083C27.0042 25.1083 27.3593 25.1227 27.7194 25.1515C28.0787 25.181 28.3848 25.2153 28.6375 25.2542C28.4625 25.6042 28.3264 25.9444 28.2292 26.275C28.132 26.6055 28.0639 26.975 28.025 27.3833C27.9667 27.8889 28.0153 28.4625 28.1709 29.1042C28.3264 29.7458 28.5598 30.3 28.8709 30.7667C29.1625 31.2722 29.5223 31.6949 29.95 32.0348C30.3778 32.3755 30.8542 32.6819 31.3792 32.9542H17.5834ZM33.8875 32.8958C33.732 32.8958 33.6009 32.8425 33.4944 32.736C33.387 32.6287 33.3334 32.4972 33.3334 32.3417V31.0875C32.4389 30.9514 31.6853 30.5672 31.0724 29.9348C30.4603 29.3033 30.0862 28.5597 29.95 27.7042C29.9306 27.568 29.9742 27.4417 30.0807 27.325C30.188 27.2083 30.3292 27.15 30.5042 27.15C30.6403 27.15 30.757 27.1986 30.8542 27.2958C30.9514 27.393 31.0195 27.5097 31.0584 27.6458C31.175 28.3264 31.5009 28.8949 32.036 29.3515C32.5704 29.8088 33.1875 30.0375 33.8875 30.0375C34.607 30.0375 35.2292 29.8088 35.7542 29.3515C36.2792 28.8949 36.6098 28.3264 36.7459 27.6458C36.7848 27.4903 36.8528 27.3685 36.95 27.2807C37.0473 27.1935 37.1639 27.15 37.3 27.15C37.475 27.15 37.6162 27.2083 37.7235 27.325C37.8301 27.4417 37.8639 27.568 37.825 27.7042C37.7084 28.5597 37.3389 29.3033 36.7167 29.9348C36.0945 30.5672 35.3362 30.9514 34.4417 31.0875V32.3417C34.4417 32.4972 34.388 32.6287 34.2807 32.736C34.1742 32.8425 34.0431 32.8958 33.8875 32.8958Z"
            fill="white" />
    </g>
</svg>