<svg width="24" height="24" viewBox="0 0 48 48" fill="none" xmlns="http://www.w3.org/2000/svg">
    <rect width="48" height="48" rx="24" fill="#0085FF" />
    <mask id="mask0_3570_28495" style="mask-type:alpha" maskUnits="userSpaceOnUse" x="10" y="10"
        width="28" height="28">
        <rect x="10" y="10" width="28" height="28" fill="#D9D9D9" />
    </mask>
    <g mask="url(#mask0_3570_28495)">
        <path
            d="M18.1667 34.2667C17.2139 34.2667 16.4069 33.9314 15.7458 33.261C15.0847 32.5898 14.7542 31.7778 14.7542 30.825H13.4417C12.8389 30.825 12.3236 30.6111 11.8958 30.1833C11.468 29.7555 11.2542 29.2403 11.2542 28.6375V25.0792C11.2542 24.4958 11.468 23.9852 11.8958 23.5473C12.3236 23.1102 12.8389 22.8917 13.4417 22.8917H24.0875V18.2833C24.0875 17.6805 24.3014 17.1653 24.7292 16.7375C25.1569 16.3097 25.6722 16.0958 26.275 16.0958H28.7542V14.9875C28.7542 14.6958 28.8611 14.443 29.075 14.2292C29.2889 14.0153 29.5417 13.9083 29.8333 13.9083H31C31.3111 13.9083 31.5736 14.0153 31.7875 14.2292C32.0014 14.443 32.1083 14.6958 32.1083 14.9875V16.0958H32.8667C33.3333 16.0958 33.7611 16.2319 34.15 16.5042C34.5389 16.7764 34.8111 17.1361 34.9667 17.5833L36.6583 22.6875C36.6972 22.8042 36.7264 22.9208 36.7458 23.0375C36.7653 23.1542 36.775 23.2708 36.775 23.3875V28.6375C36.775 29.2403 36.5564 29.7555 36.1193 30.1833C35.6814 30.6111 35.1708 30.825 34.5875 30.825H33.275C33.275 31.7778 32.9398 32.5898 32.2693 33.261C31.5981 33.9314 30.7861 34.2667 29.8333 34.2667C28.8805 34.2667 28.0736 33.9314 27.4125 33.261C26.7514 32.5898 26.4208 31.7778 26.4208 30.825H21.6083C21.6083 31.7778 21.2731 32.5898 20.6027 33.261C19.9314 33.9314 19.1194 34.2667 18.1667 34.2667ZM18.1667 32.0792C18.5167 32.0792 18.8134 31.9625 19.0568 31.7292C19.2995 31.4958 19.4208 31.2042 19.4208 30.8542C19.4208 30.4847 19.2995 30.1833 19.0568 29.95C18.8134 29.7167 18.5167 29.6 18.1667 29.6C17.8167 29.6 17.525 29.7167 17.2917 29.95C17.0583 30.1833 16.9417 30.475 16.9417 30.825C16.9417 31.175 17.0583 31.4717 17.2917 31.7152C17.525 31.9578 17.8167 32.0792 18.1667 32.0792ZM29.8333 32.0792C30.1833 32.0792 30.4797 31.9625 30.7223 31.7292C30.9658 31.4958 31.0875 31.2042 31.0875 30.8542C31.0875 30.4847 30.9658 30.1833 30.7223 29.95C30.4797 29.7167 30.1833 29.6 29.8333 29.6C29.4833 29.6 29.1917 29.7167 28.9583 29.95C28.725 30.1833 28.6083 30.475 28.6083 30.825C28.6083 31.175 28.725 31.4717 28.9583 31.7152C29.1917 31.9578 29.4833 32.0792 29.8333 32.0792ZM26.275 22.8917H34.4417L32.8667 18.2833H26.275V22.8917ZM14.025 19.975H16.2125V17.7H14.025V19.975ZM17.8167 19.975H20.0042V17.7H17.8167V19.975ZM12.0417 21.5792C11.8083 21.5792 11.6189 21.506 11.4735 21.3598C11.3273 21.2144 11.2542 21.025 11.2542 20.7917C11.2542 20.5583 11.3273 20.3639 11.4735 20.2083C11.6189 20.0528 11.8083 19.975 12.0417 19.975H12.4208V17.7H12.0417C11.8083 17.7 11.6189 17.6222 11.4735 17.4667C11.3273 17.3111 11.2542 17.1167 11.2542 16.8833C11.2542 16.65 11.3273 16.4602 11.4735 16.314C11.6189 16.1685 11.8083 16.0958 12.0417 16.0958H21.9583C22.1917 16.0958 22.3861 16.1736 22.5417 16.3292C22.6972 16.4847 22.775 16.6792 22.775 16.9125C22.775 17.1264 22.6972 17.3111 22.5417 17.4667C22.3861 17.6222 22.1917 17.7 21.9583 17.7H21.6083V19.975H21.9583C22.1917 19.975 22.3861 20.0528 22.5417 20.2083C22.6972 20.3639 22.775 20.5583 22.775 20.7917C22.775 21.025 22.6972 21.2144 22.5417 21.3598C22.3861 21.506 22.1917 21.5792 21.9583 21.5792H12.0417Z"
            fill="white" />
    </g>
</svg>