<svg width="24" height="24" viewBox="0 0 48 48" fill="none" xmlns="http://www.w3.org/2000/svg">
    <rect width="48" height="48" rx="24" fill="#0085FF" />
    <mask id="mask0_3570_28426" style="mask-type:alpha" maskUnits="userSpaceOnUse" x="10" y="10"
        width="28" height="28">
        <rect x="10" y="10" width="28" height="28" fill="#D9D9D9" />
    </mask>
    <g mask="url(#mask0_3570_28426)">
        <path
            d="M30.825 35.4333C30.5139 35.4333 30.2514 35.3264 30.0375 35.1125C29.8236 34.8986 29.7167 34.6361 29.7167 34.325V26.2166H28.5208C27.9181 26.2166 27.4028 26.0028 26.975 25.575C26.5472 25.1472 26.3333 24.6319 26.3333 24.0291V18.2541C26.3333 16.6986 26.8731 15.3666 27.9527 14.2583C29.0315 13.15 30.3486 12.5861 31.9042 12.5666V34.325C31.9042 34.6361 31.7972 34.8986 31.5833 35.1125C31.3695 35.3264 31.1167 35.4333 30.825 35.4333ZM19.4208 35.4333C19.1097 35.4333 18.8472 35.3264 18.6333 35.1125C18.4195 34.8986 18.3125 34.6361 18.3125 34.325V24.9333C17.3597 24.6805 16.5477 24.1509 15.8765 23.3443C15.2061 22.537 14.8708 21.6083 14.8708 20.5583V13.6166C14.8708 13.325 14.9778 13.0722 15.1917 12.8583C15.4056 12.6444 15.6681 12.5375 15.9792 12.5375C16.2708 12.5375 16.5236 12.6444 16.7375 12.8583C16.9514 13.0722 17.0583 13.325 17.0583 13.6166V20.5583H18.3125V13.6166C18.3125 13.325 18.4195 13.0722 18.6333 12.8583C18.8472 12.6444 19.1097 12.5375 19.4208 12.5375C19.7125 12.5375 19.9653 12.6444 20.1792 12.8583C20.3931 13.0722 20.5 13.325 20.5 13.6166V20.5583H21.725V13.6166C21.725 13.325 21.832 13.0722 22.0458 12.8583C22.2597 12.6444 22.5222 12.5375 22.8333 12.5375C23.125 12.5375 23.3778 12.6444 23.5917 12.8583C23.8056 13.0722 23.9125 13.325 23.9125 13.6166V20.5583C23.9125 21.6083 23.587 22.537 22.936 23.3443C22.2842 24.1509 21.4722 24.6805 20.5 24.9333V34.325C20.5 34.6361 20.3931 34.8986 20.1792 35.1125C19.9653 35.3264 19.7125 35.4333 19.4208 35.4333Z"
            fill="white" />
    </g>
</svg>