<svg width="24" height="24" viewBox="0 0 48 48" fill="none" xmlns="http://www.w3.org/2000/svg">
    <rect width="48" height="48" rx="24" fill="#0085FF" />
    <mask id="mask0_3570_28442" style="mask-type:alpha" maskUnits="userSpaceOnUse" x="10" y="10"
        width="28" height="28">
        <rect x="10" y="10" width="28" height="28" fill="#D9D9D9" />
    </mask>
    <g mask="url(#mask0_3570_28442)">
        <path
            d="M19.2749 34.4125H14.6083C14.0055 34.4125 13.4902 34.1986 13.0624 33.7708C12.6347 33.3431 12.4208 32.8278 12.4208 32.225V19.6833C12.4208 19.2361 12.5425 18.8278 12.7859 18.4583C13.0286 18.0889 13.3638 17.8264 13.7916 17.6708L23.1833 13.9083C23.4555 13.7917 23.7324 13.7333 24.0139 13.7333C24.2963 13.7333 24.5638 13.7917 24.8166 13.9083L34.2374 17.6708C34.6458 17.8264 34.9763 18.0889 35.2291 18.4583C35.4819 18.8278 35.6083 19.2361 35.6083 19.6833V32.225C35.6083 32.8278 35.3897 33.3431 34.9526 33.7708C34.5147 34.1986 34.0041 34.4125 33.4208 34.4125H28.7541V24.9333H19.2749V34.4125ZM20.5874 34.4125V32.225H22.7749V34.4125H20.5874ZM22.9208 30.9125V28.725H25.1083V30.9125H22.9208ZM25.2541 34.4125V32.225H27.4416V34.4125H25.2541Z"
            fill="white" />
    </g>
</svg>