<svg width="24" height="24" viewBox="0 0 48 48" fill="none" xmlns="http://www.w3.org/2000/svg">
    <rect width="48" height="48" rx="24" fill="#0085FF" />
    <mask id="mask0_3570_28419" style="mask-type:alpha" maskUnits="userSpaceOnUse" x="10" y="10"
        width="28" height="28">
        <rect x="10" y="10" width="28" height="28" fill="#D9D9D9" />
    </mask>
    <g mask="url(#mask0_3570_28419)">
        <path
            d="M16.0083 34.2375C15.6777 34.2375 15.3861 34.1352 15.1333 33.9307C14.8805 33.7269 14.7055 33.4695 14.6083 33.1584L11.4291 21.725C11.3319 21.4528 11.3758 21.2097 11.561 20.9959C11.7453 20.782 11.9833 20.675 12.275 20.675H18.0791L23.0666 13.2084C23.1638 13.0528 23.2953 12.9311 23.461 12.8432C23.6258 12.7561 23.8055 12.7125 24 12.7125C24.175 12.7125 24.3402 12.7561 24.4958 12.8432C24.6513 12.9311 24.7777 13.0528 24.875 13.2084L29.8625 20.675H35.725C36.0166 20.675 36.255 20.787 36.4401 21.011C36.6245 21.2342 36.668 21.4722 36.5708 21.725L33.3916 33.1584C33.2944 33.4889 33.1143 33.7514 32.8515 33.9459C32.5893 34.1403 32.293 34.2375 31.9625 34.2375H16.0083ZM24 29.6292C24.6027 29.6292 25.118 29.4153 25.5458 28.9875C25.9736 28.5597 26.1875 28.0445 26.1875 27.4417C26.1875 26.8389 25.9736 26.3236 25.5458 25.8959C25.118 25.4681 24.6027 25.2542 24 25.2542C23.3972 25.2542 22.8819 25.4681 22.4541 25.8959C22.0263 26.3236 21.8125 26.8389 21.8125 27.4417C21.8125 28.0445 22.0263 28.5597 22.4541 28.9875C22.8819 29.4153 23.3972 29.6292 24 29.6292ZM20.7625 20.675H27.2375L24 15.8042L20.7625 20.675Z"
            fill="white" />
    </g>
</svg>