<svg width="24" height="24" viewBox="0 0 24 24" fill="none" xmlns="http://www.w3.org/2000/svg"><rect width="24" height="24" rx="12" fill="#0085FF"/><mask id="mask0_3558_89613" style="mask-type:alpha" maskUnits="userSpaceOnUse" x="4" y="4" width="16" height="16"><rect x="4" y="4" width="16" height="16" fill="#D9D9D9"/></mask><g mask="url(#mask0_3558_89613)"><path d="M6.2168 16.5333C5.87235 16.5333 5.57791 16.4111 5.33346 16.1667C5.08902 15.9222 4.9668 15.6278 4.9668 15.2833V8.71667C4.9668 8.37223 5.08902 8.07779 5.33346 7.83334C5.57791 7.5889 5.87235 7.46667 6.2168 7.46667H12.7835C13.1279 7.46667 13.4224 7.5889 13.6668 7.83334C13.9112 8.07779 14.0335 8.37223 14.0335 8.71667V15.2833C14.0335 15.6278 13.9112 15.9222 13.6668 16.1667C13.4224 16.4111 13.1279 16.5333 12.7835 16.5333H6.2168ZM15.9168 16.5333C15.739 16.5333 15.589 16.4722 15.4668 16.35C15.3446 16.2278 15.2835 16.0778 15.2835 15.9V8.08334C15.2835 7.91667 15.3446 7.77223 15.4668 7.65001C15.589 7.52779 15.739 7.46667 15.9168 7.46667C16.0835 7.46667 16.2279 7.52779 16.3501 7.65001C16.4724 7.77223 16.5335 7.91667 16.5335 8.08334V15.9C16.5335 16.0778 16.4724 16.2278 16.3501 16.35C16.2279 16.4722 16.0835 16.5333 15.9168 16.5333ZM18.4168 16.5333C18.239 16.5333 18.089 16.4722 17.9668 16.35C17.8446 16.2278 17.7835 16.0778 17.7835 15.9V8.08334C17.7835 7.91667 17.8446 7.77223 17.9668 7.65001C18.089 7.52779 18.239 7.46667 18.4168 7.46667C18.5835 7.46667 18.7279 7.52779 18.8501 7.65001C18.9724 7.77223 19.0335 7.91667 19.0335 8.08334V15.9C19.0335 16.0778 18.9724 16.2278 18.8501 16.35C18.7279 16.4722 18.5835 16.5333 18.4168 16.5333ZM6.2168 14.2333C6.69457 13.9445 7.20857 13.7249 7.7588 13.5747C8.30857 13.4249 8.88902 13.35 9.50013 13.35C10.1112 13.35 10.6919 13.4249 11.2421 13.5747C11.7919 13.7249 12.3057 13.9445 12.7835 14.2333V8.71667H6.2168V14.2333ZM9.50013 12.8C9.00013 12.8 8.57791 12.6278 8.23346 12.2833C7.88902 11.9389 7.7168 11.5167 7.7168 11.0167C7.7168 10.5167 7.88902 10.0945 8.23346 9.75001C8.57791 9.40556 9.00013 9.23334 9.50013 9.23334C10.0001 9.23334 10.4224 9.40556 10.7668 9.75001C11.1112 10.0945 11.2835 10.5167 11.2835 11.0167C11.2835 11.5167 11.1112 11.9389 10.7668 12.2833C10.4224 12.6278 10.0001 12.8 9.50013 12.8Z" fill="white"/></g></svg>