<svg width="24" height="24" viewBox="0 0 24 24" fill="none" xmlns="http://www.w3.org/2000/svg">
    <mask id="mask0_4602_13163" style="mask-type:alpha" maskUnits="userSpaceOnUse" x="0" y="0" width="24" height="24">
        <rect width="24" height="24" fill="#D9D9D9" />
    </mask>
    <g mask="url(#mask0_4602_13163)">
        <path
            d="M11 22.9501V20.9501C8.91672 20.7167 7.12938 19.8544 5.63805 18.3631C4.14605 16.8711 3.28338 15.0834 3.05005 13H1.05005V11H3.05005C3.28338 8.91672 4.14605 7.12905 5.63805 5.63705C7.12938 4.14572 8.91672 3.28338 11 3.05005V1.05005H13V3.05005C15.0834 3.28338 16.8711 4.14572 18.3631 5.63705C19.8544 7.12905 20.7167 8.91672 20.9501 11H22.9501V13H20.9501C20.7167 15.0834 19.8544 16.8711 18.3631 18.3631C16.8711 19.8544 15.0834 20.7167 13 20.9501V22.9501H11ZM12 19C13.9334 19 15.5834 18.3167 16.95 16.95C18.3167 15.5834 19 13.9334 19 12C19 10.0667 18.3167 8.41672 16.95 7.05005C15.5834 5.68338 13.9334 5.00005 12 5.00005C10.0667 5.00005 8.41672 5.68338 7.05005 7.05005C5.68338 8.41672 5.00005 10.0667 5.00005 12C5.00005 13.9334 5.68338 15.5834 7.05005 16.95C8.41672 18.3167 10.0667 19 12 19ZM12 16C10.9 16 9.95838 15.6084 9.17505 14.825C8.39172 14.0417 8.00005 13.1 8.00005 12C8.00005 10.9 8.39172 9.95838 9.17505 9.17505C9.95838 8.39172 10.9 8.00005 12 8.00005C13.1 8.00005 14.0417 8.39172 14.825 9.17505C15.6084 9.95838 16 10.9 16 12C16 13.1 15.6084 14.0417 14.825 14.825C14.0417 15.6084 13.1 16 12 16Z"
            fill="#1C1B1F" />
    </g>
</svg>