<svg width="48" height="48" viewBox="0 0 48 48" fill="none" xmlns="http://www.w3.org/2000/svg">
    <rect width="48" height="48" rx="24" fill="#255398" />
    <path
        d="M35.3146 24H25.0267C24.7933 23.3424 24.1697 22.8673 23.4358 22.8673C23.2364 22.8673 23.0497 22.9097 22.8715 22.9733V17.2121H23.4358C23.7455 17.2121 24 16.9576 24 16.6479V14.3867C24 14.0727 23.7455 13.8182 23.4358 13.8182H10.9885C10.6788 13.8182 10.4243 14.0727 10.4243 14.3824V16.6436C10.4243 16.9576 10.6788 17.2121 10.9885 17.2121H11.5527V33.6176C11.557 33.9273 11.8073 34.1818 12.1212 34.1818H24.5643C24.8782 34.1818 25.1285 33.9273 25.1285 33.6176V28.5267H35.3103C36.5576 28.5267 37.5715 27.5127 37.5715 26.2654C37.5758 25.0139 36.5618 24 35.3146 24ZM25.8158 25.1327H27.0588L28.0812 27.3939H26.8382L25.8158 25.1327ZM28.374 25.1327H29.617L30.6394 27.3939H29.3964L28.374 25.1327ZM30.9364 25.1327H32.1794L33.2018 27.3939H31.9588L30.9364 25.1327ZM19.4733 19.4733V22.8673H14.9509V19.4733H19.4733ZM20.0418 25.1327C20.3558 25.1327 20.6061 25.3873 20.6061 25.697C20.6061 26.0109 20.3515 26.2612 20.0418 26.2612C19.7321 26.2612 19.4776 26.0067 19.4776 25.697C19.4733 25.383 19.7279 25.1327 20.0418 25.1327ZM11.557 14.9509H22.8715V16.0836H11.557V14.9509ZM24 33.0491H22.8673V24.5642C22.8673 24.2503 23.1218 24 23.4315 24C23.7455 24 24 24.2545 24 24.5642V27.9582V33.0491ZM34.517 27.3939L33.4946 25.1327H34.7376L35.7261 27.3133C35.5988 27.3642 35.4588 27.3939 35.3146 27.3939H34.517Z"
        fill="white" />
</svg>