<svg width="48" height="48" viewBox="0 0 48 48" fill="none" xmlns="http://www.w3.org/2000/svg">
    <rect width="48" height="48" rx="24" fill="#AC39AC" />
    <mask id="mask0_2647_6176" style="mask-type: alpha" maskUnits="userSpaceOnUse" x="13" y="13" width="28" height="28">
        <rect x="13" y="13" width="28" height="28" fill="#D9D9D9" />
    </mask>
    <g mask="url(#mask0_2647_6176)">
        <path
            d="M23.4815 32.2963C22.9111 32.2963 22.3884 32.1535 21.9135 31.868C21.4378 31.5832 21.0617 31.2074 20.7852 30.7408C20.5951 30.3951 20.5778 30.0494 20.7333 29.7037C20.8889 29.358 21.1827 29.1852 21.6148 29.1852C21.7876 29.1852 21.9605 29.2371 22.1333 29.3408C22.3062 29.4445 22.4876 29.6173 22.6778 29.8593C22.7642 29.9803 22.8807 30.0712 23.0273 30.132C23.1745 30.1922 23.3259 30.2222 23.4815 30.2222C23.7753 30.2222 24.0218 30.1227 24.2209 29.9236C24.4193 29.7252 24.5185 29.479 24.5185 29.1852C24.5185 28.8914 24.4193 28.6453 24.2209 28.4468C24.0218 28.2477 23.7753 28.1482 23.4815 28.1482H14.6667C14.3728 28.1482 14.1267 28.0486 13.9283 27.8495C13.7292 27.6511 13.6296 27.405 13.6296 27.1111C13.6296 26.8173 13.7292 26.5708 13.9283 26.3717C14.1267 26.1733 14.3728 26.0741 14.6667 26.0741H23.4815C24.3457 26.0741 25.0802 26.3766 25.6852 26.9815C26.2901 27.5864 26.5926 28.321 26.5926 29.1852C26.5926 30.0494 26.2901 30.784 25.6852 31.3889C25.0802 31.9938 24.3457 32.2963 23.4815 32.2963ZM14.6667 21.9259C14.3728 21.9259 14.1267 21.8264 13.9283 21.6273C13.7292 21.4289 13.6296 21.1827 13.6296 20.8889C13.6296 20.5951 13.7292 20.3486 13.9283 20.1495C14.1267 19.9511 14.3728 19.8519 14.6667 19.8519H27.6296C28.079 19.8519 28.4506 19.705 28.7444 19.4111C29.0383 19.1173 29.1852 18.7457 29.1852 18.2963C29.1852 17.8469 29.0383 17.4753 28.7444 17.1815C28.4506 16.8877 28.079 16.7408 27.6296 16.7408C27.3358 16.7408 27.0724 16.8057 26.8394 16.9357C26.6057 17.065 26.4197 17.2506 26.2815 17.4926C26.1432 17.7519 25.979 17.9506 25.7889 18.0889C25.5988 18.2272 25.4086 18.2963 25.2185 18.2963C24.8555 18.2963 24.5704 18.1667 24.363 17.9074C24.1555 17.6482 24.1037 17.3716 24.2074 17.0778C24.4494 16.3519 24.8773 15.7684 25.4913 15.3273C26.1045 14.8869 26.8173 14.6667 27.6296 14.6667C28.6494 14.6667 29.5094 15.0165 30.2098 15.7162C30.9094 16.4165 31.2593 17.2766 31.2593 18.2963C31.2593 19.3161 30.9094 20.1758 30.2098 20.8754C29.5094 21.5758 28.6494 21.9259 27.6296 21.9259H14.6667ZM32.2444 29.9111C31.8815 30.0667 31.5399 30.0539 31.2198 29.8728C30.9004 29.6909 30.7407 29.3926 30.7407 28.9778C30.7407 28.7877 30.8099 28.6017 30.9481 28.4199C31.0864 28.2387 31.2852 28.079 31.5444 27.9408C31.7864 27.8025 31.972 27.6165 32.1013 27.3828C32.2313 27.1498 32.2963 26.8864 32.2963 26.5926C32.2963 26.1432 32.1494 25.7716 31.8555 25.4778C31.5617 25.184 31.1901 25.0371 30.7407 25.0371H14.6667C14.3728 25.0371 14.1267 24.9375 13.9283 24.7384C13.7292 24.54 13.6296 24.2938 13.6296 24C13.6296 23.7062 13.7292 23.4597 13.9283 23.2606C14.1267 23.0622 14.3728 22.963 14.6667 22.963H30.7407C31.7605 22.963 32.6205 23.3128 33.3209 24.0125C34.0205 24.7128 34.3704 25.5729 34.3704 26.5926C34.3704 27.3358 34.1761 28.0013 33.7875 28.5889C33.3983 29.1766 32.8839 29.6173 32.2444 29.9111Z"
            fill="white" />
    </g>
</svg>