<svg width="48" height="48" viewBox="0 0 48 48" fill="none" xmlns="http://www.w3.org/2000/svg">
    <rect width="48" height="48" rx="24" fill="#0085FF" />
    <mask id="mask0_2188_15859" style="mask-type: alpha" maskUnits="userSpaceOnUse" x="10" y="10" width="28"
        height="28">
        <rect x="10" y="10" width="28" height="28" fill="#D9D9D9" />
    </mask>
    <g mask="url(#mask0_2188_15859)">
        <path
            d="M17.3041 34.5833C16.993 34.5833 16.7305 34.4811 16.5166 34.2765C16.3027 34.0727 16.1958 33.8153 16.1958 33.5042V31.1708C15.8458 30.8014 15.5592 30.3783 15.336 29.9015C15.112 29.4255 15 28.9056 15 28.3417V17.4625C15 15.8875 15.7194 14.75 17.1583 14.05C18.5972 13.35 20.9014 13 24.0708 13C27.318 13 29.6416 13.3449 31.0416 14.0348C32.4416 14.7255 33.1416 15.8681 33.1416 17.4625V28.3417C33.1416 28.9056 33.03 29.4255 32.8068 29.9015C32.5828 30.3783 32.2958 30.8014 31.9458 31.1708V33.5042C31.9458 33.8153 31.8389 34.0727 31.625 34.2765C31.4111 34.4811 31.1486 34.5833 30.8375 34.5833H29.7875C29.4764 34.5833 29.2139 34.4811 29 34.2765C28.7861 34.0727 28.6791 33.8153 28.6791 33.5042V32.3083H19.4625V33.5042C19.4625 33.8153 19.3555 34.0727 19.1416 34.2765C18.9277 34.4811 18.6652 34.5833 18.3541 34.5833H17.3041ZM17.1875 22.1875H30.9541V18.5708H17.1875V22.1875ZM20.0458 28.925C20.5125 28.925 20.9111 28.7597 21.2416 28.4292C21.5722 28.0986 21.7375 27.7 21.7375 27.2333C21.7375 26.7667 21.5722 26.3681 21.2416 26.0375C20.9111 25.7069 20.5125 25.5417 20.0458 25.5417C19.5791 25.5417 19.1805 25.7069 18.85 26.0375C18.5194 26.3681 18.3541 26.7667 18.3541 27.2333C18.3541 27.7 18.5194 28.0986 18.85 28.4292C19.1805 28.7597 19.5791 28.925 20.0458 28.925ZM28.0958 28.925C28.5625 28.925 28.9611 28.7597 29.2916 28.4292C29.6222 28.0986 29.7875 27.7 29.7875 27.2333C29.7875 26.7667 29.6222 26.3681 29.2916 26.0375C28.9611 25.7069 28.5625 25.5417 28.0958 25.5417C27.6291 25.5417 27.2305 25.7069 26.9 26.0375C26.5694 26.3681 26.4041 26.7667 26.4041 27.2333C26.4041 27.7 26.5694 28.0986 26.9 28.4292C27.2305 28.7597 27.6291 28.925 28.0958 28.925Z"
            fill="white" />
    </g>
</svg>