<svg width="48" height="48" viewBox="0 0 48 48" fill="none" xmlns="http://www.w3.org/2000/svg">
    <rect width="48" height="48" rx="24" fill="#1D4ED8" />
    <path
        d="M18.882 11.4246C27.5013 11.4246 34.8196 16.9337 37.5639 24.5975C38.0315 16.5474 31.5873 9.87968 23.6185 10.0016H14.2471C14.2471 10.0016 10.4456 9.96099 10.0391 13.4982C12.7021 12.1768 15.7107 11.4246 18.882 11.4246Z"
        fill="white" />
    <path
        d="M18.8606 12.0752C16.5838 12.0752 14.3883 12.4818 12.3555 13.2136C13.2703 13.0713 14.2054 12.99 15.1811 12.99C24.8372 12.99 32.6637 20.8165 32.6637 30.4725C32.6637 32.0581 32.4401 33.6031 32.0538 35.0668C33.7614 33.908 35.1438 32.3021 36.0382 30.4319C36.7294 28.9885 37.1766 27.5655 37.4002 26.1629C35.1438 18.0518 27.7238 12.0752 18.8606 12.0752Z"
        fill="white" />
    <path
        d="M18.5177 19.9221C25.8156 19.9221 31.7109 25.8377 31.7109 33.1153C31.7109 33.1763 31.7109 33.2373 31.7109 33.2983C31.8735 32.3428 31.9548 31.3874 31.9548 30.3709C31.9752 21.1418 24.4942 13.6609 15.2651 13.6609C13.4355 13.6609 11.6669 13.9658 10 14.5147V23.0323C12.3175 21.1011 15.2854 19.9221 18.5177 19.9221Z"
        fill="white" />
    <path
        d="M18.5208 20.5929C15.2479 20.5929 12.2392 21.8533 10.0234 23.9268V27.7282C11.2635 26.6508 12.8491 26.0003 14.6177 26.0003C18.4801 26.0003 21.5904 29.1309 21.5904 32.973C21.5904 34.7212 20.9399 36.3272 19.8828 37.5469H23.8265C26.0423 37.5469 28.3598 37.0387 30.6976 35.8596C30.7179 35.8393 30.7179 35.8393 30.7382 35.8393C30.9415 34.9448 31.0431 34.0301 31.0431 33.0746C31.0228 26.1832 25.4325 20.5929 18.5208 20.5929Z"
        fill="white" />
    <path
        d="M14.5974 37.5673C17.1235 37.5673 19.1713 35.5195 19.1713 32.9934C19.1713 30.4672 17.1235 28.4194 14.5974 28.4194C12.0713 28.4194 10.0234 30.4672 10.0234 32.9934C10.0234 35.5195 12.0713 37.5673 14.5974 37.5673Z"
        fill="white" />
</svg>