<svg width="48" height="48" viewBox="0 0 48 48" fill="none" xmlns="http://www.w3.org/2000/svg">
    <rect width="48" height="48" rx="24" fill="#FF9900" />
    <circle cx="20" cy="19" r="2" fill="white" />
    <path
        d="M35.7286 22.5559L19.2285 14.0562C19.1094 13.9941 18.9717 13.9829 18.8447 14.0254C18.7178 14.0669 18.6123 14.1573 18.5527 14.2769L15.0527 21.2766C14.9307 21.5208 15.0273 21.8181 15.2695 21.9441L19.1899 23.9823C19.0738 24.3015 19 24.6413 19 25.0002C19 25.6573 19.2185 26.2606 19.5782 26.7553L19.0254 28.0001H14.4893C14.0195 27.3771 13.2812 27.0002 12.5 27.0002C12.2236 27.0001 12 27.2237 12 27.5001V31.5C12 31.7764 12.2236 32 12.5 32C13.2813 32 14.0196 31.623 14.4893 31H20.0001C20.5909 31 21.129 30.6509 21.3712 30.1094L22.3234 27.9674C23.2017 27.8716 23.9681 27.407 24.452 26.7189L27.7696 28.4439C27.8419 28.4815 27.921 28.5001 28.0001 28.5001C28.0968 28.5001 28.1935 28.4718 28.2775 28.4161L29.4627 27.626L31.7521 28.9342C31.8302 28.9786 31.9152 29.0001 32.0002 29.0001C32.1564 29.0001 32.3097 28.9263 32.4074 28.7906L34.9074 25.2907C34.9885 25.1774 35.0178 25.0348 34.9894 24.8986C34.9611 24.7618 34.8771 24.6432 34.757 24.5714L34.3822 24.3465L35.7776 23.4162C35.925 23.3181 36.009 23.1492 35.9992 22.9724C35.9893 22.7952 35.8868 22.637 35.7286 22.5559Z"
        fill="white" />
</svg>