<svg width="48" height="48" viewBox="0 0 48 48" fill="none" xmlns="http://www.w3.org/2000/svg">
    <rect width="48" height="48" rx="24" fill="#F49800" />
    <mask id="mask0_2188_15866" style="mask-type: alpha" maskUnits="userSpaceOnUse" x="10" y="10" width="28"
        height="28">
        <rect x="10" y="10" width="28" height="28" fill="#D9D9D9" />
    </mask>
    <g mask="url(#mask0_2188_15866)">
        <path
            d="M32.5714 15.9667H31.7843C31.4535 14.2764 30.01 13 28.2857 13H19.7143C17.99 13 16.5464 14.2764 16.2157 15.9667H15.4285C14.6407 15.9667 14 16.6319 14 17.45V19.675C14 20.4931 14.6407 21.1583 15.4285 21.1583H16.1428V24.125C16.1428 24.1309 16.1457 24.1354 16.1457 24.1413C15.2821 24.8192 14.7143 25.8835 14.7143 27.0917V30.8C14.7143 31.6181 15.355 32.2833 16.1428 32.2833H31.8571C32.645 32.2833 33.2857 31.6181 33.2857 30.8V27.0917C33.2857 25.8835 32.7178 24.8192 31.8543 24.1413C31.8543 24.1354 31.8571 24.1309 31.8571 24.125V21.1583H32.5714C33.3593 21.1583 34 20.4931 34 19.675V17.45C34 16.6319 33.3593 15.9667 32.5714 15.9667ZM16.1428 19.675H15.4285V17.45H16.1428V19.675ZM17.5714 27.4625C16.9807 27.4625 16.5 26.9634 16.5 26.35C16.5 25.7366 16.9807 25.2375 17.5714 25.2375C18.1621 25.2375 18.6428 25.7366 18.6428 26.35C18.6428 26.9634 18.1621 27.4625 17.5714 27.4625ZM27.2143 30.8H20.7857V29.6875H27.2143V30.8ZM27.2143 28.9458H20.7857V27.8333C20.7857 27.7065 20.8085 27.5864 20.8221 27.4625H27.1778C27.1914 27.5864 27.2143 27.7065 27.2143 27.8333V28.9458ZM20.9828 26.7208C21.2614 25.9109 21.8271 25.2516 22.5578 24.8667H25.4414C26.1721 25.2516 26.7378 25.9109 27.0164 26.7208H20.9828ZM30.4285 27.4625C29.8378 27.4625 29.3571 26.9634 29.3571 26.35C29.3571 25.7366 29.8378 25.2375 30.4285 25.2375C31.0193 25.2375 31.5 25.7366 31.5 26.35C31.5 26.9634 31.0193 27.4625 30.4285 27.4625ZM29.7143 23.3833H18.2857C18.0407 23.3833 17.8021 23.4093 17.5714 23.4582V17.45H30.4285V23.4582C30.1978 23.4093 29.9593 23.3833 29.7143 23.3833ZM32.5714 19.675H31.8571V17.45H32.5714V19.675Z"
            fill="white" />
        <path
            d="M16.1429 33.025C15.8907 33.025 15.6529 32.9716 15.4286 32.8878V33.7667C15.4286 34.5848 16.0693 35.25 16.8572 35.25H18.2857C19.0736 35.25 19.7143 34.5848 19.7143 33.7667V33.025H16.1429Z"
            fill="white" />
        <path
            d="M31.857 33.025H28.2856V33.7667C28.2856 34.5847 28.9263 35.25 29.7142 35.25H31.1427C31.9306 35.25 32.5713 34.5847 32.5713 33.7667V32.8885C32.347 32.9716 32.1092 33.025 31.857 33.025Z"
            fill="white" />
    </g>
</svg>