<svg width="48" height="48" viewBox="0 0 48 48" fill="none" xmlns="http://www.w3.org/2000/svg">
    <rect width="48" height="48" rx="24" fill="#33B530" />
    <mask id="mask0_2647_6162" style="mask-type: alpha" maskUnits="userSpaceOnUse" x="10" y="10" width="28" height="28">
        <rect x="10" y="10" width="28" height="28" fill="#D9D9D9" />
    </mask>
    <g mask="url(#mask0_2647_6162)">
        <path
            d="M24 30.4167C24.4861 30.4167 24.8991 30.2463 25.239 29.9057C25.5797 29.5658 25.75 29.1528 25.75 28.6667V27.5H26.9167C27.4028 27.5 27.8158 27.3297 28.1557 26.989C28.4963 26.6491 28.6667 26.2361 28.6667 25.75C28.6667 25.2639 28.4963 24.8509 28.1557 24.511C27.8158 24.1703 27.4028 24 26.9167 24H25.75V22.8333C25.75 22.3472 25.5797 21.9342 25.239 21.5943C24.8991 21.2537 24.4861 21.0833 24 21.0833C23.5139 21.0833 23.1009 21.2537 22.761 21.5943C22.4203 21.9342 22.25 22.3472 22.25 22.8333V24H21.0833C20.5972 24 20.1842 24.1703 19.8443 24.511C19.5037 24.8509 19.3333 25.2639 19.3333 25.75C19.3333 26.2361 19.5037 26.6491 19.8443 26.989C20.1842 27.3297 20.5972 27.5 21.0833 27.5H22.25V28.6667C22.25 29.1528 22.4203 29.5658 22.761 29.9057C23.1009 30.2463 23.5139 30.4167 24 30.4167ZM18.1667 34.5C17.525 34.5 16.9759 34.2717 16.5193 33.8152C16.062 33.3578 15.8333 32.8083 15.8333 32.1667V19.3333C15.8333 18.6917 16.062 18.1426 16.5193 17.686C16.9759 17.2287 17.525 17 18.1667 17H29.8333C30.475 17 31.0245 17.2287 31.4818 17.686C31.9384 18.1426 32.1667 18.6917 32.1667 19.3333V32.1667C32.1667 32.8083 31.9384 33.3578 31.4818 33.8152C31.0245 34.2717 30.475 34.5 29.8333 34.5H18.1667ZM18.1667 15.8333C17.8361 15.8333 17.5588 15.7213 17.3348 15.4973C17.1116 15.2741 17 14.9972 17 14.6667C17 14.3361 17.1116 14.0588 17.3348 13.8348C17.5588 13.6116 17.8361 13.5 18.1667 13.5H29.8333C30.1639 13.5 30.4408 13.6116 30.664 13.8348C30.888 14.0588 31 14.3361 31 14.6667C31 14.9972 30.888 15.2741 30.664 15.4973C30.4408 15.7213 30.1639 15.8333 29.8333 15.8333H18.1667Z"
            fill="white" />
    </g>
</svg>