<svg width="48" height="48" viewBox="0 0 48 48" fill="none" xmlns="http://www.w3.org/2000/svg">
    <rect width="48" height="48" rx="24" fill="#0085FF" />
    <path
        d="M17.2333 34.2375V13.7625H25.1667C27.0333 13.7625 28.6278 14.4283 29.95 15.7598C31.2722 17.0922 31.9333 18.6917 31.9333 20.5583C31.9333 22.425 31.2722 24.0241 29.95 25.3557C28.6278 26.688 27.0333 27.3542 25.1667 27.3542H21.6083V34.2375H17.2333ZM21.6083 22.9792H25.2542C25.9153 22.9792 26.4842 22.7408 26.961 22.264C27.437 21.788 27.675 21.2195 27.675 20.5583C27.675 19.8972 27.437 19.3283 26.961 18.8515C26.4842 18.3755 25.9153 18.1375 25.2542 18.1375H21.6083V22.9792Z"
        fill="white" />
</svg>