<svg width="48" height="48" viewBox="0 0 48 48" fill="none" xmlns="http://www.w3.org/2000/svg">
    <rect width="48" height="48" rx="24" fill="#0085FF" />
    <mask id="mask0_4295_58755" style="mask-type: alpha" maskUnits="userSpaceOnUse" x="10" y="10" width="28"
        height="28">
        <rect x="10" y="10" width="28" height="28" fill="#D9D9D9" />
    </mask>
    <g mask="url(#mask0_4295_58755)">
        <path
            d="M17.5828 35.6673C17.2523 35.6673 16.975 35.5553 16.751 35.3313C16.5278 35.1081 16.4162 34.8312 16.4162 34.5007V26.9173H15.8328C15.5023 26.9173 15.225 26.8053 15.001 26.5813C14.7778 26.3581 14.6662 26.0812 14.6662 25.7507V20.5007C14.6662 19.859 14.8948 19.3095 15.3522 18.8522C15.8087 18.3956 16.3578 18.1673 16.9995 18.1673H20.4995C21.1412 18.1673 21.6907 18.3956 22.148 18.8522C22.6046 19.3095 22.8328 19.859 22.8328 20.5007V25.7507C22.8328 26.0812 22.7212 26.3581 22.498 26.5813C22.274 26.8053 21.9967 26.9173 21.6662 26.9173H21.0828V34.5007C21.0828 34.8312 20.9712 35.1081 20.748 35.3313C20.524 35.5553 20.2467 35.6673 19.9162 35.6673H17.5828ZM28.6662 35.6673C28.3356 35.6673 28.0587 35.5553 27.8355 35.3313C27.6115 35.1081 27.4995 34.8312 27.4995 34.5007V28.6673H25.6037C25.2148 28.6673 24.9037 28.5067 24.6703 28.1855C24.437 27.865 24.3884 27.5104 24.5245 27.1215L26.9745 19.7423C27.1301 19.2368 27.4171 18.8479 27.8355 18.5757C28.2532 18.3034 28.7245 18.1673 29.2495 18.1673C29.7745 18.1673 30.2458 18.3034 30.6635 18.5757C31.0819 18.8479 31.3689 19.2368 31.5245 19.7423L33.9745 27.1215C34.1106 27.5104 34.062 27.865 33.8287 28.1855C33.5953 28.5067 33.2842 28.6673 32.8953 28.6673H30.9995V34.5007C30.9995 34.8312 30.8875 35.1081 30.6635 35.3313C30.4403 35.5553 30.1634 35.6673 29.8328 35.6673H28.6662ZM18.7495 17.0007C18.1078 17.0007 17.5587 16.772 17.1022 16.3147C16.6448 15.8581 16.4162 15.309 16.4162 14.6673C16.4162 14.0257 16.6448 13.4762 17.1022 13.0188C17.5587 12.5623 18.1078 12.334 18.7495 12.334C19.3912 12.334 19.9407 12.5623 20.398 13.0188C20.8546 13.4762 21.0828 14.0257 21.0828 14.6673C21.0828 15.309 20.8546 15.8581 20.398 16.3147C19.9407 16.772 19.3912 17.0007 18.7495 17.0007ZM29.2495 17.0007C28.6078 17.0007 28.0587 16.772 27.6022 16.3147C27.1448 15.8581 26.9162 15.309 26.9162 14.6673C26.9162 14.0257 27.1448 13.4762 27.6022 13.0188C28.0587 12.5623 28.6078 12.334 29.2495 12.334C29.8912 12.334 30.4407 12.5623 30.898 13.0188C31.3546 13.4762 31.5828 14.0257 31.5828 14.6673C31.5828 15.309 31.3546 15.8581 30.898 16.3147C30.4407 16.772 29.8912 17.0007 29.2495 17.0007Z"
            fill="white" />
    </g>
</svg>