<svg width="48" height="48" viewBox="0 0 48 48" fill="none" xmlns="http://www.w3.org/2000/svg">
    <rect width="48" height="48" rx="24" fill="#182D3A" />
    <g clip-path="url(#clip0_2507_6186)">
        <path
            d="M23.9999 15.8546C25.8118 15.8546 27.3481 17.0558 27.8551 18.7036L29.9892 17.3204C28.8539 15.1706 26.5954 13.7019 23.9999 13.7019C21.4045 13.7019 19.1459 15.1706 18.0107 17.3204L20.1449 18.7036C20.6518 17.0558 22.1881 15.8546 23.9999 15.8546Z"
            fill="white" />
        <path
            d="M16.6299 16.4254C18.0621 13.8264 20.8286 12.0615 24 12.0615C27.1714 12.0615 29.9379 13.8265 31.3701 16.4255L33.3973 15.1115C31.3979 12.0373 27.9326 10 24 10C20.0674 10 16.6021 12.0373 14.6027 15.1115L16.6299 16.4254Z"
            fill="white" />
        <path
            d="M17.4954 29.0904C17.4954 28.6885 17.1154 28.3489 16.6656 28.3489H15.889V29.8318H16.6656C17.1153 29.8318 17.4954 29.4923 17.4954 29.0904Z"
            fill="white" />
        <path
            d="M32.5401 30.5361C32.5401 30.023 32.4241 28.3489 30.9313 28.3489H30.5131V32.7164C30.6733 32.7146 30.8328 32.7125 30.9669 32.7102C31.75 32.6965 32.5401 32.019 32.5401 30.5361Z"
            fill="white" />
        <path
            d="M34.4439 20.8487H27.9159C27.4835 22.6095 25.8923 23.9199 24 23.9199C22.1077 23.9199 20.5166 22.6094 20.0841 20.8487H13.5561C11.5932 20.8487 10.0019 22.44 10.0019 24.4029V34.4458C10.0019 36.4087 11.5932 38 13.5561 38H34.4439C36.4068 38 37.9981 36.4087 37.9981 34.4458V24.4029C37.9981 22.44 36.4068 20.8487 34.4439 20.8487ZM19.2045 34.3652H17.4813L16.5507 31.4723H15.889V34.3652H14.2486V26.7085H16.6656C18.0276 26.7085 19.1358 27.777 19.1358 29.0904C19.1358 29.8776 18.7375 30.5764 18.1253 31.0103L19.2045 34.3652ZM28.8727 34.3686V26.7085H30.9313C32.8747 26.7085 34.1805 28.2467 34.1805 30.5361C34.1805 32.714 32.841 34.3181 30.9955 34.3503C30.5106 34.3589 28.8727 34.3686 28.8727 34.3686ZM25.8149 26.7085H27.4553V34.3637H25.8149V26.7085ZM24.453 26.7085V28.3489H22.2827V29.6484H23.7027V31.2888H22.2827V34.3637H20.6423V26.7085H24.453Z"
            fill="white" />
        <path
            d="M23.9999 17.495C22.6809 17.495 21.6077 18.5681 21.6077 19.8872C21.6077 21.2063 22.6809 22.2795 23.9999 22.2795C25.319 22.2795 26.3922 21.2063 26.3922 19.8872C26.3922 18.5681 25.319 17.495 23.9999 17.495Z"
            fill="white" />
    </g>
    <defs>
        <clipPath id="clip0_2507_6186">
            <rect width="28" height="28" fill="white" transform="translate(10 10)" />
        </clipPath>
    </defs>
</svg>