<svg width="48" height="48" viewBox="0 0 48 48" fill="none" xmlns="http://www.w3.org/2000/svg">
    <rect width="48" height="48" rx="24" fill="#16144A" />
    <mask id="mask0_2647_6116" style="mask-type: alpha" maskUnits="userSpaceOnUse" x="10" y="10" width="28" height="28">
        <rect x="10" y="10" width="28" height="28" fill="#D9D9D9" />
    </mask>
    <g mask="url(#mask0_2647_6116)">
        <path
            d="M24 30.825C24.4667 30.825 24.8606 30.6695 25.1818 30.3583C25.5023 30.0472 25.6625 29.6486 25.6625 29.1625C25.6625 28.6958 25.5023 28.3019 25.1818 27.9807C24.8606 27.6602 24.4667 27.5 24 27.5C23.5139 27.5 23.1153 27.6602 22.8042 27.9807C22.4931 28.3019 22.3375 28.7056 22.3375 29.1917C22.3375 29.6583 22.4931 30.0472 22.8042 30.3583C23.1153 30.6695 23.5139 30.825 24 30.825ZM24 25.6625C24.4667 25.6625 24.8606 25.507 25.1818 25.1958C25.5023 24.8847 25.6625 24.4861 25.6625 24C25.6625 23.5139 25.5023 23.1153 25.1818 22.8042C24.8606 22.4931 24.4667 22.3375 24 22.3375C23.5139 22.3375 23.1153 22.4931 22.8042 22.8042C22.4931 23.1153 22.3375 23.5139 22.3375 24C22.3375 24.4861 22.4931 24.8847 22.8042 25.1958C23.1153 25.507 23.5139 25.6625 24 25.6625ZM24 20.4708C24.4667 20.4708 24.8606 20.3153 25.1818 20.0042C25.5023 19.6931 25.6625 19.2945 25.6625 18.8083C25.6625 18.3417 25.5023 17.9477 25.1818 17.6265C24.8606 17.3061 24.4667 17.1458 24 17.1458C23.5139 17.1458 23.1153 17.3061 22.8042 17.6265C22.4931 17.9477 22.3375 18.3417 22.3375 18.8083C22.3375 19.2945 22.4931 19.6931 22.8042 20.0042C23.1153 20.3153 23.5139 20.4708 24 20.4708ZM18.3708 27.4708V26.0125C17.3986 25.7597 16.5917 25.2491 15.95 24.4807C15.3083 23.713 14.9875 22.8139 14.9875 21.7833H18.3708V20.325C17.3986 20.0722 16.5917 19.557 15.95 18.7792C15.3083 18.0014 14.9875 17.0972 14.9875 16.0667H18.3708V15.95C18.3708 15.3472 18.5847 14.832 19.0125 14.4042C19.4403 13.9764 19.9556 13.7625 20.5583 13.7625H27.4417C28.025 13.7625 28.5352 13.9764 28.9723 14.4042C29.4102 14.832 29.6292 15.3472 29.6292 15.95V16.0667H33.0417C33.0417 17.0972 32.7111 18.0014 32.05 18.7792C31.3889 19.557 30.5819 20.0722 29.6292 20.325V21.7833H33.0417C33.0417 22.8139 32.7111 23.713 32.05 24.4807C31.3889 25.2491 30.5819 25.7597 29.6292 26.0125V27.4708H33.0417C33.0417 28.5014 32.7111 29.4056 32.05 30.1833C31.3889 30.9611 30.5819 31.4764 29.6292 31.7292V32.05C29.6292 32.6528 29.4102 33.1681 28.9723 33.5958C28.5352 34.0236 28.025 34.2375 27.4417 34.2375H20.5583C19.9556 34.2375 19.4403 34.0236 19.0125 33.5958C18.5847 33.1681 18.3708 32.6528 18.3708 32.05V31.7292C17.3986 31.4764 16.5917 30.9611 15.95 30.1833C15.3083 29.4056 14.9875 28.5014 14.9875 27.4708H18.3708Z"
            fill="white" />
    </g>
</svg>