<svg width="48" height="48" viewBox="0 0 48 48" fill="none" xmlns="http://www.w3.org/2000/svg">
    <rect width="48" height="48" rx="24" fill="#0085FF" />
    <mask id="mask0_2647_6169" style="mask-type: alpha" maskUnits="userSpaceOnUse" x="10" y="10" width="28" height="28">
        <rect x="10" y="10" width="28" height="28" fill="#D9D9D9" />
    </mask>
    <g mask="url(#mask0_2647_6169)">
        <path
            d="M24 35.6666C21.5306 35.6666 19.3578 34.8064 17.4818 33.086C15.6051 31.3648 14.6667 29.0361 14.6667 26.1C14.6667 24.2528 15.3667 22.25 16.7667 20.0916C18.1667 17.9333 20.2861 15.6 23.125 13.0916C23.2417 12.9944 23.3778 12.9166 23.5333 12.8583C23.6889 12.8 23.8444 12.7708 24 12.7708C24.1556 12.7708 24.3111 12.8 24.4667 12.8583C24.6222 12.9166 24.7583 12.9944 24.875 13.0916C27.7139 15.6 29.8333 17.9333 31.2333 20.0916C32.6333 22.25 33.3333 24.2528 33.3333 26.1C33.3333 29.0361 32.3949 31.3648 30.5182 33.086C28.6422 34.8064 26.4694 35.6666 24 35.6666ZM24.3208 32.1666C24.5542 32.1472 24.7537 32.055 24.9193 31.8901C25.0842 31.7245 25.1667 31.525 25.1667 31.2916C25.1667 31.0194 25.0792 30.8009 24.9042 30.636C24.7292 30.4703 24.5056 30.3972 24.2333 30.4166C23.4361 30.475 22.5903 30.2564 21.6958 29.761C20.8014 29.2648 20.2375 28.3653 20.0042 27.0625C19.9653 26.8486 19.863 26.6736 19.6973 26.5375C19.5324 26.4014 19.3431 26.3333 19.1292 26.3333C18.8569 26.3333 18.6333 26.4352 18.4583 26.639C18.2833 26.8435 18.225 27.0819 18.2833 27.3541C18.6139 29.1236 19.3917 30.3875 20.6167 31.1458C21.8417 31.9041 23.0764 32.2444 24.3208 32.1666Z"
            fill="white" />
    </g>
</svg>