<svg width="368" height="158" viewBox="0 0 368 158" fill="none" xmlns="http://www.w3.org/2000/svg">
    <g clip-path="url(#clip0_4778_12652)">
        <rect width="368" height="158" fill="#648BDC" />
        <path
            d="M391 125.653C390.727 126.507 390.446 127.355 390.16 128.196C390.04 128.553 389.909 128.905 389.794 129.262C389.294 130.693 388.759 132.103 388.213 133.483C387.912 134.24 387.604 134.989 387.29 135.728C386.54 137.487 385.749 139.189 384.921 140.83C384.741 141.187 384.559 141.542 384.379 141.891C383.436 143.681 382.45 145.388 381.409 146.991C381.189 147.333 380.964 147.668 380.737 147.997C379.53 149.791 378.192 151.493 376.734 153.087C376.281 153.59 375.821 154.055 375.353 154.505C373.102 156.697 370.658 158.429 368.042 159.585C367.851 159.671 367.661 159.751 367.466 159.837L367.321 159.897L217.141 160L-0.168625 158.69C-0.457127 158.049 -0.743141 157.397 -1.02664 156.737C-1.25844 156.203 -1.48942 155.661 -1.71955 155.113C-1.88631 154.703 -2.0589 154.284 -2.23734 153.856C-3.63566 150.465 -4.98895 146.871 -6.26969 143.1C-9.64667 133.098 -12.3858 121.867 -13.4839 109.969C-14.6246 97.612 -13.9842 84.5382 -10.4546 71.3788C-9.35186 67.2791 -7.98828 63.2547 -6.37226 59.3306C-2.62007 50.1957 2.71556 41.1136 9.99231 32.2955C10.5101 32.2101 11.0329 32.1271 11.5607 32.0441C12.006 31.9738 12.4537 31.9059 12.904 31.8431C15.0719 31.5263 17.1507 31.1518 19.1401 30.7194V53.5138H29.0534V48.1998L40.7453 48.2476V39.6205H43.0992V37.9112H43.4093V39.6205H54.2432V37.9087H54.5533V39.6205H56.7296V56.7792H70.6478V63.0936H78.3848V59.4286H85.559V44.8692H89.136V38.0821H89.6789V44.8692H98.2564V32.1397H99.0944V44.8692H104.765V19.9029H106.456V18H106.726V19.9029H119.251V18H119.521V19.9029H121.805V33.2105H123.416H123.404V30.6666H123.416V28.907H123.404V26.3682H123.416V24.6086H123.404V22.0747H141.212L141.617 22.482V36.8102H152.718V55.8818H161.686V20.6042H163.637V18.1433H163.987V20.6118H171.071V18.1433H171.424V20.6118H181.453V18.1433H181.803V20.6118H188.114V18.1433H188.464V20.6118H191.058V53.5415H200.969V48.1998L212.661 48.2476V39.6205H215.015V37.9112H215.325V39.6205H226.154V37.9087H226.469V39.6205H228.645V56.7792H242.566V63.0936H250.3V59.4286H257.474V44.8692H261.052V38.0821H261.592V44.8692H270.169V32.1397H271.01V44.8692H276.683V19.9029H278.374V18H278.644V19.9029H291.167V18H291.439V19.9029H293.726V33.2105H295.334H295.319V30.6666H295.334V28.907H295.319V26.3682H295.334V24.6086H295.319V22.0747H313.129L313.535 22.2784V36.8001H332.168V55.8717H341.138V20.6042H343.09V18.1433H343.44V20.6118H350.521V18.1433H350.872V20.6118L376.924 19.9029C377.027 21.8661 377.074 23.7338 377.082 25.4808C377.082 26.5291 377.082 27.5345 377.057 28.4973C377.014 30.6088 376.917 32.4891 376.807 34.0778C376.717 35.3346 376.617 36.4004 376.527 37.2651C376.354 38.9041 376.206 39.8115 376.206 39.8115C376.206 39.8115 375.806 41.1916 375.338 42.8456C375.028 43.9416 374.691 45.1582 374.418 46.1738C374.263 46.7494 374.13 47.2647 374.035 47.6543C373.702 49.057 373.401 50.4236 373.135 51.7542C372.929 52.7798 372.748 53.7853 372.592 54.7707C372.502 55.3111 372.422 55.8466 372.342 56.3769C372.234 57.1311 372.142 57.85 372.064 58.5714C371.996 59.1731 376.784 56.7775 376.734 57.3623C376.357 61.3524 369.518 69.0693 370 73.0479C371.814 87.2555 363.501 95.9479 371.881 104.105C374.438 106.591 377.059 109.024 379.601 111.553C379.911 111.86 380.224 112.171 380.531 112.483C381.062 113.019 381.587 113.562 382.107 114.112L382.317 114.336C384.403 116.515 386.344 118.828 388.131 121.261C388.536 121.812 388.926 122.375 389.309 122.948C389.759 123.618 390.195 124.306 390.617 125.012C390.745 125.228 390.872 125.434 391 125.653Z"
            fill="#3B61CB" />
        <path d="M191.061 20.6017H168.655V26.1822H191.061V20.6017Z" fill="#3B61CB" />
        <path d="M191.061 29.1911H168.655V34.7715H191.061V29.1911Z" fill="#3B61CB" />
        <path d="M191.061 37.9615H168.655V43.5419H191.061V37.9615Z" fill="#3B61CB" />
        <path d="M191.061 46.8701H168.655V52.4505H191.061V46.8701Z" fill="#3B61CB" />
        <path d="M191.061 55.4645H168.655V61.0449H191.061V55.4645Z" fill="#3B61CB" />
        <path d="M287.169 19.9029H276.716V23.2914H287.169V19.9029Z" fill="#3B61CB" />
        <path d="M287.169 25.1189H276.716V28.5074H287.169V25.1189Z" fill="#3B61CB" />
        <path d="M287.169 30.4454H276.716V33.8339H287.169V30.4454Z" fill="#3B61CB" />
        <path d="M287.169 35.855H276.716V39.2434H287.169V35.855Z" fill="#3B61CB" />
        <path d="M287.169 41.0759H276.716V44.4644H287.169V41.0759Z" fill="#3B61CB" />
        <path d="M287.169 46.8198H276.716V50.2083H287.169V46.8198Z" fill="#3B61CB" />
        <path d="M287.169 52.0383H276.716V55.4268H287.169V52.0383Z" fill="#3B61CB" />
        <path d="M287.169 57.3623H276.716V60.7508H287.169V57.3623Z" fill="#3B61CB" />
        <path d="M287.169 62.7744H276.716V66.1629H287.169V62.7744Z" fill="#3B61CB" />
        <path d="M287.169 67.9928H276.716V71.3813H287.169V67.9928Z" fill="#3B61CB" />
        <path d="M306.516 22.125H295.312V25.5135H306.516V22.125Z" fill="#3B61CB" />
        <path d="M306.516 27.341H295.312V30.7295H306.516V27.341Z" fill="#3B61CB" />
        <path d="M306.516 32.6676H295.312V36.0561H306.516V32.6676Z" fill="#3B61CB" />
        <path d="M306.516 38.0771H295.312V41.4656H306.516V38.0771Z" fill="#3B61CB" />
        <path d="M306.516 43.2981H295.312V46.6866H306.516V43.2981Z" fill="#3B61CB" />
        <path d="M306.516 48.7403H295.312V52.1288H306.516V48.7403Z" fill="#3B61CB" />
        <path d="M306.516 53.9562H295.312V57.3447H306.516V53.9562Z" fill="#3B61CB" />
        <path d="M306.516 59.2828H295.312V62.6713H306.516V59.2828Z" fill="#3B61CB" />
        <path d="M306.516 64.6923H295.312V68.0808H306.516V64.6923Z" fill="#3B61CB" />
        <path d="M306.516 69.9133H295.312V73.3018H306.516V69.9133Z" fill="#3B61CB" />
        <path d="M306.516 75.901H295.312V79.2895H306.516V75.901Z" fill="#3B61CB" />
        <path d="M306.516 81.117H295.312V84.5055H306.516V81.117Z" fill="#3B61CB" />
        <path d="M306.516 86.4436H295.312V89.832H306.516V86.4436Z" fill="#3B61CB" />
        <path d="M306.516 91.8531H295.312V95.2416H306.516V91.8531Z" fill="#3B61CB" />
        <path d="M306.516 97.0741H295.312V100.463H306.516V97.0741Z" fill="#3B61CB" />
        <path
            d="M377.044 28.4948C377.002 30.6063 376.904 32.4866 376.794 34.0752L350.099 34.7841V29.2036L377.044 28.4948Z"
            fill="#3B61CB" />
        <path
            d="M376.522 37.2526C376.349 38.8915 376.201 39.799 376.201 39.799C376.201 39.799 375.801 41.179 375.333 42.833L350.106 43.5419V37.9615L376.522 37.2526Z"
            fill="#3B61CB" />
        <path
            d="M374.413 46.1612C374.258 46.7368 374.125 47.2521 374.03 47.6418C373.697 49.0444 373.396 50.4111 373.13 51.7416L350.106 52.4505V46.8701L374.413 46.1612Z"
            fill="#3B61CB" />
        <path d="M115.869 19.9029H104.665V23.2914H115.869V19.9029Z" fill="#3B61CB" />
        <path d="M115.869 25.1189H104.665V28.5074H115.869V25.1189Z" fill="#3B61CB" />
        <path d="M115.869 30.4454H104.665V33.8339H115.869V30.4454Z" fill="#3B61CB" />
        <path d="M115.869 35.855H104.665V39.2434H115.869V35.855Z" fill="#3B61CB" />
        <path d="M115.869 41.0759H104.665V44.4644H115.869V41.0759Z" fill="#3B61CB" />
        <path d="M115.869 46.8198H104.665V50.2083H115.869V46.8198Z" fill="#3B61CB" />
        <path d="M115.869 52.0383H104.665V55.4268H115.869V52.0383Z" fill="#3B61CB" />
        <path d="M115.869 57.3623H104.665V60.7508H115.869V57.3623Z" fill="#3B61CB" />
        <path d="M115.869 62.7744H104.665V66.1629H115.869V62.7744Z" fill="#3B61CB" />
        <path d="M115.869 67.9928H104.665V71.3813H115.869V67.9928Z" fill="#3B61CB" />
        <path d="M136.369 22.125H123.636V25.5135H136.369V22.125Z" fill="#3B61CB" />
        <path d="M136.369 27.341H123.636V30.7295H136.369V27.341Z" fill="#3B61CB" />
        <path d="M136.369 32.6676H123.636V36.0561H136.369V32.6676Z" fill="#3B61CB" />
        <path d="M136.369 38.0771H123.636V41.4656H136.369V38.0771Z" fill="#3B61CB" />
        <path d="M136.369 43.2981H123.636V46.6866H136.369V43.2981Z" fill="#3B61CB" />
        <path d="M136.369 48.7403H123.636V52.1288H136.369V48.7403Z" fill="#3B61CB" />
        <path d="M136.369 53.9562H123.636V57.3447H136.369V53.9562Z" fill="#3B61CB" />
        <path d="M136.369 59.2828H123.636V62.6713H136.369V59.2828Z" fill="#3B61CB" />
        <path d="M136.369 64.6923H123.636V68.0808H136.369V64.6923Z" fill="#3B61CB" />
        <path d="M136.369 69.9133H123.636V73.3018H136.369V69.9133Z" fill="#3B61CB" />
        <path d="M136.369 75.901H123.636V79.2895H136.369V75.901Z" fill="#3B61CB" />
        <path d="M136.369 81.117H123.636V84.5055H136.369V81.117Z" fill="#3B61CB" />
        <path d="M136.369 86.4436H123.636V89.832H136.369V86.4436Z" fill="#3B61CB" />
        <path d="M136.369 91.8531H123.636V95.2416H136.369V91.8531Z" fill="#3B61CB" />
        <path d="M136.369 97.0741H123.636V100.463H136.369V97.0741Z" fill="#3B61CB" />
        <path
            d="M398.424 123.133C398.054 129.25 396.9 136.14 394.768 143.981C393.674 148.008 391.284 151.563 387.969 154.097C384.654 156.63 380.596 158.002 376.424 158L199.215 157.917H196.871H180.154H178.007H162.052H159.324H137.093H133.174H115.044H110.115L78.8665 157.901H73.4087H47.9049H44.1464L3.74561 157.882C-1.07249 157.881 -5.80322 156.595 -9.95976 154.158C-14.1163 151.721 -17.5485 148.22 -19.9032 144.016C-23.6691 137.274 -27.0404 130.319 -30 123.187L398.424 123.133Z"
            fill="#3E65CE" />
        <path d="M26.0198 139.966L3.43945 139.577L6.51334 137.493L29.0936 137.883L26.0198 139.966Z" fill="#6B91DE" />
        <path d="M246.02 139.966L223.439 139.577L226.513 137.493L249.094 137.883L246.02 139.966Z" fill="#6B91DE" />
        <path d="M97.841 139.966L75.2607 139.577L78.3346 137.493L100.915 137.883L97.841 139.966Z" fill="#6B91DE" />
        <path d="M317.841 139.966L295.261 139.577L298.335 137.493L320.915 137.883L317.841 139.966Z" fill="#6B91DE" />
        <path d="M169.601 139.966L147.021 139.577L150.095 137.493L172.675 137.883L169.601 139.966Z" fill="#6B91DE" />
        <path d="M389.601 139.966L367.021 139.577L370.094 137.493L392.675 137.883L389.601 139.966Z" fill="#6B91DE" />
    </g>
    <path d="M233.517 47.0742H147V123.043H233.517V47.0742Z" fill="#567DD6" />
    <path d="M233.517 40H147V47.0739H233.517V40Z" fill="#07336C" />
    <path d="M233.517 54.8525H153.518V85.2684H233.517V54.8525Z" fill="#2644BB" />
    <path d="M191.347 54.8525L177.423 85.2684H164.379L178.303 54.8525H191.347Z" fill="#7096E0" />
    <path d="M200.664 54.8525L186.74 85.2684H180.218L194.142 54.8525H200.664Z" fill="#7096E0" />
    <path d="M217.124 54.8525L203.199 85.2684H199.938L213.863 54.8525H217.124Z" fill="#7096E0" />
    <path opacity="0.6"
        d="M25.5759 136H143.424C143.842 136 144.243 135.737 144.538 135.268C144.834 134.799 145 134.163 145 133.5C145 132.837 144.834 132.201 144.538 131.732C144.243 131.263 143.842 131 143.424 131H25.5759C25.1579 131 24.7571 131.263 24.4616 131.732C24.166 132.201 24 132.837 24 133.5C24 134.163 24.166 134.799 24.4616 135.268C24.7571 135.737 25.1579 136 25.5759 136Z"
        fill="#2644BB" />
    <path
        d="M344.525 91.1518C344.525 91.5718 344.402 91.9827 344.173 92.3343C343.943 92.686 343.616 92.9632 343.231 93.1323H343.226C342.953 93.2511 342.659 93.3121 342.362 93.3115H243.302V88.9873H342.365C342.649 88.9876 342.93 89.0439 343.192 89.1528C343.454 89.2618 343.693 89.4213 343.893 89.6223C344.094 89.8233 344.253 90.0618 344.361 90.3242C344.469 90.5867 344.525 90.8679 344.525 91.1518Z"
        fill="#7096E0" />
    <path d="M272.52 93.3135H267.787L265.318 89.0351L265.29 88.9893H270.024L272.52 93.3135Z" fill="#07336C" />
    <path d="M281.95 93.3135H277.218L274.721 88.9893H279.454L281.95 93.3135Z" fill="#07336C" />
    <path d="M291.4 93.3135H286.667L284.171 88.9893H288.903L291.4 93.3135Z" fill="#07336C" />
    <path d="M253.653 93.3135H248.92L246.424 88.9893H251.156L253.653 93.3135Z" fill="#07336C" />
    <path d="M263.102 93.3135H258.37L255.873 88.9893H260.606L263.102 93.3135Z" fill="#07336C" />
    <path d="M300.829 93.3135H296.097L293.6 88.9893H298.332L300.829 93.3135Z" fill="#07336C" />
    <path d="M310.292 93.3135H305.559L303.062 88.9893H307.796L310.292 93.3135Z" fill="#07336C" />
    <path d="M319.722 93.3135H314.99L312.493 88.9893H317.226L319.722 93.3135Z" fill="#07336C" />
    <path d="M329.18 93.3135H324.447L321.95 88.9893H326.684L329.18 93.3135Z" fill="#07336C" />
    <path d="M338.609 93.3135H333.876L331.38 88.9893H336.112L338.609 93.3135Z" fill="#07336C" />
    <path
        d="M344.524 91.1514C344.524 91.5714 344.401 91.9822 344.172 92.3339C343.942 92.6855 343.615 92.9628 343.231 93.1318L340.839 88.9893H342.362C342.935 88.9893 343.485 89.217 343.891 89.6225C344.296 90.028 344.524 90.5779 344.524 91.1514Z"
        fill="#07336C" />
    <path
        d="M242.948 87C243.995 87 244.999 87.4159 245.739 88.1561C246.479 88.8964 246.895 89.9004 246.895 90.9473V125.685H239V90.9481C239 90.4296 239.102 89.9161 239.3 89.4371C239.499 88.958 239.789 88.5228 240.156 88.1561C240.523 87.7895 240.958 87.4987 241.437 87.3003C241.916 87.1019 242.43 86.9999 242.948 87Z"
        fill="#2246A8" />
    <path
        d="M242.947 93.1504C244.141 93.1504 245.109 92.1824 245.109 90.9883C245.109 89.7942 244.141 88.8262 242.947 88.8262C241.753 88.8262 240.785 89.7942 240.785 90.9883C240.785 92.1824 241.753 93.1504 242.947 93.1504Z"
        fill="#07336C" />
    <path opacity="0.6"
        d="M247.759 125.604H343.206C343.545 125.604 343.869 125.341 344.109 124.872C344.348 124.403 344.482 123.768 344.482 123.104C344.482 122.441 344.348 121.806 344.109 121.337C343.869 120.868 343.545 120.604 343.206 120.604H247.759C247.42 120.604 247.096 120.868 246.856 121.337C246.617 121.806 246.482 122.441 246.482 123.104C246.482 123.768 246.617 124.403 246.856 124.872C247.096 125.341 247.42 125.604 247.759 125.604Z"
        fill="#2644BB" />
    <path
        d="M34.36 84.5274H27.769C27.0346 84.5274 26.3303 84.8191 25.811 85.3384C25.2917 85.8578 25 86.5621 25 87.2965V105.282C25 106.017 25.2917 106.721 25.811 107.24C26.3303 107.76 27.0346 108.051 27.769 108.051H34.36V84.5186V84.5274Z"
        fill="#07336C" />
    <path
        d="M60.0334 74H94.5452C96.1283 74 97.4116 75.2833 97.4116 76.8664V82.1391C97.4116 83.7222 96.1283 85.0056 94.5452 85.0056H60.0334C58.4503 85.0056 57.167 83.7222 57.167 82.1391V76.8664C57.167 75.2833 58.4503 74 60.0334 74Z"
        fill="#07336C" />
    <path
        d="M32.3604 82.9175V102.743H141.655L140.567 98.7269L140.505 98.5146C140.175 97.5594 139.587 96.7141 138.806 96.0723C138.026 95.4306 137.083 95.0174 136.082 94.8785C129.004 93.9054 112.381 91.7113 111.487 91.5521L106.63 81.7586C106.064 80.3979 105.107 79.2355 103.88 78.4183C102.654 77.6011 101.212 77.1657 99.7385 77.167H38.1109C37.3554 77.1658 36.6071 77.3138 35.9089 77.6024C35.2107 77.8909 34.5763 78.3145 34.0421 78.8487C33.5078 79.3829 33.0843 80.0173 32.7957 80.7155C32.5071 81.4137 32.3592 82.162 32.3604 82.9175Z"
        fill="#567DD6" />
    <path
        d="M32.3515 102.743V111.059L143.734 110.626L143.601 110.104L143.38 109.29L142.204 107.264C142.268 106.94 142.411 106.636 142.619 106.379L142.496 105.928L141.664 102.761L32.3515 102.743Z"
        fill="#2644BB" />
    <path
        d="M30.8214 111.06V113.325C30.8214 114.634 31.3415 115.89 32.2673 116.815C33.1931 117.741 34.4487 118.261 35.7579 118.261H143.31C143.953 118.265 144.584 118.083 145.126 117.738C145.669 117.393 146.101 116.899 146.371 116.315C146.417 116.227 146.455 116.135 146.486 116.041C146.618 115.672 146.683 115.282 146.681 114.891V113.44C146.679 113.095 146.629 112.752 146.53 112.422C146.46 112.2 146.365 111.986 146.247 111.785C146.005 111.351 145.669 110.976 145.263 110.688C144.858 110.4 144.393 110.207 143.903 110.122C143.71 110.086 143.515 110.068 143.319 110.069H31.8476C31.7146 110.064 31.5819 110.086 31.4576 110.134C31.3332 110.182 31.2198 110.254 31.124 110.346C31.0282 110.439 30.952 110.55 30.9 110.672C30.848 110.795 30.8213 110.927 30.8214 111.06Z"
        fill="#2246A8" />
    <path d="M104.728 97.6924H106.418V108.999H104.728V97.6924Z" fill="#2246A8" />
    <path
        d="M32.3511 102.743V108.051H35.1467C35.454 108.048 35.7551 107.965 36.0204 107.809C36.2857 107.654 36.506 107.433 36.6596 107.167L38.2962 104.424C38.3955 104.256 38.4488 104.064 38.4507 103.869C38.4527 103.674 38.4033 103.481 38.3074 103.311C38.2115 103.141 38.0725 102.998 37.9044 102.899C37.7363 102.799 37.545 102.746 37.3496 102.743H32.3511Z"
        fill="#07336C" />
    <path
        d="M32.3607 104.115V106.636H34.8024C34.9775 106.629 35.1485 106.581 35.302 106.497C35.4555 106.412 35.5874 106.293 35.6871 106.149L36.5718 104.628C36.605 104.572 36.6227 104.509 36.623 104.444C36.6234 104.379 36.6065 104.316 36.574 104.26C36.5415 104.204 36.4946 104.158 36.4383 104.126C36.3819 104.094 36.318 104.078 36.2533 104.079L32.3607 104.115Z"
        fill="#7096E0" />
    <path
        d="M30.8653 111.82H34.8022C35.4569 111.82 35.9877 112.351 35.9877 113.006V113.015C35.9877 113.669 35.4569 114.2 34.8022 114.2H30.8653C30.2106 114.2 29.6798 113.669 29.6798 113.015V113.006C29.6798 112.351 30.2106 111.82 30.8653 111.82Z"
        fill="#7096E0" />
    <path
        d="M137.824 107.999C137.824 108.551 138.043 109.079 138.433 109.469C138.823 109.859 139.352 110.078 139.903 110.078H143.593L143.371 109.264L142.487 105.92H139.939C139.663 105.917 139.389 105.968 139.134 106.071C138.878 106.173 138.645 106.326 138.448 106.519C138.252 106.712 138.095 106.943 137.988 107.197C137.881 107.451 137.825 107.723 137.824 107.999Z"
        fill="#7096E0" />
    <path
        d="M104.949 118.288H136.515C136.088 116.152 135.224 114.128 133.976 112.343C132.635 110.413 130.888 108.799 128.857 107.617C126.826 106.434 124.561 105.71 122.22 105.496C119.88 105.282 117.521 105.582 115.309 106.377C113.097 107.172 111.086 108.441 109.417 110.096C108.718 110.787 108.082 111.539 107.515 112.343C106.266 114.13 105.394 116.153 104.949 118.288Z"
        fill="#07336C" />
    <path
        d="M107.631 118.288H133.844C133.015 114.88 130.876 111.936 127.89 110.096C126.081 108.973 124.033 108.294 121.912 108.112C119.792 107.93 117.658 108.251 115.684 109.05C113.711 109.848 111.954 111.101 110.556 112.706C109.158 114.311 108.159 116.224 107.639 118.288H107.631Z"
        fill="#073D84" />
    <path
        d="M120.732 133C114.37 133 109.213 127.843 109.213 121.482C109.213 115.12 114.37 109.963 120.732 109.963C127.094 109.963 132.251 115.12 132.251 121.482C132.251 127.843 127.094 133 120.732 133Z"
        fill="#07336C" />
    <path
        d="M120.733 128.886C116.643 128.886 113.328 125.571 113.328 121.481C113.328 117.391 116.643 114.076 120.733 114.076C124.822 114.076 128.138 117.391 128.138 121.481C128.138 125.571 124.822 128.886 120.733 128.886Z"
        fill="#073D84" />
    <path
        d="M120.733 124.692C118.959 124.692 117.521 123.255 117.521 121.481C117.521 119.707 118.959 118.27 120.733 118.27C122.507 118.27 123.944 119.707 123.944 121.481C123.944 123.255 122.507 124.692 120.733 124.692Z"
        fill="#07336C" />
    <path
        d="M144.088 114.076C144.088 114.677 144.326 115.253 144.751 115.678C145.176 116.103 145.752 116.341 146.352 116.341C146.398 116.253 146.437 116.161 146.468 116.067C146.599 115.698 146.665 115.309 146.662 114.917V113.466C146.661 113.121 146.61 112.779 146.512 112.449C146.442 112.226 146.347 112.012 146.229 111.812C145.65 111.845 145.107 112.099 144.709 112.519C144.311 112.94 144.089 113.497 144.088 114.076Z"
        fill="#7096E0" />
    <path
        d="M120.732 116.863C120.219 116.863 119.803 116.447 119.803 115.934C119.803 115.421 120.219 115.005 120.732 115.005C121.245 115.005 121.661 115.421 121.661 115.934C121.661 116.447 121.245 116.863 120.732 116.863Z"
        fill="#07336C" />
    <path
        d="M115.07 122.411C114.557 122.411 114.141 121.995 114.141 121.482C114.141 120.969 114.557 120.553 115.07 120.553C115.583 120.553 115.999 120.969 115.999 121.482C115.999 121.995 115.583 122.411 115.07 122.411Z"
        fill="#07336C" />
    <path
        d="M126.448 122.411C125.934 122.411 125.519 121.995 125.519 121.482C125.519 120.969 125.934 120.553 126.448 120.553C126.961 120.553 127.376 120.969 127.376 121.482C127.376 121.995 126.961 122.411 126.448 122.411Z"
        fill="#07336C" />
    <path
        d="M120.732 128.152C120.219 128.152 119.803 127.736 119.803 127.223C119.803 126.71 120.219 126.294 120.732 126.294C121.245 126.294 121.661 126.71 121.661 127.223C121.661 127.736 121.245 128.152 120.732 128.152Z"
        fill="#07336C" />
    <path
        d="M124.846 118.464C124.333 118.464 123.917 118.048 123.917 117.535C123.917 117.022 124.333 116.606 124.846 116.606C125.359 116.606 125.775 117.022 125.775 117.535C125.775 118.048 125.359 118.464 124.846 118.464Z"
        fill="#07336C" />
    <path
        d="M116.787 118.464C116.274 118.464 115.858 118.048 115.858 117.535C115.858 117.022 116.274 116.606 116.787 116.606C117.3 116.606 117.716 117.022 117.716 117.535C117.716 118.048 117.3 118.464 116.787 118.464Z"
        fill="#07336C" />
    <path
        d="M124.846 126.356C124.333 126.356 123.917 125.94 123.917 125.427C123.917 124.914 124.333 124.498 124.846 124.498C125.359 124.498 125.775 124.914 125.775 125.427C125.775 125.94 125.359 126.356 124.846 126.356Z"
        fill="#07336C" />
    <path
        d="M116.787 126.356C116.274 126.356 115.858 125.94 115.858 125.427C115.858 124.914 116.274 124.498 116.787 124.498C117.3 124.498 117.716 124.914 117.716 125.427C117.716 125.94 117.3 126.356 116.787 126.356Z"
        fill="#07336C" />
    <path
        d="M39.6414 81.1574L81.5492 80.9805V93.3042H36.1026V84.6608C36.1119 83.7284 36.4888 82.8374 37.1515 82.1813C37.8141 81.5253 38.7089 81.1574 39.6414 81.1574Z"
        fill="#2E59C6" />
    <path d="M105.773 97.0547V98.7356H140.568L140.506 98.5233C140.322 97.9972 140.059 97.5021 139.727 97.0547H105.773Z"
        fill="#2246A8" />
    <path
        d="M87.4061 98.8067C86.2481 98.8067 85.3094 97.868 85.3094 96.71C85.3094 95.552 86.2481 94.6133 87.4061 94.6133C88.5641 94.6133 89.5028 95.552 89.5028 96.71C89.5028 97.868 88.5641 98.8067 87.4061 98.8067Z"
        fill="#004BB0" />
    <path
        d="M84.9024 95.666C85.1183 95.6667 85.3286 95.7343 85.5044 95.8594C85.6803 95.9846 85.8131 96.1612 85.8844 96.3649H88.9277C89.0111 96.1313 89.1743 95.9346 89.3886 95.8096C89.6029 95.6845 89.8544 95.6391 90.0988 95.6814C90.3433 95.7238 90.5649 95.851 90.7247 96.0408C90.8844 96.2306 90.972 96.4707 90.972 96.7188C90.972 96.9669 90.8844 97.207 90.7247 97.3968C90.5649 97.5866 90.3433 97.7138 90.0988 97.7562C89.8544 97.7985 89.6029 97.7531 89.3886 97.6281C89.1743 97.503 89.0111 97.3063 88.9277 97.0727H85.8844C85.8196 97.2525 85.7067 97.4111 85.558 97.5311C85.4093 97.6512 85.2304 97.7281 85.041 97.7535C84.8516 97.7789 84.6588 97.7518 84.4837 97.6752C84.3086 97.5985 84.1579 97.4753 84.0481 97.3189C83.9382 97.1625 83.8734 96.979 83.8607 96.7883C83.8479 96.5976 83.8878 96.407 83.9759 96.2374C84.0641 96.0678 84.1971 95.9257 84.3604 95.8265C84.5238 95.7273 84.7113 95.6748 84.9024 95.6749V95.666Z"
        fill="#07336C" />
    <path
        d="M60.2732 98.8067C59.1152 98.8067 58.1764 97.868 58.1764 96.71C58.1764 95.552 59.1152 94.6133 60.2732 94.6133C61.4311 94.6133 62.3699 95.552 62.3699 96.71C62.3699 97.868 61.4311 98.8067 60.2732 98.8067Z"
        fill="#004BB0" />
    <path
        d="M57.7687 95.666C57.9846 95.6667 58.1949 95.7343 58.3708 95.8594C58.5466 95.9846 58.6794 96.1612 58.7507 96.3649H61.7941C61.8775 96.1313 62.0407 95.9346 62.2549 95.8096C62.4692 95.6845 62.7207 95.6391 62.9652 95.6814C63.2096 95.7238 63.4312 95.851 63.591 96.0408C63.7507 96.2306 63.8384 96.4707 63.8384 96.7188C63.8384 96.9669 63.7507 97.207 63.591 97.3968C63.4312 97.5866 63.2096 97.7138 62.9652 97.7562C62.7207 97.7985 62.4692 97.7531 62.2549 97.6281C62.0407 97.503 61.8775 97.3063 61.7941 97.0727H58.7507C58.6859 97.2525 58.573 97.4111 58.4243 97.5311C58.2756 97.6512 58.0967 97.7281 57.9073 97.7535C57.7179 97.7789 57.5251 97.7518 57.35 97.6752C57.1749 97.5985 57.0243 97.4753 56.9144 97.3189C56.8045 97.1625 56.7397 96.979 56.727 96.7883C56.7142 96.5976 56.7541 96.407 56.8422 96.2374C56.9304 96.0678 57.0634 95.9257 57.2268 95.8265C57.3901 95.7273 57.5776 95.6748 57.7687 95.6749V95.666Z"
        fill="#07336C" />
    <path
        d="M82.8503 80.9806H87.1587H98.987C100.001 80.9744 100.994 81.2753 101.834 81.8438C102.674 82.4122 103.322 83.2216 103.694 84.1655L107.038 90.7122C107.984 91.765 105.923 93.3132 105.029 93.3132H81.5498V80.9806H82.8503Z"
        fill="#2E59C6" />
    <path d="M53.6028 80.998H55.2926V113.811H53.6028V80.998Z" fill="#2246A8" />
    <path
        d="M40.6414 86.9521C41.1295 86.9521 41.5975 87.146 41.9426 87.4911C42.2877 87.8362 42.4816 88.3043 42.4816 88.7923V93.3131H38.8012V88.7923C38.8012 88.3043 38.9951 87.8362 39.3402 87.4911C39.6853 87.146 40.1534 86.9521 40.6414 86.9521Z"
        fill="#073D84" />
    <path
        d="M59.8207 86.9521C60.3088 86.9521 60.7768 87.146 61.1219 87.4911C61.467 87.8362 61.6609 88.3043 61.6609 88.7923V93.3131H57.9806V88.7923C57.9806 88.3043 58.1744 87.8362 58.5195 87.4911C58.8646 87.146 59.3327 86.9521 59.8207 86.9521Z"
        fill="#073D84" />
    <path
        d="M101.305 89.5088C101.603 89.5088 101.888 89.6271 102.099 89.8378C102.31 90.0486 102.428 90.3344 102.428 90.6323V93.2864H100.181V90.6323C100.181 90.3344 100.299 90.0486 100.51 89.8378C100.721 89.6271 101.007 89.5088 101.305 89.5088Z"
        fill="#073D84" />
    <path
        d="M84.2749 88.7924V93.3131H82.4347V86.9434C82.6771 86.9434 82.9172 86.9913 83.141 87.0843C83.3648 87.1773 83.5681 87.3137 83.7391 87.4855C83.9101 87.6573 84.0454 87.8612 84.1374 88.0855C84.2293 88.3097 84.276 88.55 84.2749 88.7924Z"
        fill="#073D84" />
    <path
        d="M103.764 87.7041H104.79C105.589 87.7041 106.36 87.9952 106.959 88.5228C107.558 89.0505 107.945 89.7785 108.046 90.5705H103.764V87.7041Z"
        fill="#07336C" />
    <path
        d="M108.037 90.5703C108.046 90.7088 108.046 90.8477 108.037 90.9861V91.9947C108.046 92.1331 108.046 92.272 108.037 92.4105H103.755V90.5703H108.037Z"
        fill="#2246A8" />
    <path
        d="M104.79 95.2854H103.764V92.4189H108.046C107.974 92.9709 107.762 93.4954 107.431 93.9428C107.099 94.3902 106.66 94.7457 106.153 94.9757V96.7451C106.422 96.8873 106.635 97.1155 106.759 97.3933C106.884 97.671 106.911 97.9823 106.838 98.2776C106.765 98.5729 106.595 98.8352 106.355 99.0226C106.115 99.21 105.82 99.3119 105.516 99.3119C105.211 99.3119 104.916 99.21 104.676 99.0226C104.437 98.8352 104.267 98.5729 104.193 98.2776C104.12 97.9823 104.148 97.671 104.272 97.3933C104.396 97.1155 104.61 96.8873 104.879 96.7451V95.3119L104.79 95.2854Z"
        fill="#07336C" />
    <path
        d="M73.7379 121.454H101.765C102.61 121.454 103.42 121.119 104.017 120.522C104.614 119.924 104.95 119.114 104.95 118.27H70.553C70.553 119.114 70.8886 119.924 71.4858 120.522C72.0831 121.119 72.8932 121.454 73.7379 121.454Z"
        fill="#07336C" />
    <path
        d="M38.9873 118.288H70.5531C70.1228 116.151 69.2554 114.127 68.0052 112.342C66.665 110.412 64.9185 108.799 62.8884 107.617C60.8583 106.434 58.5937 105.71 56.2539 105.496C53.9141 105.282 51.5558 105.582 49.3447 106.377C47.1336 107.172 45.1232 108.441 43.455 110.095C42.7561 110.787 42.1196 111.539 41.5529 112.342C40.2971 114.126 39.4237 116.15 38.9873 118.288Z"
        fill="#07336C" />
    <path
        d="M41.6589 118.288H67.8723C67.3565 116.224 66.3603 114.312 64.9651 112.706C63.5699 111.101 61.815 109.848 59.8435 109.049C57.872 108.251 55.7397 107.929 53.6204 108.111C51.5011 108.293 49.4548 108.973 47.6483 110.096C44.6637 111.945 42.5157 114.883 41.6589 118.288Z"
        fill="#073D84" />
    <path
        d="M54.7612 133C48.3996 133 43.2425 127.843 43.2425 121.482C43.2425 115.12 48.3996 109.963 54.7612 109.963C61.1228 109.963 66.2799 115.12 66.2799 121.482C66.2799 127.843 61.1228 133 54.7612 133Z"
        fill="#07336C" />
    <path
        d="M54.761 128.886C50.6714 128.886 47.3561 125.571 47.3561 121.481C47.3561 117.391 50.6714 114.076 54.761 114.076C58.8506 114.076 62.1659 117.391 62.1659 121.481C62.1659 125.571 58.8506 128.886 54.761 128.886Z"
        fill="#073D84" />
    <path
        d="M54.7604 124.692C52.9867 124.692 51.549 123.255 51.549 121.481C51.549 119.707 52.9867 118.27 54.7604 118.27C56.534 118.27 57.9718 119.707 57.9718 121.481C57.9718 123.255 56.534 124.692 54.7604 124.692Z"
        fill="#07336C" />
    <path
        d="M54.7606 116.863C54.2476 116.863 53.8317 116.447 53.8317 115.934C53.8317 115.421 54.2476 115.005 54.7606 115.005C55.2737 115.005 55.6896 115.421 55.6896 115.934C55.6896 116.447 55.2737 116.863 54.7606 116.863Z"
        fill="#07336C" />
    <path
        d="M49.0989 122.411C48.5859 122.411 48.17 121.995 48.17 121.482C48.17 120.969 48.5859 120.553 49.0989 120.553C49.6119 120.553 50.0278 120.969 50.0278 121.482C50.0278 121.995 49.6119 122.411 49.0989 122.411Z"
        fill="#07336C" />
    <path
        d="M60.4759 122.411C59.9628 122.411 59.5469 121.995 59.5469 121.482C59.5469 120.969 59.9628 120.553 60.4759 120.553C60.9889 120.553 61.4048 120.969 61.4048 121.482C61.4048 121.995 60.9889 122.411 60.4759 122.411Z"
        fill="#07336C" />
    <path
        d="M54.7606 128.152C54.2476 128.152 53.8317 127.736 53.8317 127.223C53.8317 126.71 54.2476 126.294 54.7606 126.294C55.2737 126.294 55.6896 126.71 55.6896 127.223C55.6896 127.736 55.2737 128.152 54.7606 128.152Z"
        fill="#07336C" />
    <path
        d="M58.8747 118.464C58.3616 118.464 57.9457 118.048 57.9457 117.535C57.9457 117.022 58.3616 116.606 58.8747 116.606C59.3877 116.606 59.8036 117.022 59.8036 117.535C59.8036 118.048 59.3877 118.464 58.8747 118.464Z"
        fill="#07336C" />
    <path
        d="M50.8146 118.464C50.3016 118.464 49.8857 118.048 49.8857 117.535C49.8857 117.022 50.3016 116.606 50.8146 116.606C51.3276 116.606 51.7435 117.022 51.7435 117.535C51.7435 118.048 51.3276 118.464 50.8146 118.464Z"
        fill="#07336C" />
    <path
        d="M58.8747 126.356C58.3616 126.356 57.9457 125.94 57.9457 125.427C57.9457 124.914 58.3616 124.498 58.8747 124.498C59.3877 124.498 59.8036 124.914 59.8036 125.427C59.8036 125.94 59.3877 126.356 58.8747 126.356Z"
        fill="#07336C" />
    <path
        d="M50.8146 126.356C50.3016 126.356 49.8857 125.94 49.8857 125.427C49.8857 124.914 50.3016 124.498 50.8146 124.498C51.3276 124.498 51.7435 124.914 51.7435 125.427C51.7435 125.94 51.3276 126.356 50.8146 126.356Z"
        fill="#07336C" />
    <path d="M80.7446 80.998H82.4343V108.317H80.7446V80.998Z" fill="#2246A8" />
    <defs>
        <clipPath id="clip0_4778_12652">
            <rect width="368" height="158" fill="white" />
        </clipPath>
    </defs>
</svg>