<svg width="368" height="158" viewBox="0 0 368 158" fill="none" xmlns="http://www.w3.org/2000/svg">
    <g clip-path="url(#clip0_4778_19404)">
        <rect width="368" height="158" fill="#648BDC" />
        <path
            d="M391 125.653C390.727 126.507 390.446 127.355 390.16 128.196C390.04 128.553 389.909 128.905 389.794 129.262C389.294 130.693 388.759 132.103 388.213 133.483C387.912 134.24 387.604 134.989 387.29 135.728C386.54 137.487 385.749 139.189 384.921 140.83C384.741 141.187 384.559 141.542 384.379 141.891C383.436 143.681 382.45 145.388 381.409 146.991C381.189 147.333 380.964 147.668 380.737 147.997C379.53 149.791 378.192 151.493 376.734 153.087C376.281 153.59 375.821 154.055 375.353 154.505C373.102 156.697 370.658 158.429 368.042 159.585C367.851 159.671 367.661 159.751 367.466 159.837L367.321 159.897L217.141 160L-0.168625 158.69C-0.457127 158.049 -0.743141 157.397 -1.02664 156.737C-1.25844 156.203 -1.48942 155.661 -1.71955 155.113C-1.88631 154.703 -2.0589 154.284 -2.23734 153.856C-3.63566 150.465 -4.98895 146.871 -6.26969 143.1C-9.64667 133.098 -12.3858 121.867 -13.4839 109.969C-14.6246 97.612 -13.9842 84.5382 -10.4546 71.3788C-9.35186 67.2791 -7.98828 63.2547 -6.37226 59.3306C-2.62007 50.1957 2.71556 41.1136 9.99231 32.2955C10.5101 32.2101 11.0329 32.1271 11.5607 32.0441C12.006 31.9738 12.4537 31.9059 12.904 31.8431C15.0719 31.5263 17.1507 31.1518 19.1401 30.7194V53.5138H29.0534V48.1998L40.7453 48.2476V39.6205H43.0992V37.9112H43.4093V39.6205H54.2432V37.9087H54.5533V39.6205H56.7296V56.7792H70.6478V63.0936H78.3848V59.4286H85.559V44.8692H89.136V38.0821H89.6789V44.8692H98.2564V32.1397H99.0944V44.8692H104.765V19.9029H106.456V18H106.726V19.9029H119.251V18H119.521V19.9029H121.805V33.2105H123.416H123.404V30.6666H123.416V28.907H123.404V26.3682H123.416V24.6086H123.404V22.0747H141.212L141.617 22.482V36.8102H152.718V55.8818H161.686V20.6042H163.637V18.1433H163.987V20.6118H171.071V18.1433H171.424V20.6118H181.453V18.1433H181.803V20.6118H188.114V18.1433H188.464V20.6118H191.058V53.5415H200.969V48.1998L212.661 48.2476V39.6205H215.015V37.9112H215.325V39.6205H226.154V37.9087H226.469V39.6205H228.645V56.7792H242.566V63.0936H250.3V59.4286H257.474V44.8692H261.052V38.0821H261.592V44.8692H270.169V32.1397H271.01V44.8692H276.683V19.9029H278.374V18H278.644V19.9029H291.167V18H291.439V19.9029H293.726V33.2105H295.334H295.319V30.6666H295.334V28.907H295.319V26.3682H295.334V24.6086H295.319V22.0747H313.129L313.535 22.2784V36.8001H332.168V55.8717H341.138V20.6042H343.09V18.1433H343.44V20.6118H350.521V18.1433H350.872V20.6118L376.924 19.9029C377.027 21.8661 377.074 23.7338 377.082 25.4808C377.082 26.5291 377.082 27.5345 377.057 28.4973C377.014 30.6088 376.917 32.4891 376.807 34.0778C376.717 35.3346 376.617 36.4004 376.527 37.2651C376.354 38.9041 376.206 39.8115 376.206 39.8115C376.206 39.8115 375.806 41.1916 375.338 42.8456C375.028 43.9416 374.691 45.1582 374.418 46.1738C374.263 46.7494 374.13 47.2647 374.035 47.6543C373.702 49.057 373.401 50.4236 373.135 51.7542C372.93 52.7798 372.749 53.7853 372.592 54.7707C372.502 55.3111 372.422 55.8466 372.342 56.3769C372.234 57.1311 372.142 57.85 372.064 58.5714C371.996 59.1731 376.784 56.7775 376.734 57.3623C376.357 61.3524 369.518 69.0693 370 73.0479C371.814 87.2555 363.501 95.9479 371.881 104.105C374.438 106.591 377.059 109.024 379.601 111.553C379.911 111.86 380.224 112.171 380.531 112.483C381.062 113.019 381.587 113.562 382.107 114.112L382.317 114.336C384.403 116.515 386.344 118.828 388.131 121.261C388.536 121.812 388.926 122.375 389.309 122.948C389.759 123.618 390.195 124.306 390.617 125.012C390.745 125.228 390.872 125.434 391 125.653Z"
            fill="#3B61CB" />
        <path d="M191.061 20.6017H168.655V26.1822H191.061V20.6017Z" fill="#3B61CB" />
        <path d="M191.061 29.1911H168.655V34.7715H191.061V29.1911Z" fill="#3B61CB" />
        <path d="M191.061 37.9615H168.655V43.5419H191.061V37.9615Z" fill="#3B61CB" />
        <path d="M191.061 46.8701H168.655V52.4505H191.061V46.8701Z" fill="#3B61CB" />
        <path d="M191.061 55.4645H168.655V61.0449H191.061V55.4645Z" fill="#3B61CB" />
        <path d="M287.169 19.9029H276.716V23.2914H287.169V19.9029Z" fill="#3B61CB" />
        <path d="M287.169 25.1189H276.716V28.5074H287.169V25.1189Z" fill="#3B61CB" />
        <path d="M287.169 30.4454H276.716V33.8339H287.169V30.4454Z" fill="#3B61CB" />
        <path d="M287.169 35.855H276.716V39.2434H287.169V35.855Z" fill="#3B61CB" />
        <path d="M287.169 41.0759H276.716V44.4644H287.169V41.0759Z" fill="#3B61CB" />
        <path d="M287.169 46.8198H276.716V50.2083H287.169V46.8198Z" fill="#3B61CB" />
        <path d="M287.169 52.0383H276.716V55.4268H287.169V52.0383Z" fill="#3B61CB" />
        <path d="M287.169 57.3623H276.716V60.7508H287.169V57.3623Z" fill="#3B61CB" />
        <path d="M287.169 62.7744H276.716V66.1629H287.169V62.7744Z" fill="#3B61CB" />
        <path d="M287.169 67.9928H276.716V71.3813H287.169V67.9928Z" fill="#3B61CB" />
        <path d="M306.516 22.125H295.312V25.5135H306.516V22.125Z" fill="#3B61CB" />
        <path d="M306.516 27.341H295.312V30.7295H306.516V27.341Z" fill="#3B61CB" />
        <path d="M306.516 32.6676H295.312V36.0561H306.516V32.6676Z" fill="#3B61CB" />
        <path d="M306.516 38.0771H295.312V41.4656H306.516V38.0771Z" fill="#3B61CB" />
        <path d="M306.516 43.2981H295.312V46.6866H306.516V43.2981Z" fill="#3B61CB" />
        <path d="M306.516 48.7403H295.312V52.1288H306.516V48.7403Z" fill="#3B61CB" />
        <path d="M306.516 53.9562H295.312V57.3447H306.516V53.9562Z" fill="#3B61CB" />
        <path d="M306.516 59.2828H295.312V62.6713H306.516V59.2828Z" fill="#3B61CB" />
        <path d="M306.516 64.6923H295.312V68.0808H306.516V64.6923Z" fill="#3B61CB" />
        <path d="M306.516 69.9133H295.312V73.3018H306.516V69.9133Z" fill="#3B61CB" />
        <path d="M306.516 75.901H295.312V79.2895H306.516V75.901Z" fill="#3B61CB" />
        <path d="M306.516 81.117H295.312V84.5055H306.516V81.117Z" fill="#3B61CB" />
        <path d="M306.516 86.4436H295.312V89.832H306.516V86.4436Z" fill="#3B61CB" />
        <path d="M306.516 91.8531H295.312V95.2416H306.516V91.8531Z" fill="#3B61CB" />
        <path d="M306.516 97.0741H295.312V100.463H306.516V97.0741Z" fill="#3B61CB" />
        <path
            d="M377.044 28.4948C377.002 30.6063 376.904 32.4866 376.794 34.0752L350.099 34.7841V29.2036L377.044 28.4948Z"
            fill="#3B61CB" />
        <path
            d="M376.522 37.2526C376.349 38.8915 376.201 39.799 376.201 39.799C376.201 39.799 375.801 41.179 375.333 42.833L350.106 43.5419V37.9615L376.522 37.2526Z"
            fill="#3B61CB" />
        <path
            d="M374.413 46.1612C374.258 46.7368 374.125 47.2521 374.03 47.6418C373.697 49.0444 373.396 50.4111 373.13 51.7416L350.106 52.4505V46.8701L374.413 46.1612Z"
            fill="#3B61CB" />
        <path d="M115.869 19.9029H104.665V23.2914H115.869V19.9029Z" fill="#3B61CB" />
        <path d="M115.869 25.1189H104.665V28.5074H115.869V25.1189Z" fill="#3B61CB" />
        <path d="M115.869 30.4454H104.665V33.8339H115.869V30.4454Z" fill="#3B61CB" />
        <path d="M115.869 35.855H104.665V39.2434H115.869V35.855Z" fill="#3B61CB" />
        <path d="M115.869 41.0759H104.665V44.4644H115.869V41.0759Z" fill="#3B61CB" />
        <path d="M115.869 46.8198H104.665V50.2083H115.869V46.8198Z" fill="#3B61CB" />
        <path d="M115.869 52.0383H104.665V55.4268H115.869V52.0383Z" fill="#3B61CB" />
        <path d="M115.869 57.3623H104.665V60.7508H115.869V57.3623Z" fill="#3B61CB" />
        <path d="M115.869 62.7744H104.665V66.1629H115.869V62.7744Z" fill="#3B61CB" />
        <path d="M115.869 67.9928H104.665V71.3813H115.869V67.9928Z" fill="#3B61CB" />
        <path d="M136.369 22.125H123.636V25.5135H136.369V22.125Z" fill="#3B61CB" />
        <path d="M136.369 27.341H123.636V30.7295H136.369V27.341Z" fill="#3B61CB" />
        <path d="M136.369 32.6676H123.636V36.0561H136.369V32.6676Z" fill="#3B61CB" />
        <path d="M136.369 38.0771H123.636V41.4656H136.369V38.0771Z" fill="#3B61CB" />
        <path d="M136.369 43.2981H123.636V46.6866H136.369V43.2981Z" fill="#3B61CB" />
        <path d="M136.369 48.7403H123.636V52.1288H136.369V48.7403Z" fill="#3B61CB" />
        <path d="M136.369 53.9562H123.636V57.3447H136.369V53.9562Z" fill="#3B61CB" />
        <path d="M136.369 59.2828H123.636V62.6713H136.369V59.2828Z" fill="#3B61CB" />
        <path d="M136.369 64.6923H123.636V68.0808H136.369V64.6923Z" fill="#3B61CB" />
        <path d="M136.369 69.9133H123.636V73.3018H136.369V69.9133Z" fill="#3B61CB" />
        <path d="M136.369 75.901H123.636V79.2895H136.369V75.901Z" fill="#3B61CB" />
        <path d="M136.369 81.117H123.636V84.5055H136.369V81.117Z" fill="#3B61CB" />
        <path d="M136.369 86.4436H123.636V89.832H136.369V86.4436Z" fill="#3B61CB" />
        <path d="M136.369 91.8531H123.636V95.2416H136.369V91.8531Z" fill="#3B61CB" />
        <path d="M136.369 97.0741H123.636V100.463H136.369V97.0741Z" fill="#3B61CB" />
        <path
            d="M398.424 123.133C398.054 129.25 396.9 136.14 394.768 143.981C393.674 148.008 391.284 151.563 387.969 154.097C384.654 156.63 380.596 158.002 376.424 158L199.215 157.917H196.871H180.154H178.007H162.052H159.324H137.093H133.174H115.044H110.115L78.8665 157.901H73.4087H47.9049H44.1464L3.74561 157.882C-1.07248 157.881 -5.80322 156.595 -9.95976 154.158C-14.1163 151.721 -17.5485 148.22 -19.9032 144.016C-23.6691 137.274 -27.0404 130.319 -30 123.187L398.424 123.133Z"
            fill="#3E65CE" />
        <path d="M169.601 139.965L147.021 139.576L150.095 137.492L172.675 137.882L169.601 139.965Z" fill="#6B91DE" />
        <path d="M389.601 139.965L367.021 139.576L370.094 137.492L392.675 137.882L389.601 139.965Z" fill="#6B91DE" />
        <path
            d="M171.639 78.4688V142.904H137.864V113.341L134.113 111.667L133.767 111.513L130.305 109.975L129.766 109.744L125.958 108.051L123.092 106.763L121.322 105.974H109.57V78.4688H171.639Z"
            fill="#567DD6" />
        <path
            d="M119.937 113.341H116.552L114.936 112.514L109.57 109.764L106.781 108.34L105.165 107.513V105.975L109.57 108.167L114.936 110.86L116.264 111.514L117.321 112.033L118.745 112.745L119.283 113.014L119.937 113.341Z"
            fill="#2246A8" />
        <path d="M116.552 113.341H106.781V108.34L109.57 109.763L114.936 112.514L116.552 113.341Z" fill="#07336C" />
        <path
            d="M123.092 89.2967V106.762L121.322 105.973H114.936V89.2967C114.936 87.1233 116.629 85.3537 118.745 85.2383C118.841 85.2383 118.918 85.2383 119.014 85.2383C119.11 85.2383 119.187 85.2383 119.283 85.2383C120.303 85.296 121.226 85.7384 121.899 86.4308C122.63 87.1617 123.092 88.1811 123.092 89.2967Z"
            fill="#07336C" />
        <path
            d="M119.283 85.239V105.993H118.764V85.239C118.86 85.239 118.937 85.239 119.033 85.239C119.091 85.2198 119.187 85.2198 119.283 85.239Z"
            fill="#567DD6" />
        <path d="M123.092 92.7988H114.936V93.3182H123.092V92.7988Z" fill="#567DD6" />
        <path d="M123.092 97.4727H114.936V97.992H123.092V97.4727Z" fill="#567DD6" />
        <path d="M123.092 102.166H114.936V102.685H123.092V102.166Z" fill="#567DD6" />
        <path
            d="M134.113 89.297V111.667L133.767 111.513L130.304 109.974L129.785 109.743L125.977 108.051V89.3163C125.977 87.1428 127.669 85.3732 129.785 85.2578C129.881 85.2578 129.958 85.2578 130.054 85.2578C130.151 85.2578 130.227 85.2578 130.324 85.2578C131.343 85.3155 132.266 85.7579 132.94 86.4503C133.651 87.162 134.113 88.1814 134.113 89.297Z"
            fill="#07336C" />
        <path
            d="M130.305 85.239V109.974L129.785 109.744V85.239C129.881 85.239 129.958 85.239 130.055 85.239C130.132 85.2198 130.208 85.2198 130.305 85.239Z"
            fill="#567DD6" />
        <path d="M134.113 92.7988H125.958V93.3182H134.113V92.7988Z" fill="#567DD6" />
        <path d="M134.113 97.4727H125.958V97.992H134.113V97.4727Z" fill="#567DD6" />
        <path d="M134.113 102.166H125.958V102.685H134.113V102.166Z" fill="#567DD6" />
        <path d="M134.113 106.84H125.958V107.359H134.113V106.84Z" fill="#567DD6" />
        <path
            d="M145.134 89.2967V115.417H136.979V89.2967C136.979 87.1233 138.671 85.3537 140.787 85.2383C140.883 85.2383 140.96 85.2383 141.057 85.2383C141.153 85.2383 141.23 85.2383 141.326 85.2383C142.345 85.296 143.269 85.7384 143.942 86.4308C144.692 87.1617 145.134 88.1811 145.134 89.2967Z"
            fill="#07336C" />
        <path
            d="M141.326 85.239V115.437H140.807V85.239C140.903 85.239 140.98 85.239 141.076 85.239C141.153 85.2198 141.249 85.2198 141.326 85.239Z"
            fill="#567DD6" />
        <path d="M145.134 92.7988H136.979V93.3182H145.134V92.7988Z" fill="#567DD6" />
        <path d="M145.134 97.4727H136.979V97.992H145.134V97.4727Z" fill="#567DD6" />
        <path d="M145.134 102.166H136.979V102.685H145.134V102.166Z" fill="#567DD6" />
        <path d="M145.134 106.84H136.979V107.359H145.134V106.84Z" fill="#567DD6" />
        <path d="M145.134 111.514H136.979V112.033H145.134V111.514Z" fill="#567DD6" />
        <path
            d="M156.155 89.2967V115.417H148V89.2967C148 87.1233 149.693 85.3537 151.808 85.2383C151.905 85.2383 151.982 85.2383 152.078 85.2383C152.174 85.2383 152.251 85.2383 152.347 85.2383C153.366 85.296 154.29 85.7384 154.963 86.4308C155.713 87.1617 156.155 88.1811 156.155 89.2967Z"
            fill="#07336C" />
        <path
            d="M152.347 85.239V115.437H151.828V85.239C151.924 85.239 152.001 85.239 152.097 85.239C152.174 85.2198 152.27 85.2198 152.347 85.239Z"
            fill="#567DD6" />
        <path d="M156.175 92.7988H148.019V93.3182H156.175V92.7988Z" fill="#567DD6" />
        <path d="M156.175 97.4727H148.019V97.992H156.175V97.4727Z" fill="#567DD6" />
        <path d="M156.175 102.166H148.019V102.685H156.175V102.166Z" fill="#567DD6" />
        <path d="M156.175 106.84H148.019V107.359H156.175V106.84Z" fill="#567DD6" />
        <path d="M156.175 111.514H148.019V112.033H156.175V111.514Z" fill="#567DD6" />
        <path
            d="M167.196 89.2967V115.417H159.041V89.2967C159.041 87.1233 160.733 85.3537 162.849 85.2383C162.945 85.2383 163.022 85.2383 163.118 85.2383C163.214 85.2383 163.291 85.2383 163.388 85.2383C164.407 85.296 165.33 85.7384 166.003 86.4308C166.734 87.1617 167.196 88.1811 167.196 89.2967Z"
            fill="#07336C" />
        <path
            d="M163.368 85.239V115.437H162.849V85.239C162.945 85.239 163.022 85.239 163.118 85.239C163.195 85.2198 163.292 85.2198 163.368 85.239Z"
            fill="#567DD6" />
        <path d="M167.196 92.7988H159.041V93.3182H167.196V92.7988Z" fill="#567DD6" />
        <path d="M167.196 97.4727H159.041V97.992H167.196V97.4727Z" fill="#567DD6" />
        <path d="M167.196 102.166H159.041V102.685H167.196V102.166Z" fill="#567DD6" />
        <path d="M167.196 106.84H159.041V107.359H167.196V106.84Z" fill="#567DD6" />
        <path d="M167.196 111.514H159.041V112.033H167.196V111.514Z" fill="#567DD6" />
        <path d="M228.15 142.808H171.639V78.4688H224.072V84.6622H203.972V142.731H228.15V142.808Z" fill="#4F77D3" />
        <path d="M177.486 67.6211H102.434V78.4693H177.486V67.6211Z" fill="#2246A8" />
        <path d="M228.612 67.6211H177.467V78.4693H228.612V67.6211Z" fill="#2246A8" />
        <path d="M242.614 137.672V142.731H203.972V84.6621H238.729V137.672H242.614Z" fill="#567DD6" />
        <path
            d="M158.406 135.018H156.444V110.513C156.444 108.532 158.041 106.936 160.022 106.936H175.813C177.794 106.936 179.391 108.532 179.391 110.513V114.591H177.41V110.513C177.41 109.628 176.679 108.897 175.794 108.897H160.003C159.118 108.897 158.387 109.628 158.387 110.513V135.018H158.406Z"
            fill="#7096E0" />
        <path
            d="M170.216 123.343H168.254V106.763C168.254 104.782 169.85 103.186 171.832 103.186H196.528C198.51 103.186 200.106 104.782 200.106 106.763V114.457H198.144V106.763C198.144 105.878 197.413 105.147 196.528 105.147H171.832C170.947 105.147 170.216 105.878 170.216 106.763V123.343Z"
            fill="#7096E0" />
        <path
            d="M220.533 112.052V114.591H218.571V112.052C218.571 111.167 217.84 110.437 216.956 110.437H192.547C191.662 110.437 190.931 111.167 190.931 112.052V121.131H188.95V112.052C188.95 110.071 190.547 108.475 192.528 108.475H216.936C218.917 108.475 220.533 110.071 220.533 112.052Z"
            fill="#7096E0" />
        <path
            d="M205.741 130.998H233.324C232.477 137.365 226.63 142.308 219.533 142.308C212.435 142.308 206.588 137.365 205.741 130.998Z"
            fill="#7096E0" />
        <path
            d="M233.343 127.843H205.761C206.319 123.573 209.146 119.957 213.07 118.033V118.091H226.034V118.033C229.958 119.957 232.766 123.573 233.343 127.843Z"
            fill="#7096E0" />
        <path
            d="M234.459 128.575V130.267C234.459 130.671 234.132 130.998 233.728 130.998H205.338C204.934 130.998 204.607 130.671 204.607 130.267V128.575C204.607 128.171 204.934 127.844 205.338 127.844H233.728C234.132 127.844 234.459 128.171 234.459 128.575Z"
            fill="#07336C" />
        <path d="M226.015 115.494H213.051V118.091H226.015V115.494Z" fill="#2246A8" />
        <path d="M226.784 114.014H212.3V115.495H226.784V114.014Z" fill="#07336C" />
        <path d="M230.689 142.866H208.55V137.48H230.689V142.866ZM208.8 142.597H230.419V137.731H208.8V142.597Z"
            fill="#07336C" />
        <path
            d="M214.012 142.923L208.569 137.691L208.761 137.518L214.012 142.539L219.109 137.441L223.937 142.558L230.477 137.499L230.631 137.711L223.918 142.904L219.109 137.826L214.012 142.923Z"
            fill="#07336C" />
        <path
            d="M219.321 143L213.916 137.787L208.761 142.827L208.569 142.634L213.916 137.422L219.321 142.634L224.976 137.422L230.631 142.634L230.458 142.827L224.976 137.787L219.321 143Z"
            fill="#07336C" />
        <path d="M230.535 140.037H208.569V140.306H230.535V140.037Z" fill="#07336C" />
        <path
            d="M185.276 130.998H212.858C212.012 137.365 206.165 142.308 199.067 142.308C191.97 142.308 186.103 137.365 185.276 130.998Z"
            fill="#567DD6" />
        <path
            d="M212.858 127.843H185.276C185.834 123.573 188.661 119.957 192.585 118.033V118.091H205.549V118.033C209.473 119.957 212.3 123.573 212.858 127.843Z"
            fill="#567DD6" />
        <path
            d="M213.974 128.575V130.267C213.974 130.671 213.647 130.998 213.243 130.998H184.853C184.449 130.998 184.122 130.671 184.122 130.267V128.575C184.122 128.171 184.449 127.844 184.853 127.844H213.243C213.647 127.844 213.974 128.171 213.974 128.575Z"
            fill="#7096E0" />
        <path d="M205.549 115.494H192.585V118.091H205.549V115.494Z" fill="#2246A8" />
        <path d="M206.299 114.014H191.815V115.495H206.299V114.014Z" fill="#07336C" />
        <path d="M210.204 142.866H188.065V137.48H210.204V142.866ZM188.315 142.597H209.934V137.731H188.315V142.597Z"
            fill="#07336C" />
        <path
            d="M193.528 142.923L188.103 137.691L188.277 137.518L193.528 142.539L198.625 137.441L203.472 142.558L209.992 137.499L210.146 137.711L203.433 142.904L198.625 137.826L193.528 142.923Z"
            fill="#07336C" />
        <path
            d="M198.836 143L193.451 137.787L188.277 142.827L188.103 142.634L193.451 137.422L198.855 142.634L204.491 137.422L210.165 142.634L209.992 142.827L204.491 137.787L198.836 143Z"
            fill="#07336C" />
        <path d="M210.069 140.037H188.103V140.306H210.069V140.037Z" fill="#07336C" />
        <path
            d="M164.523 130.998H192.105C191.259 137.365 185.412 142.308 178.314 142.308C171.217 142.308 165.35 137.365 164.523 130.998Z"
            fill="#7096E0" />
        <path
            d="M192.105 127.843H164.523C165.081 123.573 167.908 119.957 171.832 118.033V118.091H184.796V118.033C188.72 119.957 191.547 123.573 192.105 127.843Z"
            fill="#7096E0" />
        <path
            d="M193.221 128.575V130.267C193.221 130.671 192.894 130.998 192.49 130.998H164.1C163.696 130.998 163.369 130.671 163.369 130.267V128.575C163.369 128.171 163.696 127.844 164.1 127.844H192.49C192.894 127.844 193.221 128.171 193.221 128.575Z"
            fill="#567DD6" />
        <path d="M184.796 115.494H171.832V118.091H184.796V115.494Z" fill="#2246A8" />
        <path d="M185.546 114.014H171.062V115.495H185.546V114.014Z" fill="#07336C" />
        <path d="M189.451 142.866H167.312V137.48H189.451V142.866ZM167.562 142.597H189.181V137.731H167.562V142.597Z"
            fill="#07336C" />
        <path
            d="M172.774 142.923L167.35 137.691L167.523 137.518L172.774 142.539L177.872 137.441L182.719 142.558L189.239 137.499L189.393 137.711L182.68 142.904L177.872 137.826L172.774 142.923Z"
            fill="#07336C" />
        <path
            d="M178.083 143L172.698 137.787L167.523 142.827L167.35 142.634L172.698 137.422L178.102 142.634L183.738 137.422L189.412 142.634L189.239 142.827L183.738 137.787L178.083 143Z"
            fill="#07336C" />
        <path d="M189.316 140.037H167.35V140.306H189.316V140.037Z" fill="#07336C" />
        <path d="M161.233 106.627H160.464V109.224H161.233V106.627Z" fill="#7096E0" />
        <path d="M164.041 106.627H163.272V109.224H164.041V106.627Z" fill="#7096E0" />
        <path
            d="M185.796 103.031V105.32C185.796 105.513 185.642 105.686 185.43 105.686H182.295C182.103 105.686 181.93 105.532 181.93 105.32V103.031C181.93 102.839 182.083 102.666 182.295 102.666H185.43C185.623 102.666 185.796 102.82 185.796 103.031Z"
            fill="#7096E0" />
        <path d="M184.661 102.416H182.911V105.878H184.661V102.416Z" fill="#7096E0" />
        <path d="M184.065 101.588H183.449V103.357H184.065V101.588Z" fill="#7096E0" />
        <path
            d="M185.719 101.627C185.719 101.724 185.68 101.801 185.623 101.878C185.565 101.935 185.469 101.974 185.373 101.974H182.161C181.968 101.974 181.814 101.82 181.814 101.627C181.814 101.531 181.853 101.454 181.911 101.377C181.968 101.32 182.064 101.281 182.161 101.281H185.373C185.565 101.281 185.719 101.435 185.719 101.627Z"
            fill="#7096E0" />
        <path d="M279.313 137.672H242.614V142.731H279.313V137.672Z" fill="#07336C" />
        <path d="M232.228 92.2207H208.608V99.8568H232.228V92.2207Z" fill="#07336C" />
        <path d="M218.475 95.4141H214.205V97.6837H218.475V95.4141Z" fill="#567DD6" />
        <path d="M229.554 95.4141H225.284V97.6837H229.554V95.4141Z" fill="#567DD6" />
        <path
            d="M228.342 96.6637C228.342 96.8753 228.169 97.0484 227.958 97.0484H224.149C223.014 97.0484 222.072 97.9716 222.072 99.1257V113.994H221.283V99.1065C221.283 97.5292 222.553 96.2598 224.13 96.2598H227.938C228.169 96.279 228.342 96.4521 228.342 96.6637Z"
            fill="#7096E0" />
        <path
            d="M216.975 96.6637C216.975 96.8753 216.802 97.0484 216.59 97.0484H213.705C212.57 97.0484 211.628 97.9716 211.628 99.1257V108.454H210.839V99.1065C210.839 97.5292 212.108 96.2598 213.686 96.2598H216.571C216.802 96.279 216.975 96.4521 216.975 96.6637Z"
            fill="#7096E0" />
        <path d="M119.937 113.34V133.209L115.59 128.862H94.6439V113.34H119.937Z" fill="#7096E0" />
        <path d="M119.937 134.941V142.904H94.6439V130.133H115.186L119.937 134.941Z" fill="#7096E0" />
        <path d="M137.864 113.34H119.937V142.903H137.864V113.34Z" fill="#2246A8" />
        <path
            d="M137.864 113.341H119.937L119.283 113.014L118.745 112.745L117.321 112.033L116.264 111.514L114.936 110.86L109.57 108.167L105.165 105.975H121.322L123.092 106.763L125.958 108.052L129.766 109.745L130.305 109.975L133.767 111.514L134.113 111.668L137.864 113.341Z"
            fill="#07336C" />
        <path
            d="M109.57 91.6055V93.4904H104.761C103.934 93.4904 103.28 94.1444 103.28 94.9715V113.34H101.299V94.5483C101.299 92.9326 102.607 91.6055 104.242 91.6055H109.57Z"
            fill="#07336C" />
        <path d="M88.7197 130.112H88.5273V121.072H89.0851V121.265H88.7197V130.112Z" fill="#07336C" />
        <path d="M88.7197 121.168H88.5273V116.629H94.6824V116.821H88.7197V121.168Z" fill="#07336C" />
        <path
            d="M146.442 137.404H127.631L116.071 125.651H94.6439V125.459H116.148L116.186 125.497L127.708 137.192H146.442V137.404Z"
            fill="#07336C" />
        <path d="M89.1814 121.169H88.989V117.053H89.9892V117.264H89.1814V121.169Z" fill="#07336C" />
        <path
            d="M146.384 140.308V141.673H126.612L122.053 137.076L121.899 136.922L120.745 135.749L120.38 135.403L119.937 134.941L119.264 134.268L118.879 133.864L117.764 132.749L117.379 132.345L116.263 131.229L115.879 130.825L115.186 130.133H88.6235V128.863H115.59L115.879 129.152L120.38 133.672L120.783 134.057L121.899 135.172L122.284 135.557L123.399 136.692L123.784 137.076L124.9 138.192L125.284 138.577L126.419 139.692L127.035 140.308H146.384Z"
            fill="#07336C" />
        <path
            d="M146.442 137.961H127.535L115.821 126.286H88.6235V126.074H115.917L115.936 126.113L127.631 137.75H146.442V137.961Z"
            fill="#07336C" />
        <path d="M94.6439 121.168H89.0852V125.553H94.6439V121.168Z" fill="#07336C" />
        <path d="M90.4508 121.265H89.8738V117.053H90.4508V121.265ZM90.0854 121.073H90.2585V117.264H90.0854V121.073Z"
            fill="#07336C" />
        <path d="M92.1051 121.265H91.5281V117.053H92.1051V121.265ZM91.7397 121.073H91.9128V117.264H91.7397V121.073Z"
            fill="#07336C" />
        <path d="M93.7589 121.265H93.1819V117.053H93.7589V121.265ZM93.3742 121.073H93.5473V117.264H93.3742V121.073Z"
            fill="#07336C" />
        <path d="M90.0277 126.17H89.8353V128.863H90.0277V126.17Z" fill="#07336C" />
        <path d="M90.4508 126.17H90.2584V128.863H90.4508V126.17Z" fill="#07336C" />
        <path d="M91.7588 126.17H91.5664V128.863H91.7588V126.17Z" fill="#07336C" />
        <path d="M92.1817 126.17H91.9894V128.863H92.1817V126.17Z" fill="#07336C" />
        <path d="M93.4898 126.17H93.2975V128.863H93.4898V126.17Z" fill="#07336C" />
        <path d="M93.8938 126.17H93.7014V128.863H93.8938V126.17Z" fill="#07336C" />
        <path d="M95.2208 126.17H95.0284V128.863H95.2208V126.17Z" fill="#07336C" />
        <path d="M95.6247 126.17H95.4324V128.863H95.6247V126.17Z" fill="#07336C" />
        <path d="M96.9519 126.17H96.7595V128.863H96.9519V126.17Z" fill="#07336C" />
        <path d="M97.3558 126.17H97.1635V128.863H97.3558V126.17Z" fill="#07336C" />
        <path d="M98.6832 126.17H98.4908V128.863H98.6832V126.17Z" fill="#07336C" />
        <path d="M99.0872 126.17H98.8949V128.863H99.0872V126.17Z" fill="#07336C" />
        <path d="M100.395 126.17H100.203V128.863H100.395V126.17Z" fill="#07336C" />
        <path d="M100.818 126.17H100.626V128.863H100.818V126.17Z" fill="#07336C" />
        <path d="M102.126 126.17H101.934V128.863H102.126V126.17Z" fill="#07336C" />
        <path d="M102.549 126.17H102.357V128.863H102.549V126.17Z" fill="#07336C" />
        <path d="M103.857 126.17H103.665V128.863H103.857V126.17Z" fill="#07336C" />
        <path d="M104.28 126.17H104.088V128.863H104.28V126.17Z" fill="#07336C" />
        <path d="M105.588 126.17H105.396V128.863H105.588V126.17Z" fill="#07336C" />
        <path d="M106.011 126.17H105.819V128.863H106.011V126.17Z" fill="#07336C" />
        <path d="M107.319 126.17H107.127V128.863H107.319V126.17Z" fill="#07336C" />
        <path d="M107.743 126.17H107.55V128.863H107.743V126.17Z" fill="#07336C" />
        <path d="M109.05 126.17H108.858V128.863H109.05V126.17Z" fill="#07336C" />
        <path d="M109.474 126.17H109.281V128.863H109.474V126.17Z" fill="#07336C" />
        <path d="M110.781 126.17H110.589V128.863H110.781V126.17Z" fill="#07336C" />
        <path d="M111.205 126.17H111.012V128.863H111.205V126.17Z" fill="#07336C" />
        <path d="M112.513 126.17H112.32V128.863H112.513V126.17Z" fill="#07336C" />
        <path d="M112.936 126.17H112.743V128.863H112.936V126.17Z" fill="#07336C" />
        <path d="M114.244 126.17H114.052V128.863H114.244V126.17Z" fill="#07336C" />
        <path d="M114.648 126.17H114.455V128.863H114.648V126.17Z" fill="#07336C" />
        <path d="M115.975 126.189H115.782V129.152H115.975V126.189Z" fill="#07336C" />
        <path d="M116.359 126.574H116.167V129.536H116.359V126.574Z" fill="#07336C" />
        <path
            d="M117.86 131.287L117.283 130.71V127.459L117.86 128.036V131.287ZM117.475 130.613L117.668 130.806V128.113L117.475 127.921V130.613Z"
            fill="#07336C" />
        <path
            d="M119.379 132.787L118.802 132.21V128.959L119.379 129.536V132.787ZM118.975 132.133L119.168 132.325V129.632L118.975 129.44V132.133Z"
            fill="#07336C" />
        <path
            d="M120.88 134.306L120.302 133.729V130.459L120.88 131.036V134.306ZM120.495 133.633L120.687 133.825V131.113L120.495 130.921V133.633Z"
            fill="#07336C" />
        <path
            d="M122.38 135.806L121.803 135.229V131.959L122.38 132.536V135.806ZM121.995 135.133L122.188 135.325V132.613L121.995 132.421V135.133Z"
            fill="#07336C" />
        <path
            d="M123.88 137.306L123.303 136.729V133.459L123.88 134.036V137.306ZM123.496 136.633L123.688 136.825V134.113L123.496 133.921V136.633Z"
            fill="#07336C" />
        <path
            d="M125.4 138.808L124.823 138.23V134.941L125.4 135.518V138.808ZM125.015 138.154L125.207 138.346V135.615L125.015 135.422V138.154Z"
            fill="#07336C" />
        <path
            d="M126.9 140.327L126.323 139.75V136.461L126.9 137.038V140.327ZM126.515 139.654L126.708 139.846V137.115L126.515 136.923V139.654Z"
            fill="#07336C" />
        <path d="M128.4 140.402H127.823V137.748H128.4V140.402ZM128.016 140.21H128.208V137.96H128.016V140.21Z"
            fill="#07336C" />
        <path d="M129.901 140.402H129.324V137.748H129.901V140.402ZM129.516 140.21H129.708V137.96H129.516V140.21Z"
            fill="#07336C" />
        <path d="M132.209 140.402H131.631V137.748H132.209V140.402ZM131.824 140.21H132.016V137.96H131.824V140.21Z"
            fill="#07336C" />
        <path d="M134.132 140.402H133.555V137.748H134.132V140.402ZM133.748 140.21H133.94V137.96H133.748V140.21Z"
            fill="#07336C" />
        <path d="M136.056 140.402H135.479V137.748H136.056V140.402ZM135.652 140.21H135.844V137.96H135.652V140.21Z"
            fill="#07336C" />
        <path d="M137.96 140.402H137.383V137.748H137.96V140.402ZM137.575 140.21H137.768V137.96H137.575V140.21Z"
            fill="#07336C" />
        <path d="M139.864 140.402H139.287V137.748H139.864V140.402ZM139.479 140.21H139.672V137.96H139.479V140.21Z"
            fill="#07336C" />
        <path d="M141.787 140.402H141.21V137.748H141.787V140.402ZM141.403 140.21H141.595V137.96H141.403V140.21Z"
            fill="#07336C" />
        <path d="M143.692 140.402H143.115V137.748H143.692V140.402ZM143.307 140.21H143.499V137.96H143.307V140.21Z"
            fill="#07336C" />
        <path d="M145.596 140.402H145.019V137.748H145.596V140.402ZM145.211 140.21H145.403V137.96H145.211V140.21Z"
            fill="#07336C" />
        <path d="M133.42 47.6934H117.013V52.7905H133.42V47.6934Z" fill="#153D8A" />
        <path d="M130.785 52.791H119.63V54.2721H130.785V52.791Z" fill="#07336C" />
        <path d="M171.639 58.541H109.57V67.6197H171.639V58.541Z" fill="#07336C" />
        <path d="M128.746 54.2715H121.707V58.5415H128.746V54.2715Z" fill="#4F77D3" />
        <path d="M162.714 47.6934H146.307V52.7905H162.714V47.6934Z" fill="#153D8A" />
        <path d="M160.079 52.791H148.923V54.2721H160.079V52.791Z" fill="#07336C" />
        <path d="M158.021 54.2715H150.981V58.5415H158.021V54.2715Z" fill="#4F77D3" />
        <path d="M191.989 47.6934H175.582V52.7905H191.989V47.6934Z" fill="#153D8A" />
        <path d="M189.354 52.791H178.198V54.2721H189.354V52.791Z" fill="#07336C" />
        <path d="M187.296 54.2715H180.256V58.5415H187.296V54.2715Z" fill="#4F77D3" />
        <path d="M221.264 47.6934H204.857V52.7905H221.264V47.6934Z" fill="#153D8A" />
        <path d="M218.629 52.791H207.473V54.2721H218.629V52.791Z" fill="#07336C" />
        <path d="M224.072 58.541H171.639V67.6197H224.072V58.541Z" fill="#07336C" />
        <path d="M216.571 54.2715H209.531V58.5415H216.571V54.2715Z" fill="#4F77D3" />
        <path
            d="M265.6 78.7383V97.5495C265.6 99.6461 263.888 101.358 261.791 101.358H260.156L259.118 98.7421H261.791C262.445 98.7421 262.984 98.2035 262.984 97.5495V78.7383H265.6Z"
            fill="#7096E0" />
        <path
            d="M274.313 85.0469V118.303C274.313 120.4 272.601 122.112 270.504 122.112H268.369L267.331 119.496H270.504C271.158 119.496 271.697 118.957 271.697 118.303V85.0469H274.313Z"
            fill="#567DD6" />
        <path d="M274.64 94.2207V95.6056H257.867L257.329 94.2207H274.64Z" fill="#567DD6" />
        <path
            d="M274.524 137.672H238.729V84.6621H253.54L257.329 94.2216L257.867 95.6065L259.118 98.7417L260.156 101.358L263.099 108.821L263.715 110.359L267.331 119.496L268.369 122.112L274.524 137.672Z"
            fill="#07336C" />
        <path d="M274.851 108.82V110.359H263.714L263.099 108.82H274.851Z" fill="#567DD6" />
        <path d="M266.061 78.2949H262.541V79.2951H266.061V78.2949Z" fill="#7096E0" />
        <path d="M266.061 80.8926H262.541V81.8928H266.061V80.8926Z" fill="#7096E0" />
        <path d="M274.717 84.5078H271.197V85.508H274.717V84.5078Z" fill="#7096E0" />
        <path d="M274.717 87.1055H271.197V88.1057H274.717V87.1055Z" fill="#7096E0" />
        <path d="M178.41 134.613H146.385V142.903H178.41V134.613Z" fill="#07336C" />
        <path d="M151.443 133.709H147.057V134.594H151.443V133.709Z" fill="#07336C" />
    </g>
    <defs>
        <clipPath id="clip0_4778_19404">
            <rect width="368" height="158" fill="white" />
        </clipPath>
    </defs>
</svg>