<svg width="148" height="148" viewBox="0 0 148 148" fill="none" xmlns="http://www.w3.org/2000/svg">
    <g filter="url(#filter0_d_1883_75573)">
        <rect x="50" y="26" width="48" height="48" rx="24" fill="#0085FF" />
        <mask id="mask0_1883_75573" style="mask-type:alpha" maskUnits="userSpaceOnUse" x="60" y="36" width="28"
            height="28">
            <rect x="60" y="36" width="28" height="28" fill="#D9D9D9" />
        </mask>
        <g mask="url(#mask0_1883_75573)">
            <path
                d="M74.0004 50C72.6804 50 71.5504 49.53 70.6104 48.59C69.6704 47.65 69.2004 46.52 69.2004 45.2C69.2004 43.88 69.6704 42.75 70.6104 41.81C71.5504 40.87 72.6804 40.4 74.0004 40.4C75.3204 40.4 76.4504 40.87 77.3904 41.81C78.3304 42.75 78.8004 43.88 78.8004 45.2C78.8004 46.52 78.3304 47.65 77.3904 48.59C76.4504 49.53 75.3204 50 74.0004 50ZM64.4004 59.6V56.24C64.4004 55.56 64.5756 54.9348 64.926 54.3644C65.2756 53.7948 65.7404 53.36 66.3204 53.06C67.5604 52.44 68.8204 51.9748 70.1004 51.6644C71.3804 51.3548 72.6804 51.2 74.0004 51.2C75.3204 51.2 76.6204 51.3548 77.9004 51.6644C79.1804 51.9748 80.4404 52.44 81.6804 53.06C82.2604 53.36 82.7252 53.7948 83.0748 54.3644C83.4252 54.9348 83.6004 55.56 83.6004 56.24V59.6H64.4004ZM66.8004 57.2H81.2004V56.24C81.2004 56.02 81.1456 55.82 81.036 55.64C80.9256 55.46 80.7804 55.32 80.6004 55.22C79.5204 54.68 78.4304 54.2748 77.3304 54.0044C76.2304 53.7348 75.1204 53.6 74.0004 53.6C72.8804 53.6 71.7704 53.7348 70.6704 54.0044C69.5704 54.2748 68.4804 54.68 67.4004 55.22C67.2204 55.32 67.0756 55.46 66.966 55.64C66.8556 55.82 66.8004 56.02 66.8004 56.24V57.2ZM74.0004 47.6C74.6604 47.6 75.2256 47.3648 75.696 46.8944C76.1656 46.4248 76.4004 45.86 76.4004 45.2C76.4004 44.54 76.1656 43.9752 75.696 43.5056C75.2256 43.0352 74.6604 42.8 74.0004 42.8C73.3404 42.8 72.7756 43.0352 72.306 43.5056C71.8356 43.9752 71.6004 44.54 71.6004 45.2C71.6004 45.86 71.8356 46.4248 72.306 46.8944C72.7756 47.3648 73.3404 47.6 74.0004 47.6Z"
                fill="white" />
        </g>
    </g>
    <defs>
        <filter id="filter0_d_1883_75573" x="0" y="0" width="148" height="148" filterUnits="userSpaceOnUse"
            color-interpolation-filters="sRGB">
            <feFlood flood-opacity="0" result="BackgroundImageFix" />
            <feColorMatrix in="SourceAlpha" type="matrix" values="0 0 0 0 0 0 0 0 0 0 0 0 0 0 0 0 0 0 127 0"
                result="hardAlpha" />
            <feOffset dy="24" />
            <feGaussianBlur stdDeviation="25" />
            <feColorMatrix type="matrix" values="0 0 0 0 0 0 0 0 0 0 0 0 0 0 0 0 0 0 0.05 0" />
            <feBlend mode="normal" in2="BackgroundImageFix" result="effect1_dropShadow_1883_75573" />
            <feBlend mode="normal" in="SourceGraphic" in2="effect1_dropShadow_1883_75573" result="shape" />
        </filter>
    </defs>
</svg>