<svg width="24" height="24" viewBox="0 0 24 24" fill="none" xmlns="http://www.w3.org/2000/svg">
    <mask id="mask0_1722_59435" style="mask-type:alpha" maskUnits="userSpaceOnUse" x="0" y="0" width="24" height="24">
        <rect width="24" height="24" fill="#D9D9D9" />
    </mask>
    <g mask="url(#mask0_1722_59435)">
        <path
            d="M6 21C5.71667 21 5.479 20.904 5.287 20.712C5.09567 20.5207 5 20.2833 5 20V17.95C4.7 17.6167 4.45833 17.2457 4.275 16.837C4.09167 16.429 4 15.9833 4 15.5V6C4 4.61667 4.64167 3.604 5.925 2.962C7.20833 2.32067 9.23333 2 12 2C14.8667 2 16.9167 2.30833 18.15 2.925C19.3833 3.54167 20 4.56667 20 6V15.5C20 15.9833 19.9083 16.429 19.725 16.837C19.5417 17.2457 19.3 17.6167 19 17.95V20C19 20.2833 18.904 20.5207 18.712 20.712C18.5207 20.904 18.2833 21 18 21H17C16.7167 21 16.4793 20.904 16.288 20.712C16.096 20.5207 16 20.2833 16 20V19H8V20C8 20.2833 7.90433 20.5207 7.713 20.712C7.521 20.904 7.28333 21 7 21H6ZM6 10H18V7H6V10ZM8.5 16C8.91667 16 9.27067 15.854 9.562 15.562C9.854 15.2707 10 14.9167 10 14.5C10 14.0833 9.854 13.7293 9.562 13.438C9.27067 13.146 8.91667 13 8.5 13C8.08333 13 7.72933 13.146 7.438 13.438C7.146 13.7293 7 14.0833 7 14.5C7 14.9167 7.146 15.2707 7.438 15.562C7.72933 15.854 8.08333 16 8.5 16ZM15.5 16C15.9167 16 16.2707 15.854 16.562 15.562C16.854 15.2707 17 14.9167 17 14.5C17 14.0833 16.854 13.7293 16.562 13.438C16.2707 13.146 15.9167 13 15.5 13C15.0833 13 14.7293 13.146 14.438 13.438C14.146 13.7293 14 14.0833 14 14.5C14 14.9167 14.146 15.2707 14.438 15.562C14.7293 15.854 15.0833 16 15.5 16Z"
            fill="#0085FF" />
    </g>
</svg>