<svg width="368" height="158" viewBox="0 0 368 158" fill="none" xmlns="http://www.w3.org/2000/svg">
    <g clip-path="url(#clip0_2529_20969)">
        <rect width="368" height="158" fill="#648BDC" />
        <path
            d="M391 125.653C390.727 126.507 390.446 127.355 390.16 128.196C390.04 128.553 389.909 128.905 389.794 129.262C389.294 130.693 388.759 132.103 388.213 133.483C387.912 134.24 387.604 134.989 387.29 135.728C386.54 137.487 385.749 139.189 384.921 140.83C384.741 141.187 384.559 141.542 384.379 141.891C383.436 143.681 382.45 145.388 381.409 146.991C381.189 147.333 380.964 147.668 380.737 147.997C379.53 149.791 378.192 151.493 376.734 153.087C376.281 153.59 375.821 154.055 375.353 154.505C373.102 156.697 370.658 158.429 368.042 159.585C367.851 159.671 367.661 159.751 367.466 159.837L367.321 159.897L217.141 160L-0.168625 158.69C-0.457127 158.049 -0.743141 157.397 -1.02664 156.737C-1.25844 156.203 -1.48942 155.661 -1.71955 155.113C-1.88631 154.703 -2.0589 154.284 -2.23734 153.856C-3.63566 150.465 -4.98895 146.871 -6.26969 143.1C-9.64667 133.098 -12.3858 121.867 -13.4839 109.969C-14.6246 97.612 -13.9842 84.5382 -10.4546 71.3788C-9.35186 67.2791 -7.98828 63.2547 -6.37226 59.3306C-2.62007 50.1957 2.71556 41.1136 9.99231 32.2955C10.5101 32.2101 11.0329 32.1271 11.5607 32.0441C12.006 31.9738 12.4537 31.9059 12.904 31.8431C15.0719 31.5263 17.1507 31.1518 19.1401 30.7194V53.5138H29.0534V48.1998L40.7453 48.2476V39.6205H43.0992V37.9112H43.4093V39.6205H54.2432V37.9087H54.5533V39.6205H56.7296V56.7792H70.6478V63.0936H78.3848V59.4286H85.559V44.8692H89.136V38.0821H89.6789V44.8692H98.2564V32.1397H99.0944V44.8692H104.765V19.9029H106.456V18H106.726V19.9029H119.251V18H119.521V19.9029H121.805V33.2105H123.416H123.404V30.6666H123.416V28.907H123.404V26.3682H123.416V24.6086H123.404V22.0747H141.212L141.617 22.482V36.8102H152.718V55.8818H161.686V20.6042H163.637V18.1433H163.987V20.6118H171.071V18.1433H171.424V20.6118H181.453V18.1433H181.803V20.6118H188.114V18.1433H188.464V20.6118H191.058V53.5415H200.969V48.1998L212.661 48.2476V39.6205H215.015V37.9112H215.325V39.6205H226.154V37.9087H226.469V39.6205H228.645V56.7792H242.566V63.0936H250.3V59.4286H257.474V44.8692H261.052V38.0821H261.592V44.8692H270.169V32.1397H271.01V44.8692H276.683V19.9029H278.374V18H278.644V19.9029H291.167V18H291.439V19.9029H293.726V33.2105H295.334H295.319V30.6666H295.334V28.907H295.319V26.3682H295.334V24.6086H295.319V22.0747H313.129L313.535 22.2784V36.8001H332.168V55.8717H341.138V20.6042H343.09V18.1433H343.44V20.6118H350.521V18.1433H350.872V20.6118L376.924 19.9029C377.027 21.8661 377.074 23.7338 377.082 25.4808C377.082 26.5291 377.082 27.5345 377.057 28.4973C377.014 30.6088 376.917 32.4891 376.807 34.0778C376.717 35.3346 376.617 36.4004 376.527 37.2651C376.354 38.9041 376.206 39.8115 376.206 39.8115C376.206 39.8115 375.806 41.1916 375.338 42.8456C375.028 43.9416 374.691 45.1582 374.418 46.1738C374.263 46.7494 374.13 47.2647 374.035 47.6543C373.702 49.057 373.401 50.4236 373.135 51.7542C372.93 52.7798 372.749 53.7853 372.592 54.7707C372.502 55.3111 372.422 55.8466 372.342 56.3769C372.234 57.1311 372.142 57.85 372.064 58.5714C371.996 59.1731 376.784 56.7775 376.734 57.3623C376.357 61.3524 369.518 69.0693 370 73.0479C371.814 87.2555 363.501 95.9479 371.881 104.105C374.438 106.591 377.059 109.024 379.601 111.553C379.911 111.86 380.224 112.171 380.531 112.483C381.062 113.019 381.587 113.562 382.107 114.112L382.317 114.336C384.403 116.515 386.344 118.828 388.131 121.261C388.536 121.812 388.926 122.375 389.309 122.948C389.759 123.618 390.195 124.306 390.617 125.012C390.745 125.228 390.872 125.434 391 125.653Z"
            fill="#3B61CB" />
        <path d="M191.061 20.6017H168.655V26.1822H191.061V20.6017Z" fill="#3B61CB" />
        <path d="M191.061 29.1911H168.655V34.7715H191.061V29.1911Z" fill="#3B61CB" />
        <path d="M191.061 37.9615H168.655V43.5419H191.061V37.9615Z" fill="#3B61CB" />
        <path d="M191.061 46.8701H168.655V52.4505H191.061V46.8701Z" fill="#3B61CB" />
        <path d="M191.061 55.4645H168.655V61.0449H191.061V55.4645Z" fill="#3B61CB" />
        <path d="M287.169 19.9029H276.716V23.2914H287.169V19.9029Z" fill="#3B61CB" />
        <path d="M287.169 25.1189H276.716V28.5074H287.169V25.1189Z" fill="#3B61CB" />
        <path d="M287.169 30.4454H276.716V33.8339H287.169V30.4454Z" fill="#3B61CB" />
        <path d="M287.169 35.855H276.716V39.2434H287.169V35.855Z" fill="#3B61CB" />
        <path d="M287.169 41.0759H276.716V44.4644H287.169V41.0759Z" fill="#3B61CB" />
        <path d="M287.169 46.8198H276.716V50.2083H287.169V46.8198Z" fill="#3B61CB" />
        <path d="M287.169 52.0383H276.716V55.4268H287.169V52.0383Z" fill="#3B61CB" />
        <path d="M287.169 57.3623H276.716V60.7508H287.169V57.3623Z" fill="#3B61CB" />
        <path d="M287.169 62.7744H276.716V66.1629H287.169V62.7744Z" fill="#3B61CB" />
        <path d="M287.169 67.9928H276.716V71.3813H287.169V67.9928Z" fill="#3B61CB" />
        <path d="M306.516 22.125H295.312V25.5135H306.516V22.125Z" fill="#3B61CB" />
        <path d="M306.516 27.341H295.312V30.7295H306.516V27.341Z" fill="#3B61CB" />
        <path d="M306.516 32.6676H295.312V36.0561H306.516V32.6676Z" fill="#3B61CB" />
        <path d="M306.516 38.0771H295.312V41.4656H306.516V38.0771Z" fill="#3B61CB" />
        <path d="M306.516 43.2981H295.312V46.6866H306.516V43.2981Z" fill="#3B61CB" />
        <path d="M306.516 48.7403H295.312V52.1288H306.516V48.7403Z" fill="#3B61CB" />
        <path d="M306.516 53.9562H295.312V57.3447H306.516V53.9562Z" fill="#3B61CB" />
        <path d="M306.516 59.2828H295.312V62.6713H306.516V59.2828Z" fill="#3B61CB" />
        <path d="M306.516 64.6923H295.312V68.0808H306.516V64.6923Z" fill="#3B61CB" />
        <path d="M306.516 69.9133H295.312V73.3018H306.516V69.9133Z" fill="#3B61CB" />
        <path d="M306.516 75.901H295.312V79.2895H306.516V75.901Z" fill="#3B61CB" />
        <path d="M306.516 81.117H295.312V84.5055H306.516V81.117Z" fill="#3B61CB" />
        <path d="M306.516 86.4436H295.312V89.832H306.516V86.4436Z" fill="#3B61CB" />
        <path d="M306.516 91.8531H295.312V95.2416H306.516V91.8531Z" fill="#3B61CB" />
        <path d="M306.516 97.0741H295.312V100.463H306.516V97.0741Z" fill="#3B61CB" />
        <path
            d="M377.044 28.4948C377.002 30.6063 376.904 32.4866 376.794 34.0752L350.099 34.7841V29.2036L377.044 28.4948Z"
            fill="#3B61CB" />
        <path
            d="M376.522 37.2526C376.349 38.8915 376.201 39.799 376.201 39.799C376.201 39.799 375.801 41.179 375.333 42.833L350.106 43.5419V37.9615L376.522 37.2526Z"
            fill="#3B61CB" />
        <path
            d="M374.413 46.1612C374.258 46.7368 374.125 47.2521 374.03 47.6418C373.697 49.0444 373.396 50.4111 373.13 51.7416L350.106 52.4505V46.8701L374.413 46.1612Z"
            fill="#3B61CB" />
        <path d="M115.869 19.9029H104.665V23.2914H115.869V19.9029Z" fill="#3B61CB" />
        <path d="M115.869 25.1189H104.665V28.5074H115.869V25.1189Z" fill="#3B61CB" />
        <path d="M115.869 30.4454H104.665V33.8339H115.869V30.4454Z" fill="#3B61CB" />
        <path d="M115.869 35.855H104.665V39.2434H115.869V35.855Z" fill="#3B61CB" />
        <path d="M115.869 41.0759H104.665V44.4644H115.869V41.0759Z" fill="#3B61CB" />
        <path d="M115.869 46.8198H104.665V50.2083H115.869V46.8198Z" fill="#3B61CB" />
        <path d="M115.869 52.0383H104.665V55.4268H115.869V52.0383Z" fill="#3B61CB" />
        <path d="M115.869 57.3623H104.665V60.7508H115.869V57.3623Z" fill="#3B61CB" />
        <path d="M115.869 62.7744H104.665V66.1629H115.869V62.7744Z" fill="#3B61CB" />
        <path d="M115.869 67.9928H104.665V71.3813H115.869V67.9928Z" fill="#3B61CB" />
        <path d="M136.369 22.125H123.636V25.5135H136.369V22.125Z" fill="#3B61CB" />
        <path d="M136.369 27.341H123.636V30.7295H136.369V27.341Z" fill="#3B61CB" />
        <path d="M136.369 32.6676H123.636V36.0561H136.369V32.6676Z" fill="#3B61CB" />
        <path d="M136.369 38.0771H123.636V41.4656H136.369V38.0771Z" fill="#3B61CB" />
        <path d="M136.369 43.2981H123.636V46.6866H136.369V43.2981Z" fill="#3B61CB" />
        <path d="M136.369 48.7403H123.636V52.1288H136.369V48.7403Z" fill="#3B61CB" />
        <path d="M136.369 53.9562H123.636V57.3447H136.369V53.9562Z" fill="#3B61CB" />
        <path d="M136.369 59.2828H123.636V62.6713H136.369V59.2828Z" fill="#3B61CB" />
        <path d="M136.369 64.6923H123.636V68.0808H136.369V64.6923Z" fill="#3B61CB" />
        <path d="M136.369 69.9133H123.636V73.3018H136.369V69.9133Z" fill="#3B61CB" />
        <path d="M136.369 75.901H123.636V79.2895H136.369V75.901Z" fill="#3B61CB" />
        <path d="M136.369 81.117H123.636V84.5055H136.369V81.117Z" fill="#3B61CB" />
        <path d="M136.369 86.4436H123.636V89.832H136.369V86.4436Z" fill="#3B61CB" />
        <path d="M136.369 91.8531H123.636V95.2416H136.369V91.8531Z" fill="#3B61CB" />
        <path d="M136.369 97.0741H123.636V100.463H136.369V97.0741Z" fill="#3B61CB" />
        <path
            d="M398.424 123.133C398.054 129.25 396.9 136.14 394.768 143.981C393.674 148.008 391.284 151.563 387.969 154.097C384.654 156.63 380.596 158.002 376.424 158L199.215 157.917H196.871H180.154H178.007H162.052H159.324H137.093H133.174H115.044H110.115L78.8665 157.901H73.4087H47.9049H44.1464L3.74561 157.882C-1.07248 157.881 -5.80322 156.595 -9.95976 154.158C-14.1163 151.721 -17.5485 148.22 -19.9032 144.016C-23.6691 137.274 -27.0404 130.319 -30 123.187L398.424 123.133Z"
            fill="#3E65CE" />
        <path d="M26.0195 139.966L3.43921 139.577L6.51309 137.493L29.0934 137.883L26.0195 139.966Z" fill="#6B91DE" />
        <path d="M246.02 139.966L223.439 139.577L226.513 137.493L249.094 137.883L246.02 139.966Z" fill="#6B91DE" />
        <path d="M97.8415 139.966L75.2612 139.577L78.3351 137.493L100.915 137.883L97.8415 139.966Z" fill="#6B91DE" />
        <path d="M317.841 139.966L295.261 139.577L298.335 137.493L320.915 137.883L317.841 139.966Z" fill="#6B91DE" />
        <path d="M169.601 139.966L147.021 139.577L150.095 137.493L172.675 137.883L169.601 139.966Z" fill="#6B91DE" />
        <path d="M389.601 139.966L367.021 139.577L370.094 137.493L392.675 137.883L389.601 139.966Z" fill="#6B91DE" />
        <path d="M205.822 70.5215H127.308V108.352H205.822V70.5215Z" fill="#2644BB" />
        <path d="M167.56 60.7217H165.559V108.352H167.56V60.7217Z" fill="#07336C" />
        <path
            d="M209.5 62.1315H123.624C123.624 60.0826 124.438 58.1177 125.887 56.6689C127.335 55.2202 129.3 54.4062 131.349 54.4062H201.775C203.824 54.4062 205.789 55.2202 207.237 56.6689C208.686 58.1177 209.5 60.0826 209.5 62.1315Z"
            fill="#567DD6" />
        <path
            d="M137.142 53.957V62.6031H135.437V53.957C135.423 53.8367 135.435 53.7149 135.471 53.5995C135.508 53.4841 135.568 53.3777 135.649 53.2873C135.729 53.197 135.828 53.1247 135.939 53.0751C136.049 53.0256 136.169 53 136.29 53C136.411 53 136.53 53.0256 136.641 53.0751C136.751 53.1247 136.85 53.197 136.931 53.2873C137.011 53.3777 137.072 53.4841 137.108 53.5995C137.145 53.7149 137.156 53.8367 137.142 53.957Z"
            fill="#07336C" />
        <path
            d="M197.7 53.957V62.6031H195.994V53.957C195.98 53.8367 195.992 53.7149 196.028 53.5995C196.065 53.4841 196.125 53.3777 196.206 53.2873C196.287 53.197 196.385 53.1247 196.496 53.0751C196.606 53.0256 196.726 53 196.847 53C196.968 53 197.088 53.0256 197.198 53.0751C197.309 53.1247 197.407 53.197 197.488 53.2873C197.568 53.3777 197.629 53.4841 197.665 53.5995C197.702 53.7149 197.713 53.8367 197.7 53.957Z"
            fill="#07336C" />
        <path
            d="M152.28 54.0878V62.734H150.575V54.0878C150.561 53.9676 150.572 53.8458 150.609 53.7304C150.645 53.615 150.706 53.5086 150.786 53.4182C150.867 53.3278 150.966 53.2555 151.076 53.206C151.186 53.1565 151.306 53.1309 151.427 53.1309C151.548 53.1309 151.668 53.1565 151.778 53.206C151.889 53.2555 151.988 53.3278 152.068 53.4182C152.149 53.5086 152.209 53.615 152.246 53.7304C152.282 53.8458 152.294 53.9676 152.28 54.0878Z"
            fill="#07336C" />
        <path
            d="M182.561 53.957V62.6031H180.856V53.957C180.842 53.8367 180.854 53.7149 180.89 53.5995C180.927 53.4841 180.987 53.3777 181.068 53.2873C181.148 53.197 181.247 53.1247 181.357 53.0751C181.468 53.0256 181.587 53 181.708 53C181.83 53 181.949 53.0256 182.06 53.0751C182.17 53.1247 182.269 53.197 182.349 53.2873C182.43 53.3777 182.49 53.4841 182.527 53.5995C182.563 53.7149 182.575 53.8367 182.561 53.957Z"
            fill="#07336C" />
        <path
            d="M167.424 53.957V62.6031H165.718V53.957C165.704 53.8367 165.716 53.7149 165.753 53.5995C165.789 53.4841 165.85 53.3777 165.93 53.2873C166.011 53.197 166.109 53.1247 166.22 53.0751C166.33 53.0256 166.45 53 166.571 53C166.692 53 166.812 53.0256 166.922 53.0751C167.033 53.1247 167.131 53.197 167.212 53.2873C167.292 53.3777 167.353 53.4841 167.389 53.5995C167.426 53.7149 167.438 53.8367 167.424 53.957Z"
            fill="#07336C" />
        <path
            d="M179.628 93.8853H192.907C193.492 93.8853 194.053 94.1176 194.467 94.5313C194.88 94.9449 195.113 95.5059 195.113 96.0908V112.093H177.422V96.0965C177.422 95.8064 177.478 95.519 177.589 95.2507C177.699 94.9825 177.861 94.7387 178.066 94.5333C178.271 94.3279 178.515 94.1649 178.783 94.0537C179.051 93.9425 179.338 93.8853 179.628 93.8853Z"
            fill="#7096E0" />
        <path
            d="M159.641 93.8853H172.92C173.505 93.8853 174.066 94.1176 174.479 94.5313C174.893 94.9449 175.125 95.5059 175.125 96.0908V111.098H157.435V96.0908C157.435 95.8012 157.492 95.5144 157.603 95.2468C157.714 94.9792 157.876 94.7361 158.081 94.5313C158.286 94.3265 158.529 94.164 158.797 94.0531C159.064 93.9423 159.351 93.8853 159.641 93.8853Z"
            fill="#7096E0" />
        <path
            d="M139.654 93.8853H152.933C153.518 93.8853 154.079 94.1176 154.493 94.5313C154.906 94.9449 155.139 95.5059 155.139 96.0909V112.451H137.443V96.0965C137.442 95.8059 137.499 95.5181 137.609 95.2494C137.72 94.9808 137.883 94.7367 138.089 94.5313C138.294 94.3258 138.538 94.1629 138.807 94.0521C139.075 93.9412 139.363 93.8845 139.654 93.8853Z"
            fill="#7096E0" />
        <path d="M200.968 112.098H132.157V113.531H200.968V112.098Z" fill="#07336C" />
        <path
            d="M177.422 100.644V112.456H175.148V100.644C175.148 100.342 175.268 100.053 175.481 99.8398C175.695 99.6266 175.984 99.5068 176.285 99.5068C176.587 99.5068 176.876 99.6266 177.089 99.8398C177.302 100.053 177.422 100.342 177.422 100.644Z"
            fill="#07336C" />
        <path
            d="M197.404 100.644V112.456H195.13V100.644C195.13 100.342 195.25 100.053 195.463 99.8398C195.676 99.6266 195.966 99.5068 196.267 99.5068C196.569 99.5068 196.858 99.6266 197.071 99.8398C197.284 100.053 197.404 100.342 197.404 100.644Z"
            fill="#07336C" />
        <path
            d="M157.436 100.644V112.456H155.162V100.644C155.162 100.342 155.282 100.053 155.495 99.8398C155.708 99.6266 155.997 99.5068 156.299 99.5068C156.601 99.5068 156.89 99.6266 157.103 99.8398C157.316 100.053 157.436 100.342 157.436 100.644Z"
            fill="#07336C" />
        <path d="M146.72 113.383H145.288V122.808H146.72V113.383Z" fill="#07336C" />
        <path d="M187.297 113.383H185.864V122.808H187.297V113.383Z" fill="#07336C" />
        <path
            d="M137.443 100.644V112.456H135.17V100.644C135.17 100.342 135.289 100.053 135.503 99.8398C135.716 99.6266 136.005 99.5068 136.307 99.5068C136.608 99.5068 136.897 99.6266 137.11 99.8398C137.324 100.053 137.443 100.342 137.443 100.644Z"
            fill="#07336C" />
        <path
            d="M195.13 112.098H177.417V110.137C177.417 109.664 177.605 109.21 177.94 108.875C178.274 108.54 178.728 108.352 179.202 108.352H193.351C193.824 108.352 194.278 108.54 194.613 108.875C194.947 109.21 195.135 109.664 195.135 110.137V112.098H195.13Z"
            fill="#567DD6" />
        <path
            d="M175.149 112.098H157.436V110.137C157.436 109.664 157.624 109.21 157.959 108.875C158.293 108.54 158.747 108.352 159.221 108.352H173.37C173.843 108.352 174.297 108.54 174.632 108.875C174.966 109.21 175.155 109.664 175.155 110.137V112.098H175.149Z"
            fill="#567DD6" />
        <path
            d="M155.134 112.098H137.421V110.137C137.421 109.664 137.609 109.21 137.944 108.875C138.278 108.54 138.732 108.352 139.206 108.352H153.36C153.834 108.352 154.288 108.54 154.622 108.875C154.957 109.21 155.145 109.664 155.145 110.137V112.098H155.134Z"
            fill="#567DD6" />
        <path
            d="M127.893 121.381H125.62V62.2222H123.619V121.381H121.345C120.965 121.381 120.601 121.532 120.332 121.8C120.063 122.069 119.912 122.433 119.912 122.813H129.337C129.337 122.624 129.3 122.437 129.227 122.263C129.154 122.088 129.048 121.93 128.914 121.796C128.779 121.663 128.62 121.558 128.445 121.487C128.27 121.415 128.082 121.379 127.893 121.381Z"
            fill="#07336C" />
        <path
            d="M211.797 121.347H209.523V62.1826H207.522V121.347H205.248C204.868 121.347 204.504 121.498 204.235 121.767C203.967 122.035 203.816 122.4 203.816 122.78H213.241C213.241 122.59 213.203 122.403 213.131 122.229C213.058 122.054 212.951 121.896 212.817 121.763C212.683 121.629 212.524 121.524 212.349 121.453C212.174 121.381 211.986 121.346 211.797 121.347Z"
            fill="#07336C" />
        <path d="M211.501 70.5215H209.5V108.352H211.501V70.5215Z" fill="#2644BB" />
        <path d="M123.624 70.5215H121.624V108.352H123.624V70.5215Z" fill="#2644BB" />
        <path d="M128.984 72.7329H125.596V73.5913H128.984V72.7329Z" fill="#073D84" />
        <path d="M128.984 105.283H125.596V106.141H128.984V105.283Z" fill="#073D84" />
        <path d="M207.511 72.7329H204.123V73.5913H207.511V72.7329Z" fill="#073D84" />
        <path d="M207.511 105.283H204.123V106.141H207.511V105.283Z" fill="#073D84" />
        <path d="M211.501 61.5571H121.624V63.5581H211.501V61.5571Z" fill="#07336C" />
        <path
            d="M111.221 100.428H106.548C105.523 100.428 104.54 100.835 103.815 101.56C103.09 102.285 102.683 103.268 102.683 104.293V106.857H115.086V104.276C115.082 103.254 114.673 102.275 113.948 101.554C113.224 100.833 112.243 100.428 111.221 100.428Z"
            fill="#07336C" />
        <path
            d="M110.59 102.622H107.18C106.634 102.622 106.11 102.839 105.725 103.225C105.339 103.611 105.122 104.134 105.122 104.68V106.857H112.648V104.663C112.644 104.12 112.425 103.601 112.039 103.219C111.654 102.837 111.133 102.622 110.59 102.622Z"
            fill="#073D84" />
        <path d="M105.122 106.874H102.683V121.244H105.122V106.874Z" fill="#2644BB" />
        <path d="M115.086 106.874H112.647V121.244H115.086V106.874Z" fill="#2644BB" />
        <path d="M112.648 106.874H105.122V121.244H112.648V106.874Z" fill="#567DD6" />
        <path
            d="M101 122.814H116.763C116.763 122.397 116.598 121.998 116.304 121.704C116.009 121.41 115.61 121.245 115.194 121.245H102.569C102.153 121.245 101.754 121.41 101.46 121.704C101.165 121.998 101 122.397 101 122.814Z"
            fill="#07336C" />
        <path opacity="0.6"
            d="M258.833 136.729H429.151C429.755 136.729 430.334 136.489 430.761 136.062C431.188 135.635 431.428 135.055 431.428 134.451C431.428 133.847 431.188 133.268 430.761 132.841C430.334 132.414 429.755 132.174 429.151 132.174H258.833C258.229 132.174 257.65 132.414 257.223 132.841C256.796 133.268 256.556 133.847 256.556 134.451C256.556 135.055 256.796 135.635 257.223 136.062C257.65 136.489 258.229 136.729 258.833 136.729Z"
            fill="#2644BB" />
        <path
            d="M353.322 67H388.737C389.421 67 390.077 67.2716 390.56 67.755C391.043 68.2384 391.315 68.894 391.315 69.5777V73.6406H350.744V69.5777C350.744 68.894 351.016 68.2384 351.499 67.755C351.983 67.2716 352.638 67 353.322 67Z"
            fill="#07336C" />
        <path
            d="M300.414 67H307.682C308.366 67 309.022 67.2716 309.505 67.755C309.988 68.2384 310.26 68.894 310.26 69.5777V73.6406H297.836V69.5777C297.836 68.894 298.108 68.2384 298.591 67.755C299.075 67.2716 299.73 67 300.414 67Z"
            fill="#07336C" />
        <path
            d="M276.845 67H284.095C284.779 67 285.434 67.2716 285.918 67.755C286.401 68.2384 286.673 68.894 286.673 69.5777V73.6406H274.276V69.5777C274.276 68.8956 274.547 68.2413 275.028 67.7582C275.51 67.275 276.163 67.0024 276.845 67Z"
            fill="#07336C" />
        <path
            d="M299.832 111.579C303.155 111.583 306.34 112.905 308.688 115.256C311.036 117.606 312.355 120.793 312.355 124.115C312.357 125.275 312.193 126.429 311.867 127.542H287.797C287.114 125.177 287.153 122.661 287.91 120.319C288.713 117.786 290.3 115.573 292.444 114.002C294.587 112.431 297.175 111.582 299.832 111.579Z"
            fill="#073D84" />
        <path
            d="M260.038 68.9097H426.261C427.965 68.9097 429.599 69.5865 430.804 70.7912C432.009 71.9959 432.685 73.6299 432.685 75.3336V126.842C432.685 127.313 432.498 127.764 432.166 128.097C431.833 128.43 431.382 128.617 430.911 128.617H405.048C404.97 128.62 404.892 128.606 404.82 128.575C404.748 128.544 404.684 128.497 404.634 128.437C404.583 128.377 404.547 128.306 404.528 128.23C404.509 128.154 404.508 128.075 404.525 127.998C404.701 127.149 405.364 126.224 405.364 125.366C405.364 118.807 399.496 112.938 392.95 112.938C387.65 112.938 382.626 116.951 381.1 121.75C380.719 122.916 380.527 124.135 380.531 125.362C380.531 126.265 381.163 127.136 381.362 127.971C381.378 128.049 381.376 128.129 381.357 128.206C381.339 128.283 381.303 128.355 381.253 128.416C381.202 128.478 381.139 128.527 381.067 128.561C380.996 128.595 380.917 128.612 380.838 128.612H311.944C311.865 128.613 311.786 128.596 311.713 128.563C311.641 128.529 311.577 128.48 311.527 128.418C311.476 128.357 311.44 128.285 311.421 128.207C311.401 128.13 311.4 128.049 311.416 127.971C311.615 127.136 312.247 126.265 312.247 125.362C312.247 119.592 307.732 114.162 302.035 113.132C295.814 112.008 289.72 116.292 287.987 121.746C287.602 122.911 287.408 124.13 287.413 125.357C287.413 126.26 288.054 127.136 288.244 127.971C288.26 128.048 288.259 128.129 288.24 128.205C288.221 128.282 288.185 128.354 288.135 128.415C288.085 128.476 288.021 128.525 287.949 128.558C287.878 128.592 287.799 128.609 287.72 128.608H257.095C256.791 128.608 256.49 128.544 256.212 128.419C255.935 128.293 255.688 128.11 255.487 127.881C255.286 127.653 255.137 127.383 255.049 127.092C254.961 126.801 254.937 126.494 254.978 126.192C254.556 125.847 254.215 125.412 253.981 124.92C253.747 124.427 253.625 123.889 253.623 123.344V75.3336C253.623 73.6314 254.299 71.9989 255.502 70.7944C256.704 69.5899 258.336 68.9121 260.038 68.9097Z"
            fill="#567DD6" />
        <path
            d="M257.122 128.616H258.129C257.825 128.616 257.524 128.551 257.247 128.426C256.97 128.3 256.723 128.117 256.522 127.889C256.321 127.66 256.171 127.391 256.083 127.1C255.994 126.809 255.968 126.503 256.007 126.201H255.001C254.962 126.503 254.987 126.809 255.076 127.1C255.165 127.391 255.314 127.66 255.515 127.889C255.716 128.117 255.963 128.3 256.24 128.426C256.517 128.551 256.818 128.616 257.122 128.616Z"
            fill="#07336C" />
        <path
            d="M299.832 134.819C305.055 134.819 309.289 130.585 309.289 125.361C309.289 120.138 305.055 115.904 299.832 115.904C294.609 115.904 290.374 120.138 290.374 125.361C290.374 130.585 294.609 134.819 299.832 134.819Z"
            fill="#07336C" />
        <path
            d="M299.832 133.93C301.528 133.93 303.186 133.427 304.597 132.484C306.007 131.542 307.107 130.202 307.756 128.635C308.405 127.068 308.575 125.343 308.244 123.679C307.913 122.016 307.096 120.487 305.897 119.288C304.697 118.088 303.169 117.271 301.505 116.94C299.841 116.609 298.117 116.779 296.549 117.428C294.982 118.077 293.642 119.177 292.7 120.587C291.757 121.998 291.254 123.656 291.254 125.353C291.254 127.628 292.158 129.809 293.767 131.418C295.375 133.026 297.557 133.93 299.832 133.93Z"
            fill="#07336C" />
        <path
            d="M299.832 119.29C298.63 119.289 297.455 119.645 296.455 120.312C295.455 120.979 294.675 121.928 294.215 123.038C293.754 124.148 293.633 125.37 293.867 126.549C294.101 127.728 294.679 128.811 295.529 129.661C296.379 130.512 297.461 131.091 298.64 131.326C299.819 131.56 301.041 131.44 302.152 130.981C303.262 130.521 304.211 129.742 304.879 128.743C305.547 127.743 305.904 126.568 305.904 125.366C305.902 123.756 305.262 122.212 304.124 121.073C302.986 119.934 301.442 119.292 299.832 119.29Z"
            fill="#07336C" />
        <path
            d="M299.832 129.628C298.988 129.629 298.163 129.379 297.46 128.911C296.758 128.442 296.211 127.776 295.887 126.996C295.564 126.217 295.479 125.359 295.643 124.531C295.808 123.703 296.214 122.942 296.811 122.345C297.408 121.748 298.168 121.342 298.996 121.177C299.824 121.013 300.683 121.098 301.462 121.421C302.242 121.745 302.908 122.292 303.377 122.994C303.845 123.697 304.095 124.522 304.094 125.366C304.091 126.496 303.642 127.578 302.843 128.377C302.044 129.176 300.962 129.625 299.832 129.628Z"
            fill="#073D84" />
        <path
            d="M299.828 127.14C300.811 127.14 301.607 126.344 301.607 125.362C301.607 124.379 300.811 123.583 299.828 123.583C298.846 123.583 298.05 124.379 298.05 125.362C298.05 126.344 298.846 127.14 299.828 127.14Z"
            fill="#07336C" />
        <path
            d="M299.814 122.874C300.109 122.874 300.347 122.635 300.347 122.341C300.347 122.047 300.109 121.809 299.814 121.809C299.52 121.809 299.282 122.047 299.282 122.341C299.282 122.635 299.52 122.874 299.814 122.874Z"
            fill="#07336C" />
        <path
            d="M302.821 125.881C303.115 125.881 303.354 125.642 303.354 125.348C303.354 125.054 303.115 124.815 302.821 124.815C302.527 124.815 302.288 125.054 302.288 125.348C302.288 125.642 302.527 125.881 302.821 125.881Z"
            fill="#07336C" />
        <path
            d="M296.848 125.881C297.142 125.881 297.381 125.642 297.381 125.348C297.381 125.054 297.142 124.815 296.848 124.815C296.554 124.815 296.315 125.054 296.315 125.348C296.315 125.642 296.554 125.881 296.848 125.881Z"
            fill="#07336C" />
        <path
            d="M297.756 123.682C298.05 123.682 298.288 123.444 298.288 123.149C298.288 122.855 298.05 122.617 297.756 122.617C297.461 122.617 297.223 122.855 297.223 123.149C297.223 123.444 297.461 123.682 297.756 123.682Z"
            fill="#07336C" />
        <path
            d="M301.976 123.682C302.27 123.682 302.509 123.444 302.509 123.149C302.509 122.855 302.27 122.617 301.976 122.617C301.682 122.617 301.443 122.855 301.443 123.149C301.443 123.444 301.682 123.682 301.976 123.682Z"
            fill="#07336C" />
        <path
            d="M297.756 128.079C298.05 128.079 298.288 127.841 298.288 127.546C298.288 127.252 298.05 127.014 297.756 127.014C297.461 127.014 297.223 127.252 297.223 127.546C297.223 127.841 297.461 128.079 297.756 128.079Z"
            fill="#07336C" />
        <path
            d="M301.976 128.079C302.27 128.079 302.509 127.841 302.509 127.546C302.509 127.252 302.27 127.014 301.976 127.014C301.682 127.014 301.443 127.252 301.443 127.546C301.443 127.841 301.682 128.079 301.976 128.079Z"
            fill="#07336C" />
        <path
            d="M299.814 128.915C300.109 128.915 300.347 128.676 300.347 128.382C300.347 128.088 300.109 127.849 299.814 127.849C299.52 127.849 299.282 128.088 299.282 128.382C299.282 128.676 299.52 128.915 299.814 128.915Z"
            fill="#07336C" />
        <path d="M359.485 103.219H358.13V128.617H359.485V103.219Z" fill="#2246A8" />
        <path d="M320.128 102.853H318.774V128.612H320.128V102.853Z" fill="#2246A8" />
        <path d="M432.681 102.438H280.89V103.792H432.681V102.438Z" fill="#2246A8" />
        <path d="M319.984 108.085H280.89V109.439H319.984V108.085Z" fill="#2246A8" />
        <path d="M340.976 105.584H337.761V106.613H340.976V105.584Z" fill="#073D84" />
        <path d="M301.439 105.584H298.225V106.613H301.439V105.584Z" fill="#073D84" />
        <path d="M369.737 105.584H366.523V106.613H369.737V105.584Z" fill="#073D84" />
        <path
            d="M369.331 125.23H366.929C366.705 125.23 366.523 125.412 366.523 125.637V125.853C366.523 126.078 366.705 126.26 366.929 126.26H369.331C369.555 126.26 369.737 126.078 369.737 125.853V125.637C369.737 125.412 369.555 125.23 369.331 125.23Z"
            fill="#7096E0" />
        <path
            d="M340.497 125.23H338.24C337.976 125.23 337.761 125.445 337.761 125.709V125.781C337.761 126.046 337.976 126.26 338.24 126.26H340.497C340.761 126.26 340.976 126.046 340.976 125.781V125.709C340.976 125.445 340.761 125.23 340.497 125.23Z"
            fill="#7096E0" />
        <path
            d="M284.848 118.283C285.993 118.283 286.921 117.355 286.921 116.211C286.921 115.066 285.993 114.139 284.848 114.139C283.704 114.139 282.776 115.066 282.776 116.211C282.776 117.355 283.704 118.283 284.848 118.283Z"
            fill="#073D84" />
        <path d="M280.89 77.6221H265.636V121.926H280.89V77.6221Z" fill="#073D84" />
        <path
            d="M267.302 79.8522L267.243 119.858C267.243 120.001 267.3 120.138 267.4 120.238C267.501 120.339 267.638 120.396 267.78 120.396H278.75C278.892 120.396 279.029 120.339 279.13 120.238C279.231 120.138 279.287 120.001 279.287 119.858L279.346 79.8522C279.346 79.7097 279.289 79.573 279.189 79.4723C279.088 79.3715 278.951 79.3149 278.809 79.3149H267.839C267.696 79.3149 267.56 79.3715 267.459 79.4723C267.358 79.573 267.302 79.7097 267.302 79.8522Z"
            fill="#2644BB" />
        <path d="M280.89 121.926H265.636V127.538H280.89V121.926Z" fill="#073D84" />
        <path d="M280.89 127.542H265.636V128.616H280.89V127.542Z" fill="#07336C" />
        <path
            d="M371.136 77.6221H340.272C339.975 77.6221 339.735 77.8626 339.735 78.1593V97.5981C339.735 97.8948 339.975 98.1353 340.272 98.1353H371.136C371.433 98.1353 371.674 97.8948 371.674 97.5981V78.1593C371.674 77.8626 371.433 77.6221 371.136 77.6221Z"
            fill="#073D84" />
        <path
            d="M369.534 79.2295H341.879C341.582 79.2295 341.342 79.47 341.342 79.7667V95.9913C341.342 96.288 341.582 96.5285 341.879 96.5285H369.534C369.83 96.5285 370.071 96.288 370.071 95.9913V79.7667C370.071 79.47 369.83 79.2295 369.534 79.2295Z"
            fill="#2644BB" />
        <path
            d="M337.306 77.6221H306.978C306.682 77.6221 306.441 77.8626 306.441 78.1593V97.5981C306.441 97.8948 306.682 98.1353 306.978 98.1353H337.306C337.603 98.1353 337.843 97.8948 337.843 97.5981V78.1593C337.843 77.8626 337.603 77.6221 337.306 77.6221Z"
            fill="#073D84" />
        <path
            d="M335.699 79.2295H308.586C308.289 79.2295 308.048 79.47 308.048 79.7667V95.9913C308.048 96.288 308.289 96.5285 308.586 96.5285H335.699C335.995 96.5285 336.236 96.288 336.236 95.9913V79.7667C336.236 79.47 335.995 79.2295 335.699 79.2295Z"
            fill="#2644BB" />
        <path
            d="M304.017 77.6224C304.159 77.6224 304.296 77.679 304.397 77.7798C304.498 77.8805 304.554 78.0172 304.554 78.1596V97.6662C304.554 97.7934 304.508 97.9163 304.425 98.0131C304.343 98.1098 304.228 98.174 304.103 98.1944L280.881 102.42V77.5908L304.017 77.6224Z"
            fill="#073D84" />
        <path
            d="M282.497 79.7667V99.9233C282.497 100.002 282.514 100.08 282.548 100.152C282.582 100.223 282.63 100.287 282.691 100.337C282.752 100.387 282.823 100.424 282.9 100.444C282.976 100.463 283.056 100.466 283.134 100.451L302.514 96.7949C302.639 96.7745 302.754 96.7103 302.836 96.6136C302.919 96.5168 302.965 96.3939 302.965 96.2667V79.7667C302.965 79.6242 302.909 79.4876 302.808 79.3868C302.707 79.2861 302.57 79.2295 302.428 79.2295H283.03C282.888 79.2307 282.753 79.2878 282.653 79.3884C282.553 79.489 282.497 79.625 282.497 79.7667Z"
            fill="#2644BB" />
        <path
            d="M253.609 78.2044V110.004C253.62 110.138 253.681 110.264 253.781 110.354C253.881 110.445 254.012 110.494 254.147 110.491H265.636V77.6221H254.147C254.072 77.6231 253.999 77.6393 253.932 77.6695C253.864 77.6997 253.803 77.7434 253.753 77.7979C253.703 77.8524 253.664 77.9165 253.639 77.9864C253.615 78.0563 253.604 78.1305 253.609 78.2044Z"
            fill="#073D84" />
        <path
            d="M263.492 79.2295H255.754C255.458 79.2295 255.217 79.47 255.217 79.7667V108.455C255.217 108.752 255.458 108.993 255.754 108.993H263.492C263.789 108.993 264.029 108.752 264.029 108.455V79.7667C264.029 79.47 263.789 79.2295 263.492 79.2295Z"
            fill="#2644BB" />
        <path
            d="M253.609 117.859L254.62 120.87C254.62 121.046 253.654 123.881 253.654 123.881C253.701 124.224 253.8 124.557 253.948 124.87C254.919 124.663 255.79 124.129 256.415 123.358C257.041 122.586 257.382 121.624 257.383 120.631V117.859H253.609Z"
            fill="#2246A8" />
        <path
            d="M253.609 117.859V123.353C253.607 123.53 253.621 123.707 253.65 123.881C253.777 123.856 253.903 123.821 254.025 123.777C254.523 123.602 254.975 123.317 255.347 122.942C255.654 122.64 255.896 122.28 256.061 121.883C256.227 121.486 256.311 121.061 256.309 120.631V117.859H253.609Z"
            fill="#7096E0" />
        <path
            d="M285.855 125.312C285.856 126.425 285.989 127.535 286.253 128.617H287.724C287.804 128.617 287.882 128.599 287.954 128.566C288.026 128.532 288.089 128.482 288.139 128.421C288.189 128.359 288.225 128.288 288.244 128.211C288.263 128.133 288.264 128.053 288.248 127.976C288.049 127.12 287.951 126.244 287.955 125.366C287.951 124.14 288.143 122.921 288.523 121.755C289.383 119.054 291.181 116.749 293.592 115.258C296.003 113.766 298.867 113.186 301.668 113.622C304.469 114.058 307.022 115.482 308.865 117.636C310.708 119.789 311.72 122.531 311.718 125.366C311.709 126.244 311.61 127.118 311.42 127.976C311.403 128.053 311.404 128.133 311.422 128.21C311.441 128.287 311.476 128.359 311.526 128.421C311.576 128.482 311.639 128.532 311.71 128.566C311.782 128.6 311.86 128.617 311.939 128.617H313.425C313.913 126.688 313.985 124.677 313.635 122.719C313.285 120.761 312.521 118.899 311.395 117.259C310.269 115.619 308.806 114.238 307.104 113.208C305.402 112.178 303.5 111.523 301.524 111.286C299.549 111.049 297.546 111.236 295.649 111.835C293.751 112.433 292.004 113.429 290.522 114.757C289.04 116.084 287.858 117.712 287.055 119.532C286.252 121.352 285.846 123.323 285.865 125.312H285.855Z"
            fill="#07336C" />
        <path d="M265.635 117.859H253.609V119.213H265.635V117.859Z" fill="#2246A8" />
        <path d="M351.657 79.2295L365.209 96.5285H367.48L353.928 79.2295H351.657Z" fill="#7096E0" />
        <path d="M341.342 79.2295V81.9607L352.162 96.5285H356.708L343.156 79.2295H341.342Z" fill="#7096E0" />
        <path d="M314.648 96.5283L308.048 88.1045V93.8513L310.102 96.5283H314.648Z" fill="#7096E0" />
        <path d="M296.844 79.2295L302.947 87.1973V81.595L301.096 79.2295H296.844Z" fill="#7096E0" />
        <path d="M308.721 79.2295L322.269 96.5285H324.539L310.996 79.2295H308.721Z" fill="#7096E0" />
        <path d="M269.026 79.3149L279.283 92.217V89.6393L271.084 79.3149H269.026Z" fill="#7096E0" />
        <path d="M272.66 120.392L267.243 113.606V116.18L270.606 120.392H272.66Z" fill="#7096E0" />
        <path d="M255.217 98.5508V101.128L261.501 108.992H263.555L255.217 98.5508Z" fill="#7096E0" />
        <path d="M279.283 100.551L267.293 85.5405V90.6914L279.283 105.702V100.551Z" fill="#7096E0" />
        <path d="M258.138 79.2295L264.029 86.606V81.4596L262.255 79.2295H258.138Z" fill="#7096E0" />
        <path
            d="M261.184 75.1979V73.6855H251.668C251.351 73.6855 251.037 73.748 250.744 73.8694C250.451 73.9908 250.185 74.1687 249.96 74.3929C249.736 74.6172 249.558 74.8835 249.437 75.1765C249.315 75.4695 249.253 75.7836 249.253 76.1007V80.6151H250.765V76.1007C250.765 75.8613 250.86 75.6316 251.03 75.4623C251.199 75.293 251.429 75.1979 251.668 75.1979H261.184Z"
            fill="#2644BB" />
        <path
            d="M249.673 85.0845H250.102C250.473 85.0845 250.774 84.7833 250.774 84.4118V76.9135C250.774 76.542 250.473 76.2408 250.102 76.2408H249.673C249.301 76.2408 249 76.542 249 76.9135V84.4118C249 84.7833 249.301 85.0845 249.673 85.0845Z"
            fill="#073D84" />
    </g>
    <defs>
        <clipPath id="clip0_2529_20969">
            <rect width="368" height="158" fill="white" />
        </clipPath>
    </defs>
</svg>