<svg width="16" height="16" viewBox="0 0 16 16" fill="none" xmlns="http://www.w3.org/2000/svg">
    <path
        d="M4.19534 3.47156L6.52867 5.8049C6.61033 5.88628 6.71168 5.94512 6.82284 5.97569C6.934 6.00625 7.05119 6.00749 7.16298 5.97929C7.27476 5.95109 7.37734 5.89442 7.4607 5.81478C7.54407 5.73515 7.60538 5.63527 7.63867 5.5249L8.63867 2.19156C8.67322 2.07628 8.67592 1.95379 8.64648 1.8371C8.61705 1.72041 8.55657 1.61386 8.47147 1.52876C8.38637 1.44366 8.27982 1.38318 8.16313 1.35375C8.04644 1.32431 7.92395 1.32701 7.80867 1.36156L4.47533 2.36156C4.36521 2.39517 4.26562 2.45665 4.18623 2.54004C4.10683 2.62343 4.05032 2.72592 4.02215 2.83756C3.99399 2.94921 3.99513 3.06623 4.02547 3.17731C4.05582 3.28838 4.11432 3.38974 4.19534 3.47156Z"
        fill="#0085FF" />
    <path
        d="M3.30667 5.43812C2.168 6.43878 2.00533 8.21678 2.94133 9.41678C3.884 10.6248 5.60133 10.8214 6.77867 9.85545L10.032 7.18612C10.1779 7.06626 10.3464 6.97697 10.5275 6.92357C10.7086 6.87017 10.8986 6.85374 11.0862 6.87526C11.2738 6.89678 11.4552 6.95581 11.6195 7.04884C11.7838 7.14187 11.9277 7.267 12.0427 7.41678C12.542 8.05678 12.454 9.01678 11.8473 9.55012L11.152 10.1608C10.8793 10.4008 10.848 10.8208 11.0813 11.1008C11.3147 11.3808 11.7253 11.4128 11.998 11.1728L12.6933 10.5621C13.832 9.56078 13.9953 7.78478 13.058 6.58345C12.1167 5.37678 10.3967 5.17945 9.22067 6.14478L5.96733 8.81412C5.82151 8.93415 5.65301 9.02358 5.47187 9.07709C5.29074 9.1306 5.10068 9.14708 4.91304 9.12555C4.7254 9.10403 4.54402 9.04493 4.3797 8.9518C4.21539 8.85866 4.07152 8.73339 3.95667 8.58345C3.45867 7.94478 3.546 6.98345 4.152 6.45012L4.51333 6.17345C4.786 5.93345 4.82 5.51345 4.58667 5.23345C4.53186 5.16707 4.46427 5.11239 4.38791 5.07263C4.31156 5.03288 4.228 5.00887 4.14219 5.00203C4.05638 4.99519 3.97007 5.00566 3.88839 5.03282C3.8067 5.05997 3.7313 5.10326 3.66667 5.16012L3.30667 5.43812Z"
        fill="#0085FF" />
    <path
        d="M6.66667 12.6665C6.66667 12.1361 6.87738 11.6274 7.25245 11.2523C7.62753 10.8772 8.13623 10.6665 8.66667 10.6665C9.1971 10.6665 9.70581 10.8772 10.0809 11.2523C10.456 11.6274 10.6667 12.1361 10.6667 12.6665C10.6667 13.1969 10.456 13.7056 10.0809 14.0807C9.70581 14.4558 9.1971 14.6665 8.66667 14.6665C8.13623 14.6665 7.62753 14.4558 7.25245 14.0807C6.87738 13.7056 6.66667 13.1969 6.66667 12.6665Z"
        fill="#0085FF" />
</svg>