<svg width="368" height="158" viewBox="0 0 368 158" fill="none" xmlns="http://www.w3.org/2000/svg">
    <g clip-path="url(#clip0_4778_67830)">
        <rect width="368" height="158" fill="#648BDC" />
        <path
            d="M391 125.653C390.727 126.507 390.446 127.355 390.16 128.196C390.04 128.553 389.909 128.905 389.794 129.262C389.294 130.693 388.759 132.103 388.213 133.483C387.912 134.24 387.604 134.989 387.29 135.728C386.54 137.487 385.749 139.189 384.921 140.83C384.741 141.187 384.559 141.542 384.379 141.891C383.436 143.681 382.45 145.388 381.409 146.991C381.189 147.333 380.964 147.668 380.737 147.997C379.53 149.791 378.192 151.493 376.734 153.087C376.281 153.59 375.821 154.055 375.353 154.505C373.102 156.697 370.658 158.429 368.042 159.585C367.851 159.671 367.661 159.751 367.466 159.837L367.321 159.897L217.141 160L-0.168625 158.69C-0.457127 158.049 -0.743141 157.397 -1.02664 156.737C-1.25844 156.203 -1.48942 155.661 -1.71955 155.113C-1.88631 154.703 -2.0589 154.284 -2.23734 153.856C-3.63566 150.465 -4.98895 146.871 -6.26969 143.1C-9.64667 133.098 -12.3858 121.867 -13.4839 109.969C-14.6246 97.612 -13.9842 84.5382 -10.4546 71.3788C-9.35186 67.2791 -7.98828 63.2547 -6.37226 59.3306C-2.62007 50.1957 2.71556 41.1136 9.99231 32.2955C10.5101 32.2101 11.0329 32.1271 11.5607 32.0441C12.006 31.9738 12.4537 31.9059 12.904 31.8431C15.0719 31.5263 17.1507 31.1518 19.1401 30.7194V53.5138H29.0534V48.1998L40.7453 48.2476V39.6205H43.0992V37.9112H43.4093V39.6205H54.2432V37.9087H54.5533V39.6205H56.7296V56.7792H70.6478V63.0936H78.3848V59.4286H85.559V44.8692H89.136V38.0821H89.6789V44.8692H98.2564V32.1397H99.0944V44.8692H104.765V19.9029H106.456V18H106.726V19.9029H119.251V18H119.521V19.9029H121.805V33.2105H123.416H123.404V30.6666H123.416V28.907H123.404V26.3682H123.416V24.6086H123.404V22.0747H141.212L141.617 22.482V36.8102H152.718V55.8818H161.686V20.6042H163.637V18.1433H163.987V20.6118H171.071V18.1433H171.424V20.6118H181.453V18.1433H181.803V20.6118H188.114V18.1433H188.464V20.6118H191.058V53.5415H200.969V48.1998L212.661 48.2476V39.6205H215.015V37.9112H215.325V39.6205H226.154V37.9087H226.469V39.6205H228.645V56.7792H242.566V63.0936H250.3V59.4286H257.474V44.8692H261.052V38.0821H261.592V44.8692H270.169V32.1397H271.01V44.8692H276.683V19.9029H278.374V18H278.644V19.9029H291.167V18H291.439V19.9029H293.726V33.2105H295.334H295.319V30.6666H295.334V28.907H295.319V26.3682H295.334V24.6086H295.319V22.0747H313.129L313.535 22.2784V36.8001H332.168V55.8717H341.138V20.6042H343.09V18.1433H343.44V20.6118H350.521V18.1433H350.872V20.6118L376.924 19.9029C377.027 21.8661 377.074 23.7338 377.082 25.4808C377.082 26.5291 377.082 27.5345 377.057 28.4973C377.014 30.6088 376.917 32.4891 376.807 34.0778C376.717 35.3346 376.617 36.4004 376.527 37.2651C376.354 38.9041 376.206 39.8115 376.206 39.8115C376.206 39.8115 375.806 41.1916 375.338 42.8456C375.028 43.9416 374.691 45.1582 374.418 46.1738C374.263 46.7494 374.13 47.2647 374.035 47.6543C373.702 49.057 373.401 50.4236 373.135 51.7542C372.93 52.7798 372.749 53.7853 372.592 54.7707C372.502 55.3111 372.422 55.8466 372.342 56.3769C372.234 57.1311 372.142 57.85 372.064 58.5714C371.996 59.1731 376.784 56.7775 376.734 57.3623C376.357 61.3524 369.518 69.0693 370 73.0479C371.814 87.2555 363.501 95.9479 371.881 104.105C374.438 106.591 377.059 109.024 379.601 111.553C379.911 111.86 380.224 112.171 380.531 112.483C381.062 113.019 381.587 113.562 382.107 114.112L382.317 114.336C384.403 116.515 386.344 118.828 388.131 121.261C388.536 121.812 388.926 122.375 389.309 122.948C389.759 123.618 390.195 124.306 390.617 125.012C390.745 125.228 390.872 125.434 391 125.653Z"
            fill="#3B61CB" />
        <path d="M191.061 20.6017H168.655V26.1822H191.061V20.6017Z" fill="#3B61CB" />
        <path d="M191.061 29.1911H168.655V34.7715H191.061V29.1911Z" fill="#3B61CB" />
        <path d="M191.061 37.9615H168.655V43.5419H191.061V37.9615Z" fill="#3B61CB" />
        <path d="M191.061 46.8701H168.655V52.4505H191.061V46.8701Z" fill="#3B61CB" />
        <path d="M191.061 55.4645H168.655V61.0449H191.061V55.4645Z" fill="#3B61CB" />
        <path d="M287.169 19.9029H276.716V23.2914H287.169V19.9029Z" fill="#3B61CB" />
        <path d="M287.169 25.1189H276.716V28.5074H287.169V25.1189Z" fill="#3B61CB" />
        <path d="M287.169 30.4454H276.716V33.8339H287.169V30.4454Z" fill="#3B61CB" />
        <path d="M287.169 35.855H276.716V39.2434H287.169V35.855Z" fill="#3B61CB" />
        <path d="M287.169 41.0759H276.716V44.4644H287.169V41.0759Z" fill="#3B61CB" />
        <path d="M287.169 46.8198H276.716V50.2083H287.169V46.8198Z" fill="#3B61CB" />
        <path d="M287.169 52.0383H276.716V55.4268H287.169V52.0383Z" fill="#3B61CB" />
        <path d="M287.169 57.3623H276.716V60.7508H287.169V57.3623Z" fill="#3B61CB" />
        <path d="M287.169 62.7744H276.716V66.1629H287.169V62.7744Z" fill="#3B61CB" />
        <path d="M287.169 67.9928H276.716V71.3813H287.169V67.9928Z" fill="#3B61CB" />
        <path d="M306.516 22.125H295.312V25.5135H306.516V22.125Z" fill="#3B61CB" />
        <path d="M306.516 27.341H295.312V30.7295H306.516V27.341Z" fill="#3B61CB" />
        <path d="M306.516 32.6676H295.312V36.0561H306.516V32.6676Z" fill="#3B61CB" />
        <path d="M306.516 38.0771H295.312V41.4656H306.516V38.0771Z" fill="#3B61CB" />
        <path d="M306.516 43.2981H295.312V46.6866H306.516V43.2981Z" fill="#3B61CB" />
        <path d="M306.516 48.7403H295.312V52.1288H306.516V48.7403Z" fill="#3B61CB" />
        <path d="M306.516 53.9562H295.312V57.3447H306.516V53.9562Z" fill="#3B61CB" />
        <path d="M306.516 59.2828H295.312V62.6713H306.516V59.2828Z" fill="#3B61CB" />
        <path d="M306.516 64.6923H295.312V68.0808H306.516V64.6923Z" fill="#3B61CB" />
        <path d="M306.516 69.9133H295.312V73.3018H306.516V69.9133Z" fill="#3B61CB" />
        <path d="M306.516 75.901H295.312V79.2895H306.516V75.901Z" fill="#3B61CB" />
        <path d="M306.516 81.117H295.312V84.5055H306.516V81.117Z" fill="#3B61CB" />
        <path d="M306.516 86.4436H295.312V89.832H306.516V86.4436Z" fill="#3B61CB" />
        <path d="M306.516 91.8531H295.312V95.2416H306.516V91.8531Z" fill="#3B61CB" />
        <path d="M306.516 97.0741H295.312V100.463H306.516V97.0741Z" fill="#3B61CB" />
        <path
            d="M377.044 28.4948C377.002 30.6063 376.904 32.4866 376.794 34.0752L350.099 34.7841V29.2036L377.044 28.4948Z"
            fill="#3B61CB" />
        <path
            d="M376.522 37.2526C376.349 38.8915 376.201 39.799 376.201 39.799C376.201 39.799 375.801 41.179 375.333 42.833L350.106 43.5419V37.9615L376.522 37.2526Z"
            fill="#3B61CB" />
        <path
            d="M374.413 46.1612C374.258 46.7368 374.125 47.2521 374.03 47.6418C373.697 49.0444 373.396 50.4111 373.13 51.7416L350.106 52.4505V46.8701L374.413 46.1612Z"
            fill="#3B61CB" />
        <path d="M115.869 19.9029H104.665V23.2914H115.869V19.9029Z" fill="#3B61CB" />
        <path d="M115.869 25.1189H104.665V28.5074H115.869V25.1189Z" fill="#3B61CB" />
        <path d="M115.869 30.4454H104.665V33.8339H115.869V30.4454Z" fill="#3B61CB" />
        <path d="M115.869 35.855H104.665V39.2434H115.869V35.855Z" fill="#3B61CB" />
        <path d="M115.869 41.0759H104.665V44.4644H115.869V41.0759Z" fill="#3B61CB" />
        <path d="M115.869 46.8198H104.665V50.2083H115.869V46.8198Z" fill="#3B61CB" />
        <path d="M115.869 52.0383H104.665V55.4268H115.869V52.0383Z" fill="#3B61CB" />
        <path d="M115.869 57.3623H104.665V60.7508H115.869V57.3623Z" fill="#3B61CB" />
        <path d="M115.869 62.7744H104.665V66.1629H115.869V62.7744Z" fill="#3B61CB" />
        <path d="M115.869 67.9928H104.665V71.3813H115.869V67.9928Z" fill="#3B61CB" />
        <path d="M136.369 22.125H123.636V25.5135H136.369V22.125Z" fill="#3B61CB" />
        <path d="M136.369 27.341H123.636V30.7295H136.369V27.341Z" fill="#3B61CB" />
        <path d="M136.369 32.6676H123.636V36.0561H136.369V32.6676Z" fill="#3B61CB" />
        <path d="M136.369 38.0771H123.636V41.4656H136.369V38.0771Z" fill="#3B61CB" />
        <path d="M136.369 43.2981H123.636V46.6866H136.369V43.2981Z" fill="#3B61CB" />
        <path d="M136.369 48.7403H123.636V52.1288H136.369V48.7403Z" fill="#3B61CB" />
        <path d="M136.369 53.9562H123.636V57.3447H136.369V53.9562Z" fill="#3B61CB" />
        <path d="M136.369 59.2828H123.636V62.6713H136.369V59.2828Z" fill="#3B61CB" />
        <path d="M136.369 64.6923H123.636V68.0808H136.369V64.6923Z" fill="#3B61CB" />
        <path d="M136.369 69.9133H123.636V73.3018H136.369V69.9133Z" fill="#3B61CB" />
        <path d="M136.369 75.901H123.636V79.2895H136.369V75.901Z" fill="#3B61CB" />
        <path d="M136.369 81.117H123.636V84.5055H136.369V81.117Z" fill="#3B61CB" />
        <path d="M136.369 86.4436H123.636V89.832H136.369V86.4436Z" fill="#3B61CB" />
        <path d="M136.369 91.8531H123.636V95.2416H136.369V91.8531Z" fill="#3B61CB" />
        <path d="M136.369 97.0741H123.636V100.463H136.369V97.0741Z" fill="#3B61CB" />
        <path
            d="M398.424 123.133C398.054 129.25 396.9 136.14 394.768 143.981C393.674 148.008 391.284 151.563 387.969 154.097C384.654 156.63 380.596 158.002 376.424 158L199.215 157.917H196.871H180.154H178.007H162.052H159.324H137.093H133.174H115.044H110.115L78.8665 157.901H73.4087H47.9049H44.1464L3.74561 157.882C-1.07248 157.881 -5.80322 156.595 -9.95976 154.158C-14.1163 151.721 -17.5485 148.22 -19.9032 144.016C-23.6691 137.274 -27.0404 130.319 -30 123.187L398.424 123.133Z"
            fill="#3E65CE" />
        <path d="M389.601 139.966L367.021 139.577L370.094 137.493L392.675 137.883L389.601 139.966Z" fill="#6B91DE" />
    </g>
    <path
        d="M137.58 75.0196C139.11 77.0183 139.956 79.5767 139.807 82.3626C139.465 88.7569 134.024 93.9411 127.652 93.9411C121.281 93.9411 116.394 88.7569 116.735 82.3626C116.882 79.5723 118.98 78.2131 120.723 76.2143C121.976 74.7787 121.465 71.8165 121.063 70.0263C120.922 69.3948 120.758 68.6429 120.642 67.8608C121.677 68.2008 122.617 67.9732 123.47 67.2C122.935 67.278 122.39 67.2465 121.868 67.1074C121.443 66.9914 121.074 66.7253 120.83 66.3582C120.585 65.991 120.481 65.5475 120.537 65.1094C120.716 63.6371 121.418 62.4769 123.216 62.4035C126.936 62.2441 124.963 58.2011 124.917 56.04C124.871 53.879 127.86 44.6583 129.931 51.3654C130.671 53.76 134.601 56.1737 134.321 58.3354C134.041 60.4972 132.696 62.5012 135.62 63.3772C137.441 63.9228 137.793 65.3356 137.587 66.9672C137.512 67.6079 137.232 68.2071 136.79 68.6751C136.347 69.143 135.766 69.4545 135.132 69.563C134.534 69.664 133.923 69.6662 133.324 69.5696C134.223 70.4573 135.333 70.7657 136.694 70.3773C136.244 72.0471 136.552 73.6773 137.581 75.0203L137.58 75.0196Z"
        fill="#4C75E8" />
    <path d="M129.611 58.5218C129.56 55.9913 128.725 56.1889 128.679 58.5218L127.763 104.73H130.527L129.611 58.5218Z"
        fill="#2246A8" />
    <path
        d="M129.073 74.4361L123.049 69.296C122.567 68.8855 122.787 68.7203 123.238 69.0713L129.384 73.8567L129.073 74.4354L129.073 74.4361Z"
        fill="#2246A8" />
    <path
        d="M129.11 62.6235L132.433 59.2171C132.872 58.764 132.671 58.6135 132.244 58.9931L128.8 62.0471L129.11 62.6235Z"
        fill="#2246A8" />
    <path
        d="M247.165 79.3362C248.645 81.1455 249.582 83.3395 249.868 85.6628C250.154 87.986 249.776 90.343 248.779 92.4592C247.782 94.5754 246.207 96.3639 244.236 97.6163C242.266 98.8688 239.982 99.5337 237.649 99.5337C235.317 99.5337 233.033 98.8688 231.062 97.6163C229.092 96.3639 227.517 94.5754 226.52 92.4592C225.523 90.343 225.145 87.986 225.431 85.6628C225.717 83.3395 226.654 81.1455 228.134 79.3362C230.575 76.3557 226.603 72.7759 226.603 69.7991C226.603 64.6266 232.885 65.8066 232.564 61.5286C232.538 60.9821 232.572 60.4344 232.666 59.8955C233.505 60.4345 234.382 60.4976 235.291 60.1554C234.901 60.0665 234.527 59.9216 234.178 59.7251C233.782 59.5039 233.474 59.1506 233.309 58.7263C233.144 58.3019 233.131 57.833 233.273 57.4003C234.224 54.4323 235.95 51.57 237.317 52.9761C239.662 55.3891 242.957 58.5569 242.735 61.5286C242.611 63.1734 243.101 64.634 244.187 65.8705C245.543 67.4126 247.845 69.5861 247.845 71.8037C247.843 72.2007 247.79 72.5957 247.685 72.9786C247.615 73.248 247.452 73.4838 247.225 73.6438C246.998 73.8038 246.722 73.8778 246.446 73.8524C246.142 73.8261 245.842 73.7698 245.549 73.6843C245.841 74.2379 246.354 74.5272 247.041 74.5941C246.322 76.0891 245.601 77.4226 247.166 79.334L247.165 79.3362Z"
        fill="#4C75E8" />
    <path
        d="M237.21 73.9183L233.086 68.7841C232.635 68.2223 232.903 68.0703 233.351 68.5241L237.615 72.8565L237.21 73.9213V73.9183Z"
        fill="#2246A8" />
    <path
        d="M237.826 77.8077L242.682 70.9691C243.213 70.2208 242.861 70.0475 242.327 70.6585L237.232 76.4852L237.826 77.8069L237.826 77.8077Z"
        fill="#2246A8" />
    <path
        d="M237.035 64.2136C237.055 62.7935 238.022 62.9198 238.04 64.2136L238.625 106.901H236.448L237.033 64.2136H237.035Z"
        fill="#2246A8" />
    <path
        d="M86.1763 112.028C78.1514 110.066 73.6587 103.069 72.3821 96.2841C73.6482 96.0117 74.7976 95.3485 75.6691 94.3874C75.1433 94.492 74.6113 94.5622 74.0765 94.5974C73.8129 94.6118 73.5491 94.5729 73.3008 94.4828C73.0526 94.3927 72.825 94.2533 72.6316 94.073C72.4381 93.8927 72.2829 93.6752 72.175 93.4333C72.0672 93.1915 72.009 92.9304 72.0038 92.6654C71.9139 88.0393 73.4027 83.9889 76.362 82.3632C79.142 80.8373 78.8296 77.2583 78.0358 74.4018C79.5144 74.3688 80.8101 73.9568 81.8723 73.0661C81.0048 73.1435 80.1313 73.1221 79.2686 73.0023C78.7832 72.9337 78.3344 72.7046 77.9933 72.3512C77.6522 71.9978 77.4383 71.5404 77.3855 71.0512C76.9275 67.1271 77.4747 62.7653 80.8144 62.2337C83.6874 61.7762 83.1702 58.2016 82.9858 55.7432C82.868 54.1732 83.4116 52.6429 84.2295 51.1251C84.9428 51.786 85.8178 52.101 86.9006 51.9534C86.6519 51.7979 86.4211 51.6154 86.2121 51.4093C85.8178 51.0257 85.5704 50.5151 85.5131 49.9669C85.4559 49.4187 85.5925 48.8678 85.899 48.4104C87.2942 46.2897 88.7771 44.1603 89.2695 41.9412C90.0742 38.3218 95.4617 45.9189 97.4904 51.5371C97.6085 51.8643 97.6533 52.2135 97.6215 52.5601C97.5898 52.9066 97.4824 53.2419 97.307 53.542C97.1315 53.8421 96.8923 54.0998 96.6064 54.2966C96.3204 54.4934 95.9948 54.6245 95.6526 54.6806C95.2432 54.7457 94.8304 54.7869 94.4163 54.804C95.6227 55.3841 96.8649 55.752 98.2564 55.2167C98.2493 55.3934 98.2265 55.5691 98.1884 55.7417C97.0354 60.7049 96.6586 62.1096 100.777 64.3859C102.5 65.3405 103.391 66.5793 103.748 68.034C103.862 68.5036 103.788 68.9995 103.542 69.415C103.296 69.8304 102.897 70.1322 102.431 70.2552C101.759 70.4236 101.07 70.5133 100.377 70.5225C101.407 71.11 102.532 71.4147 103.839 71.1672C103.708 72.1886 103.453 73.2703 103.139 74.3982C102.345 77.2546 102.936 80.0685 104.813 82.3595C107.522 85.6612 109 89.8074 108.993 94.0849C108.993 103.043 102.644 110.506 94.2151 112.198C91.1885 112.805 89.1671 112.76 86.1741 112.028H86.1763Z"
        fill="#4C75E8" />
    <path d="M89.835 57.9176C89.9081 54.3195 91.0933 54.6029 91.1584 57.9176L92.4606 123.571H88.5327L89.835 57.9176Z"
        fill="#2246A8" />
    <path
        d="M90.5664 74.9534L99.1261 67.6508C99.8101 67.067 99.4977 66.8328 98.8568 67.3321L90.1245 74.131L90.5664 74.9534Z"
        fill="#2246A8" />
    <path
        d="M90.2884 61.5458L85.5667 56.7031C84.939 56.0591 85.2287 55.8454 85.836 56.3844L90.7325 60.7234L90.2884 61.5458Z"
        fill="#2246A8" />
    <path
        d="M89.9271 99.2292L77.2083 88.3784C76.1921 87.5112 76.6567 87.1631 77.6085 87.9047L90.5855 98.008L89.9271 99.2299V99.2292Z"
        fill="#2246A8" />
    <path
        d="M89.9555 82.0821L85.0875 77.9289C84.4034 77.3451 84.6997 77.1336 85.3567 77.6102L90.3974 81.2597L89.9555 82.0821Z"
        fill="#2246A8" />
    <path
        d="M290.648 85.9076C291.98 87.5333 293.835 90.497 294.974 93.8197C295.118 94.2351 295.109 94.6889 294.948 95.0982C294.787 95.5074 294.484 95.8447 294.096 96.0483C293.519 96.3531 292.865 96.5293 292.152 96.6079C293.383 97.1388 294.587 97.2504 295.749 96.7378C296.067 98.4833 296.111 100.249 295.719 101.907C293.578 110.982 286.94 113.505 277.649 113.505C268.357 113.505 260.824 105.947 260.824 96.6218C260.819 92.7136 262.169 88.9254 264.645 85.9083C266.359 83.8141 266.9 81.2426 266.174 78.6314C265.094 74.744 264.784 68.4422 268.714 67.5089C274.358 66.1673 270.867 63.8234 270.699 61.5764C270.394 57.5194 278.766 44.9503 280.209 48.7628C281.482 52.1201 282.976 54.4272 283.919 56.4334C284.263 57.1598 284.329 57.9879 284.104 58.7598C283.879 59.5317 283.378 60.1935 282.698 60.6189C282.625 60.6678 282.548 60.7131 282.47 60.7547C283.312 60.7621 284.126 60.6306 284.852 60.0579C284.835 60.5731 284.748 61.0835 284.593 61.575C283.316 65.7003 284.527 68.8629 286.369 70.1509C290.217 72.8392 290.198 74.7425 289.117 78.6299C288.391 81.2411 288.932 83.8126 290.647 85.9069L290.648 85.9076Z"
        fill="#4C75E8" />
    <path d="M277.043 63.6752C277.108 60.3958 278.19 60.6514 278.25 63.6752L279.439 123.571H275.854L277.043 63.6752Z"
        fill="#2246A8" />
    <path
        d="M277.308 66.0853L272.733 61.1464C272.407 60.7939 272.684 60.5193 273.049 60.8688L277.377 65.0073L277.308 66.0853Z"
        fill="#2246A8" />
    <path
        d="M277.788 82.3305L285.278 74.2436C285.812 73.6664 285.36 73.2156 284.762 73.7883L277.675 80.5652L277.788 82.3305Z"
        fill="#2246A8" />
    <path
        d="M277.896 108.168L288.681 96.5225C289.45 95.6913 288.799 95.0437 287.937 95.8675L277.732 105.626L277.896 108.168Z"
        fill="#2246A8" />
    <path
        d="M276.757 96.7634L267.82 87.1132C267.183 86.4244 267.723 85.8884 268.437 86.5706L276.893 94.6567L276.758 96.7634H276.757Z"
        fill="#2246A8" />
    <path d="M271.744 79.7012H96.9033V123.573H271.744V79.7012Z" fill="#567DD6" />
    <path d="M273.337 76.2178H95.3096V81.9307H273.337V76.2178Z" fill="#073D84" />
    <path d="M217.79 56.3936H150.857V127H217.79V56.3936Z" fill="#567DD6" />
    <path d="M218.475 53.2529H150.173V59.308H218.475V53.2529Z" fill="#073D84" />
    <path d="M214.093 83.585H154.554V87.9276H214.093V83.585Z" fill="#073D84" />
    <path d="M210.106 90.6699H158.541V127H210.106V90.6699Z" fill="#86A6E7" />
    <path d="M181.226 61.4668H159.144V80.3179H181.226V61.4668Z" fill="#2246A8" />
    <path d="M179.86 62.8379H160.51V78.9471H179.86V62.8379Z" fill="#7096E0" />
    <path d="M176.636 66.7793H163.735V75.005H176.636V66.7793Z" fill="#86A6E7" />
    <path d="M209.503 61.4668H187.42V80.3179H209.503V61.4668Z" fill="#2246A8" />
    <path d="M208.138 62.8379H188.787V78.9471H208.138V62.8379Z" fill="#7096E0" />
    <path d="M204.912 66.7793H192.011V75.005H204.912V66.7793Z" fill="#86A6E7" />
    <path d="M102.893 88.9004H120.827V115.749H102.893V88.9004Z" fill="#2246A8" />
    <path d="M104.002 90.0137H119.718V114.636H104.002V90.0137Z" fill="#7096E0" />
    <path d="M106.622 93.2139H117.099V111.433H106.622V93.2139Z" fill="#86A6E7" />
    <path d="M126 89H144V116H126V89Z" fill="#2246A8" />
    <path d="M127 90H142.715V114.622H127V90Z" fill="#7096E0" />
    <path d="M129.957 93.2139H140.434V111.433H129.957V93.2139Z" fill="#86A6E7" />
    <path d="M224.486 88.9004H242.419V115.749H224.486V88.9004Z" fill="#2246A8" />
    <path d="M225.595 90.0137H241.311V114.636H225.595V90.0137Z" fill="#7096E0" />
    <path d="M228.213 93.2139H238.69V111.433H228.213V93.2139Z" fill="#86A6E7" />
    <path d="M247.821 88.9004H265.755V115.749H247.821V88.9004Z" fill="#2246A8" />
    <path d="M248.93 90.0137H264.646V114.636H248.93V90.0137Z" fill="#7096E0" />
    <path d="M251.549 93.2139H262.026V111.433H251.549V93.2139Z" fill="#86A6E7" />
    <path d="M96.9033 81.9307H150.857V83.6629H96.9033V81.9307ZM217.79 81.9307H271.743V83.6629H217.791V81.9307H217.79Z"
        fill="#2246A8" />
    <path d="M150.857 59.3086H217.79V60.7038H150.857V59.3086ZM154.555 87.9281H214.093V89.5531H154.554V87.9281H154.555Z"
        fill="#2246A8" />
    <path
        d="M184.324 62.2301C189.63 62.2301 193.932 57.9128 193.932 52.5872C193.932 47.2616 189.63 42.9443 184.324 42.9443C179.018 42.9443 174.717 47.2616 174.717 52.5872C174.717 57.9128 179.018 62.2301 184.324 62.2301Z"
        fill="#2246A8" />
    <path
        d="M184.324 60.5187C188.688 60.5187 192.226 56.9678 192.226 52.5875C192.226 48.2072 188.688 44.6562 184.324 44.6562C179.96 44.6562 176.422 48.2072 176.422 52.5875C176.422 56.9678 179.96 60.5187 184.324 60.5187Z"
        fill="#7096E0" />
    <path
        d="M182.106 46.6396H186.542V50.3611H190.25V54.8132H186.542V58.5354H182.106V54.8132H178.398V50.3611H182.106V46.6396Z"
        fill="#2246A8" />
    <defs>
        <clipPath id="clip0_4778_67830">
            <rect width="368" height="158" fill="white" />
        </clipPath>
    </defs>
</svg>