<svg width="109" height="49" viewBox="0 0 109 49" fill="none" xmlns="http://www.w3.org/2000/svg">
    <path
        d="M76.8866 16.429C76.7808 16.5431 76.6645 16.6439 76.5375 16.7315L79.4732 22.5732C79.5605 22.4299 79.6637 22.3025 79.7774 22.183L76.8866 16.429Z"
        stroke="#666666" stroke-width="0.25" stroke-miterlimit="10" />
    <path
        d="M77.4447 14.3003L82.1948 14.6056L82.3058 14.1517L77.6299 13.8518L77.3627 14.0111C77.3971 14.1039 77.4183 14.2021 77.4447 14.3003Z"
        stroke="#666666" stroke-width="0.25" stroke-miterlimit="10" />
    <path
        d="M96.7517 16.1558C96.675 16.2911 96.5877 16.4185 96.4899 16.538L99.7271 20.0679L99.9783 19.6751L96.7517 16.1558Z"
        stroke="#666666" stroke-width="0.25" stroke-miterlimit="10" />
    <path
        d="M106.001 13.7458C105.551 13.7458 105.138 13.9077 104.805 14.1678L98.7935 8.25977C98.9257 8.06602 99.0315 7.85104 99.0923 7.61483C99.2299 7.08401 99.1585 6.53196 98.894 6.05688C98.6269 5.5818 98.1984 5.24207 97.6853 5.09875C97.1722 4.95543 96.6353 5.02975 96.1725 5.30312C95.8102 5.5181 95.5351 5.83924 95.3632 6.22143L86.8866 3.36297C86.9554 2.91709 86.8893 2.44466 86.6539 2.02532C86.1038 1.04596 84.8845 0.708886 83.9324 1.27421C83.1522 1.73867 82.8031 2.66495 82.9988 3.52487L76.1223 5.70123C76.1223 5.7145 76.125 5.73042 76.1276 5.74369L77.003 5.90294L83.1496 3.95749C83.1681 3.9973 83.1813 4.03977 83.2024 4.07958C83.3109 4.27598 83.4537 4.44053 83.615 4.58651L82.938 5.37477C83.2262 5.17041 83.5542 5.02709 83.906 4.9395L83.98 4.85192C84.0091 4.86784 84.0435 4.88377 84.0726 4.89704C84.2418 4.86519 84.4138 4.84661 84.591 4.84661C84.9454 4.84661 85.2839 4.91296 85.5986 5.0324L85.5854 4.98728C85.6621 4.95808 85.7388 4.92623 85.8102 4.88908L86.3021 5.4252C86.6142 5.65876 86.8866 5.94541 87.0903 6.28513L87.9287 7.19814L88.5714 7.22998L86.1911 4.63429C86.4555 4.40869 86.6512 4.12204 86.7729 3.80621L95.231 6.64343C95.1225 7.14505 95.1939 7.6626 95.4452 8.11114C95.6039 8.39247 95.8234 8.61807 96.0799 8.79324L94.2444 11.8693L94.3925 12.2621C94.4401 12.2595 94.4878 12.2568 94.5354 12.2542L96.4793 9.00026C96.5375 9.02415 96.5957 9.05069 96.6565 9.06927C96.8284 9.11704 97.003 9.14093 97.1749 9.14093C97.5213 9.14093 97.8599 9.04804 98.1693 8.8649C98.291 8.79059 98.4047 8.70566 98.5078 8.61011L104.49 14.4889C104.25 14.7835 104.091 15.1445 104.041 15.5452L103.422 15.5054C103.525 15.6541 103.615 15.8133 103.689 15.9832L104.035 16.0044C104.115 16.8166 104.646 17.4854 105.374 17.7375L104.305 23.1758C104.083 23.1625 103.861 23.2156 103.665 23.3323C103.596 23.3748 103.53 23.4226 103.472 23.4783L100.806 20.5694L100.555 20.9622L103.205 23.8525C103.176 23.9162 103.149 23.9826 103.131 24.0543C103.052 24.3595 103.091 24.678 103.245 24.9513C103.398 25.2247 103.647 25.4211 103.943 25.5034C103.988 25.5167 104.035 25.5167 104.08 25.522L104.028 26.9764C103.969 26.9711 103.914 26.9578 103.856 26.9578C102.758 26.9578 101.864 27.8788 101.864 29.0121C101.864 29.2642 101.914 29.5031 101.996 29.726L97.0929 34.9758L95.2865 33.7204C95.3367 33.5426 95.3711 33.3595 95.3711 33.1631C95.3711 32.0643 94.5301 31.1752 93.4775 31.1194L91.7874 25.5167C91.6446 25.5591 91.4992 25.5883 91.3458 25.5989L93.0199 31.146C92.6126 31.2229 92.2476 31.4247 91.9673 31.7166L86.847 26.78C86.8999 26.6871 86.9475 26.5889 86.9739 26.4827C87.0533 26.1775 87.0136 25.859 86.8602 25.5857C86.8179 25.5087 86.765 25.4397 86.7094 25.376L87.4288 24.171L86.8866 24.2029L86.3471 25.1079C86.0191 24.9513 85.6277 24.954 85.2892 25.153C85.0247 25.3123 84.8343 25.5671 84.7549 25.8723C84.7047 26.0687 84.7073 26.2731 84.7549 26.4642L83.377 27.263C83.0729 26.9339 82.6074 26.8092 82.1842 26.9525L81.7399 26.0714C81.6209 26.0926 81.4992 26.1032 81.3722 26.1032C81.3299 26.1032 81.2903 26.0926 81.2479 26.0899L81.7425 27.0746L76.8946 24.9673C76.7306 25.0761 76.5561 25.1637 76.3736 25.238L81.5494 27.4886C81.3537 27.8416 81.3352 28.2875 81.5468 28.6644C81.7584 29.0439 82.1472 29.2563 82.5439 29.2563C82.737 29.2563 82.9353 29.2058 83.1152 29.097C83.6097 28.8024 83.8081 28.1814 83.6097 27.6479L84.9427 26.8782C85.0961 27.0932 85.3103 27.2498 85.5642 27.3188C85.6621 27.3453 85.7626 27.3586 85.8631 27.3586C86.0615 27.3586 86.2572 27.3055 86.4344 27.1994C86.474 27.1755 86.5084 27.1463 86.5428 27.1197L91.6869 32.0802C91.4965 32.3961 91.3828 32.7623 91.3828 33.1604C91.3828 34.1849 92.1154 35.0289 93.0701 35.1828L92.9247 38.527C92.8295 38.5535 92.7343 38.588 92.6443 38.6411C92.0969 38.9676 91.9065 39.6921 92.2238 40.2575C92.3772 40.5308 92.6258 40.7272 92.922 40.8095C93.0199 40.8361 93.1204 40.8493 93.2209 40.8493C93.4193 40.8493 93.615 40.7962 93.7922 40.6901C94.0567 40.5308 94.2471 40.276 94.3264 39.9708C94.3396 39.9204 94.3449 39.8673 94.3529 39.8142L98.008 38.8296C98.3677 39.363 98.9654 39.7134 99.6425 39.7134C100.743 39.7134 101.634 38.7924 101.634 37.6591C101.634 37.1442 101.441 36.6771 101.137 36.3162L103.745 31.0478C103.782 31.0504 103.816 31.0584 103.853 31.0584C104.953 31.0584 105.844 30.1374 105.844 29.0041C105.844 28.0911 105.257 27.3214 104.456 27.056L104.517 25.4981C104.617 25.4715 104.718 25.4317 104.81 25.376C105.358 25.0495 105.548 24.325 105.231 23.7596C105.115 23.55 104.94 23.3881 104.734 23.2846L105.807 17.8278C105.874 17.8357 105.94 17.849 106.008 17.849C107.106 17.849 108 16.928 108 15.7947C107.995 14.6667 107.101 13.7458 106.001 13.7458ZM93.6996 38.5934C93.5938 38.5429 93.4801 38.5111 93.3664 38.4952L93.5092 35.1961C94.1995 35.1457 94.7866 34.737 95.1066 34.1451L96.7729 35.3049L93.6996 38.5934ZM97.643 37.6591C97.643 37.9245 97.6959 38.1767 97.7858 38.4102L94.3132 39.3471C94.2868 39.2516 94.255 39.1587 94.2048 39.0711C94.1625 38.9968 94.1149 38.9304 94.0593 38.8667L97.1431 35.565L98.1693 36.279C97.8466 36.6453 97.643 37.1256 97.643 37.6591ZM100.79 35.9924C100.465 35.7508 100.068 35.6048 99.6345 35.6048C99.2193 35.6048 98.8331 35.7376 98.5131 35.9632L97.4579 35.228L102.197 30.1534C102.451 30.5409 102.835 30.8248 103.279 30.9602L100.79 35.9924Z"
        stroke="#666666" stroke-width="0.25" stroke-miterlimit="10" />
    <path
        d="M76.6645 13.0478L77.2464 12.7001L81.359 7.90149L80.8459 7.80859L76.4714 12.9098C76.5376 12.9575 76.6037 12.9973 76.6645 13.0478Z"
        stroke="#666666" stroke-width="0.25" stroke-miterlimit="10" />
    <path
        d="M72.3853 23.0086L71.3723 22.568C71.375 22.5574 71.3802 22.5468 71.3829 22.5362C71.5204 22.0053 71.449 21.4533 71.1845 20.9782C71.0496 20.7393 70.8751 20.535 70.6688 20.3731L73.8875 16.6202C73.7711 16.5246 73.6627 16.4185 73.5675 16.3017L70.2774 20.1395C70.1795 20.0944 70.079 20.0519 69.9759 20.0227C69.4628 19.8821 68.9285 19.9537 68.471 20.2244L64.5673 14.7915C64.8556 14.5288 65.0618 14.1837 65.165 13.7909C65.1888 13.7007 65.1967 13.6078 65.21 13.5176L73.2052 14.0298C73.2633 13.8732 73.3374 13.7219 73.4273 13.5839L65.2205 13.0584C65.1994 12.8275 65.1333 12.6019 65.0354 12.3869L70.5868 8.61545C70.9386 8.9366 71.3961 9.13565 71.8986 9.13565C72.1631 9.13565 72.4144 9.07992 72.6445 8.98437L73.914 11.5111L73.2501 9.19139L73.0359 8.76408C73.0597 8.74816 73.0782 8.72958 73.102 8.711C71.7373 8.55441 70.6741 7.36272 70.6741 5.91625C70.6741 5.75435 70.69 5.5951 70.7164 5.44116C70.2298 5.81539 69.9071 6.40991 69.9071 7.08404C69.9071 7.52993 70.0499 7.94131 70.2853 8.27838L64.8027 11.9968C64.5382 11.6491 64.1785 11.3943 63.758 11.2775C63.2449 11.1368 62.708 11.2085 62.2451 11.4819C61.293 12.0472 60.9677 13.3052 61.5152 14.2872C61.7823 14.7623 62.2108 15.102 62.7239 15.2427C62.8958 15.2905 63.0703 15.3144 63.2422 15.3144C63.5755 15.3144 63.9034 15.2268 64.2023 15.0543L68.1113 20.4952C67.4422 21.1321 67.2597 22.1832 67.7331 23.0298C68.1007 23.688 68.7725 24.0569 69.4628 24.0569C69.8013 24.0569 70.1425 23.9694 70.4546 23.7836C70.7746 23.5925 71.0258 23.3165 71.2004 22.9927L72.5545 23.5819C72.4831 23.3961 72.4249 23.205 72.3853 23.0086Z"
        stroke="#666666" stroke-width="0.25" stroke-miterlimit="10" />
    <path d="M97.0082 15.5532L97.1157 15.5612L97.0161 15.5266C97.0135 15.5346 97.0109 15.5426 97.0082 15.5532Z"
        fill="#182D3A" />
    <path
        d="M14.7579 32.5632V48.5435H10.3702V42.3117H4.38771V46.4812C4.38771 47.6198 3.49112 48.5435 2.3856 48.5435H0V34.8192C0 33.5718 0.981215 32.5605 2.19253 32.5605H4.38771V38.5641H10.3702V32.5605H14.7579V32.5632Z"
        fill="#182D3A" />
    <path
        d="M27.6513 33.3038C28.8917 34.0124 29.8623 34.9971 30.5658 36.2604C31.2667 37.5238 31.6185 38.9543 31.6185 40.5521C31.6185 42.1498 31.2667 43.5804 30.5658 44.8437C29.865 46.1071 28.8943 47.0918 27.6513 47.8004C26.4109 48.509 25.0065 48.862 23.4408 48.862C22.0073 48.862 20.7193 48.6019 19.5741 48.0844C18.4289 47.5668 17.4794 46.821 16.7283 45.847L19.4974 43.2433C20.5315 44.4907 21.7719 45.1145 23.2186 45.1145C24.1496 45.1145 24.943 44.8517 25.6016 44.3262C26.2575 43.8007 26.7124 43.0735 26.9636 42.1472H21.3593V40.3875C21.3593 39.517 22.0443 38.8136 22.888 38.8136H26.9213C26.6701 37.9298 26.2205 37.2371 25.5698 36.7355C24.9192 36.2339 24.1364 35.9817 23.2213 35.9817C21.7746 35.9817 20.5341 36.6054 19.5 37.8529L16.7309 35.2492C17.4847 34.2752 18.4342 33.5294 19.5767 33.0118C20.7219 32.4943 22.0099 32.2368 23.4434 32.2368C25.0065 32.2421 26.4109 32.5951 27.6513 33.3038Z"
        fill="#182D3A" />
    <path
        d="M43.4724 36.1463H38.3072V46.8237C38.3072 47.7738 37.5613 48.5435 36.6383 48.5435H33.9856V34.2831C33.9856 33.3329 34.734 32.5632 35.6544 32.5632H45.3502L45.3396 34.2327C45.337 35.2916 44.5012 36.1463 43.4724 36.1463Z"
        fill="#182D3A" />
    <path
        d="M53.6731 42.7814H52.0651V48.3179C52.0651 48.6921 51.7689 48.9973 51.4065 48.9973H49.899V42.7814H47.5107V41.9852C47.5107 41.4332 47.9445 40.9846 48.4814 40.9846H54.4427V41.9879C54.4427 42.4258 54.0989 42.7814 53.6731 42.7814Z"
        fill="#182D3A" />
    <path
        d="M60.4332 47.4394H57.6588C57.3494 47.4394 57.069 47.6331 56.9526 47.9304L56.7516 48.4426C56.6194 48.7797 56.3047 48.9973 55.9529 48.9973H54.2893L57.4763 41.5579C57.6244 41.2102 57.9603 40.9846 58.3306 40.9846H59.8884L63.3319 48.9973H61.0441L60.4332 47.4394ZM59.7879 45.7673L58.7881 43.2034L57.7884 45.7673H59.7879Z"
        fill="#182D3A" />
    <path
        d="M69.608 41.3431C70.1264 41.5847 70.5257 41.927 70.8087 42.3729C71.0891 42.8188 71.2292 43.3443 71.2292 43.9468C71.2292 44.5493 71.0891 45.0721 70.8087 45.5154C70.5257 45.9586 70.1264 46.2983 69.608 46.5398C69.0896 46.7814 68.4786 46.9008 67.7751 46.9008H66.4184V48.3101C66.4184 48.687 66.1221 48.9949 65.7545 48.9949H64.2179V42.0783C64.2179 41.4732 64.694 40.9822 65.2837 40.9822H67.7751C68.4786 40.9848 69.0896 41.1043 69.608 41.3431ZM68.6638 44.812C68.8939 44.6103 69.0076 44.321 69.0076 43.9468C69.0076 43.5726 68.8939 43.2833 68.6638 43.0763C68.4337 42.8692 68.0925 42.7684 67.6429 42.7684H67.0981C66.7252 42.7684 66.421 43.0816 66.421 43.4664V45.1146H67.6429C68.0925 45.1172 68.4337 45.0164 68.6638 44.812Z"
        fill="#182D3A" />
    <path
        d="M73.9851 40.9714L75.3736 43.1451L76.7516 40.9714H79.3064L76.7516 44.8066L79.5286 48.9974H76.9393L75.3736 46.6273L73.8185 48.9974H71.2848L74.0512 44.9101L71.462 40.9714H73.9851Z"
        fill="#182D3A" />
    <path
        d="M81.1022 40.9846H82.3717V45.6903L85.3286 41.3588C85.4873 41.1253 85.7465 40.9873 86.0242 40.9873H87.6481V48.0418C87.6481 48.57 87.2328 49 86.7197 49H85.482V44.3075L82.5383 48.6257C82.3796 48.8593 82.1178 49 81.8401 49H80.2056V41.9109C80.2056 41.396 80.6076 40.9846 81.1022 40.9846Z"
        fill="#182D3A" />
    <path
        d="M49.214 38.933C48.6904 38.6464 48.2778 38.2456 47.9789 37.7334C47.6801 37.2211 47.5293 36.6399 47.5293 35.9923C47.5293 35.3447 47.6801 34.7634 47.9789 34.2512C48.2778 33.739 48.6904 33.3382 49.214 33.0515C49.7377 32.7649 50.3301 32.6216 50.9887 32.6216C51.5652 32.6216 52.081 32.7277 52.5438 32.9374C53.004 33.1471 53.3875 33.4497 53.6943 33.8451L52.5623 34.9014C52.155 34.3945 51.6605 34.1424 51.0786 34.1424C50.7374 34.1424 50.4333 34.2193 50.1662 34.3733C49.899 34.5272 49.6927 34.7449 49.5473 35.0262C49.3992 35.3075 49.3278 35.6287 49.3278 35.9949C49.3278 36.3585 49.4018 36.6823 49.5473 36.9637C49.6927 37.245 49.9017 37.4626 50.1662 37.6166C50.4333 37.7705 50.7374 37.8475 51.0786 37.8475C51.6605 37.8475 52.1524 37.5953 52.5623 37.0884L53.6943 38.1447C53.3875 38.5402 53.0067 38.8428 52.5438 39.0524C52.0836 39.2621 51.5652 39.3683 50.9887 39.3683C50.3301 39.363 49.7377 39.2196 49.214 38.933Z"
        fill="#182D3A" />
    <path
        d="M55.3499 32.7517H56.2439V36.5577L58.5845 33.1259C58.7432 32.8924 59.005 32.7517 59.2827 32.7517H60.5099V38.381C60.5099 38.8508 60.1397 39.2303 59.6848 39.2303H58.7591V35.435L56.3629 38.949C56.2439 39.1242 56.0482 39.2303 55.8392 39.2303H54.4904V33.6355C54.4904 33.1498 54.8765 32.7517 55.3499 32.7517Z"
        fill="#182D3A" />
    <path
        d="M63.1468 38.933C62.6231 38.6464 62.2105 38.2456 61.9117 37.7334C61.6128 37.2211 61.462 36.6399 61.462 35.9923C61.462 35.3447 61.6128 34.7634 61.9117 34.2512C62.2105 33.739 62.6231 33.3382 63.1468 33.0515C63.6704 32.7649 64.2629 32.6216 64.9214 32.6216C65.498 32.6216 66.0137 32.7277 66.4766 32.9374C66.9367 33.1471 67.3202 33.4497 67.627 33.8451L66.4951 34.9014C66.0878 34.3945 65.5932 34.1424 65.0113 34.1424C64.6702 34.1424 64.366 34.2193 64.0989 34.3733C63.8318 34.5272 63.6255 34.7449 63.48 35.0262C63.3319 35.3075 63.2605 35.6287 63.2605 35.9949C63.2605 36.3585 63.3345 36.6823 63.48 36.9637C63.6255 37.245 63.8344 37.4626 64.0989 37.6166C64.366 37.7705 64.6702 37.8475 65.0113 37.8475C65.5932 37.8475 66.0851 37.5953 66.4951 37.0884L67.627 38.1447C67.3202 38.5402 66.9394 38.8428 66.4766 39.0524C66.0164 39.2621 65.498 39.3683 64.9214 39.3683C64.2629 39.363 63.6731 39.2196 63.1468 38.933Z"
        fill="#182D3A" />
    <path
        d="M72.758 34.2062H71.5149V38.5137C71.5149 38.9119 71.2028 39.233 70.8167 39.233H69.7614V34.2062H67.8307V33.5187C67.8307 33.0967 68.164 32.7517 68.5739 32.7517H73.4377V33.5028C73.4403 33.893 73.1335 34.2062 72.758 34.2062Z"
        fill="#182D3A" />
    <path
        d="M79.3065 37.8157V38.5986C79.3065 38.949 79.0314 39.2303 78.6929 39.2303H74.2576V33.4736C74.2576 33.0728 74.5723 32.749 74.9611 32.749H79.1927V33.5744C79.1927 33.9009 78.9362 34.1636 78.6215 34.1636H76.4051C76.1936 34.1636 76.0216 34.3388 76.0216 34.5565V35.2545H78.8145V36.0879C78.8145 36.3851 78.5818 36.624 78.2935 36.624H76.3972C76.1883 36.624 76.0216 36.7965 76.0216 37.0115V37.8077H79.3065V37.8157Z"
        fill="#182D3A" />
    <path
        d="M85.9898 39.233L85.9819 35.7986L84.5458 38.2828C84.4347 38.4766 84.231 38.596 84.0115 38.596H83.5725L81.9565 35.8729V38.604C81.9565 38.9517 81.6841 39.233 81.3456 39.233H80.3194V33.4391C80.3194 33.0596 80.6182 32.7544 80.9859 32.7544H81.7846L83.9956 36.494L85.929 33.1419C86.0692 32.9003 86.3204 32.7517 86.5928 32.7517H87.619L87.6349 38.6279C87.6349 38.9623 87.3731 39.233 87.0504 39.233H85.9898Z"
        fill="#182D3A" />
    <path d="M81.8641 7.98634L75.7388 6.87428L75.9398 5.70117L82.0651 6.81323L81.8641 7.98634Z" fill="#182D3A" />
    <path d="M89.8248 8.47469L86.9287 8.33136L86.9843 7.14233L89.8803 7.283L89.8248 8.47469Z" fill="#182D3A" />
    <path d="M93.3741 12.8699L92.4907 10.5422L93.5698 10.1096L94.4532 12.4373L93.3741 12.8699Z" fill="#182D3A" />
    <path d="M99.4152 16.352L96.6699 15.3965L97.0402 14.2659L99.7855 15.2213L99.4152 16.352Z" fill="#182D3A" />
    <path d="M98.7114 23.7941L97.7461 23.1359L100.621 18.6558L101.586 19.3113L98.7114 23.7941Z" fill="#182D3A" />
    <path d="M92.61 22.0848L91.5283 21.6575L93.4405 16.5139L94.5196 16.9412L92.61 22.0848Z" fill="#182D3A" />
    <path d="M94.3238 25.2006L92.8691 24.7786L93.1812 23.6321L94.6359 24.0541L94.3238 25.2006Z" fill="#182D3A" />
    <path d="M83.4536 24.3808L83.3901 23.1891L89.0103 22.8706L89.0764 24.0596L83.4536 24.3808Z" fill="#182D3A" />
    <path d="M79.55 24.2002L77.5029 23.6163L77.8124 22.4697L79.8568 23.051L79.55 24.2002Z" fill="#182D3A" />
    <path d="M74.9746 19.9962L74.7021 16.883L75.8553 16.7742L76.125 19.8901L74.9746 19.9962Z" fill="#182D3A" />
    <path d="M74.4297 13.3238L73.0703 8.57828L74.1785 8.24121L75.5379 12.9867L74.4297 13.3238Z" fill="#182D3A" />
    <path d="M77.2228 14.0802L76.6436 13.0478L82.478 9.57886L83.0572 10.6113L77.2228 14.0802Z" fill="#182D3A" />
    <path d="M80.0471 18.0613L76.5586 15.8132L77.1722 14.8047L80.6607 17.05L80.0471 18.0613Z" fill="#182D3A" />
    <path d="M89.4545 22.4564L83.0938 19.4281L83.5778 18.3452L89.9385 21.3735L89.4545 22.4564Z" fill="#182D3A" />
    <path d="M90.4701 15.8902L90.2109 14.7277L92.213 14.25L92.4749 15.4125L90.4701 15.8902Z" fill="#182D3A" />
    <path d="M86.1194 13.0558L85.0615 10.3114L86.1353 9.87085L87.1959 12.6152L86.1194 13.0558Z" fill="#182D3A" />
    <path d="M82.9381 16.3759L81.8193 16.0813L83.3507 9.87866L84.4721 10.1733L82.9381 16.3759Z" fill="#182D3A" />
    <path d="M95.6962 23.1095L94.313 16.7291L95.4397 16.469L96.8229 22.8494L95.6962 23.1095Z" fill="#182D3A" />
    <path
        d="M87.9736 18.5285C86.3444 18.5285 85.022 17.1643 85.022 15.4869C85.022 13.8095 86.347 12.4453 87.9736 12.4453C89.6028 12.4453 90.9251 13.8095 90.9251 15.4869C90.9251 17.1643 89.6028 18.5285 87.9736 18.5285ZM87.9736 13.6343C86.9844 13.6343 86.1777 14.4651 86.1777 15.4842C86.1777 16.5034 86.9844 17.3341 87.9736 17.3341C88.9627 17.3341 89.7694 16.5034 89.7694 15.4842C89.7694 14.4651 88.9627 13.6343 87.9736 13.6343Z"
        fill="#2B3483" />
    <path
        d="M101.37 19.598C99.9812 19.598 98.8545 18.4355 98.8545 17.0049C98.8545 15.5744 99.9838 14.4119 101.37 14.4119C102.756 14.4119 103.885 15.5744 103.885 17.0049C103.885 18.4355 102.758 19.598 101.37 19.598ZM101.37 15.6062C100.621 15.6062 100.01 16.2352 100.01 17.0076C100.01 17.7799 100.621 18.4089 101.37 18.4089C102.118 18.4089 102.729 17.7799 102.729 17.0076C102.729 16.2326 102.121 15.6062 101.37 15.6062Z"
        fill="#2B3483" />
    <path
        d="M73.3956 8.72161C71.8908 8.72161 70.6636 7.45826 70.6636 5.90827C70.6636 4.35563 71.8881 3.09229 73.3956 3.09229C74.9005 3.09229 76.1277 4.35563 76.1277 5.90827C76.1277 7.45826 74.9032 8.72161 73.3956 8.72161ZM73.3956 4.28397C72.5282 4.28397 71.822 5.01119 71.822 5.90562C71.822 6.80004 72.5282 7.52727 73.3956 7.52727C74.2631 7.52727 74.9693 6.80004 74.9693 5.90562C74.9719 5.01119 74.2658 4.28397 73.3956 4.28397Z"
        fill="#E33C2B" />
    <path
        d="M84.5829 10.9218C82.9538 10.9218 81.6313 9.55759 81.6313 7.88021C81.6313 6.20282 82.9564 4.83862 84.5829 4.83862C86.2121 4.83862 87.5345 6.20282 87.5345 7.88021C87.5372 9.55759 86.2121 10.9218 84.5829 10.9218ZM84.5829 6.02765C83.5938 6.02765 82.7871 6.85838 82.7871 7.87755C82.7871 8.89672 83.5938 9.72745 84.5829 9.72745C85.5721 9.72745 86.3787 8.89672 86.3787 7.87755C86.3787 6.85838 85.5747 6.02765 84.5829 6.02765Z"
        fill="#E33C2B" />
    <path
        d="M81.3562 26.0846C80.1264 26.0846 79.124 25.0522 79.124 23.7835C79.124 22.5149 80.1264 21.4824 81.3562 21.4824C82.5861 21.4824 83.5884 22.5149 83.5884 23.7835C83.5884 25.0522 82.5861 26.0846 81.3562 26.0846ZM81.3562 22.6768C80.7638 22.6768 80.2798 23.1731 80.2798 23.7862C80.2798 24.3966 80.7611 24.8956 81.3562 24.8956C81.9487 24.8956 82.4327 24.3993 82.4327 23.7862C82.4327 23.1731 81.9487 22.6768 81.3562 22.6768Z"
        fill="#E33C2B" />
    <path
        d="M75.2786 17.1325C74.0488 17.1325 73.0464 16.1 73.0464 14.8314C73.0464 13.5627 74.0488 12.5303 75.2786 12.5303C76.5084 12.5303 77.5108 13.5627 77.5108 14.8314C77.5108 16.1 76.5084 17.1325 75.2786 17.1325ZM75.2786 13.7246C74.6862 13.7246 74.2022 14.2209 74.2022 14.834C74.2022 15.4445 74.6835 15.9434 75.2786 15.9434C75.871 15.9434 76.355 15.4471 76.355 14.834C76.355 14.2209 75.871 13.7246 75.2786 13.7246Z"
        fill="#047B58" />
    <path
        d="M91.7901 11.5401C90.4016 11.5401 89.2749 10.3776 89.2749 8.94705C89.2749 7.5165 90.4042 6.354 91.7901 6.354C93.1786 6.354 94.3053 7.5165 94.3053 8.94705C94.3053 10.3776 93.1786 11.5401 91.7901 11.5401ZM91.7901 7.54569C91.0416 7.54569 90.4307 8.17471 90.4307 8.94705C90.4307 9.71939 91.0416 10.3484 91.7901 10.3484C92.5386 10.3484 93.1495 9.71939 93.1495 8.94705C93.1495 8.17471 92.5386 7.54569 91.7901 7.54569Z"
        fill="#F9B415" />
    <path
        d="M91.158 25.5936C89.9282 25.5936 88.9258 24.5612 88.9258 23.2926C88.9258 22.0239 89.9282 20.9915 91.158 20.9915C92.3878 20.9915 93.3902 22.0239 93.3902 23.2926C93.3902 24.5612 92.3905 25.5936 91.158 25.5936ZM91.158 22.1858C90.5656 22.1858 90.0816 22.6821 90.0816 23.2952C90.0816 23.9056 90.5629 24.4046 91.158 24.4046C91.7504 24.4046 92.2344 23.9083 92.2344 23.2952C92.2344 22.6821 91.7531 22.1858 91.158 22.1858Z"
        fill="#F9B415" />
    <path
        d="M75.2787 25.4424C73.6468 25.4424 72.3218 24.0756 72.3218 22.3955C72.3218 20.7155 73.6495 19.3486 75.2787 19.3486C76.9105 19.3486 78.2355 20.7155 78.2355 22.3955C78.2355 24.0756 76.9105 25.4424 75.2787 25.4424ZM75.2787 20.5403C74.2869 20.5403 73.4775 21.3737 73.4775 22.3955C73.4775 23.4174 74.2842 24.2507 75.2787 24.2507C76.2704 24.2507 77.0798 23.4174 77.0798 22.3955C77.0798 21.3737 76.2704 20.5403 75.2787 20.5403Z"
        fill="#F9B415" />
    <path
        d="M94.5855 17.4244C93.197 17.4244 92.0703 16.2619 92.0703 14.8313C92.0703 13.4008 93.1996 12.2383 94.5855 12.2383C95.9714 12.2383 97.1007 13.4008 97.1007 14.8313C97.1007 16.2619 95.9714 17.4244 94.5855 17.4244ZM94.5855 13.43C93.837 13.43 93.2261 14.059 93.2261 14.8313C93.2261 15.6037 93.837 16.2327 94.5855 16.2327C95.334 16.2327 95.9449 15.6037 95.9449 14.8313C95.9449 14.059 95.334 13.43 94.5855 13.43Z"
        fill="#047B58" />
    <path
        d="M81.9646 20.2323C80.7348 20.2323 79.7324 19.1999 79.7324 17.9312C79.7324 16.6626 80.7348 15.6301 81.9646 15.6301C83.1945 15.6301 84.1968 16.6626 84.1968 17.9312C84.1968 19.1999 83.1971 20.2323 81.9646 20.2323ZM81.9646 16.8245C81.3722 16.8245 80.8882 17.3208 80.8882 17.9339C80.8882 18.5443 81.3695 19.0433 81.9646 19.0433C82.5571 19.0433 83.0411 18.547 83.0411 17.9339C83.0411 17.3208 82.5597 16.8245 81.9646 16.8245Z"
        fill="#047B58" />
    <path
        d="M96.7016 28.5317C95.0724 28.5317 93.75 27.1675 93.75 25.4901C93.75 23.8127 95.075 22.4485 96.7016 22.4485C98.3308 22.4485 99.6532 23.8127 99.6532 25.4901C99.6532 27.1675 98.3308 28.5317 96.7016 28.5317ZM96.7016 23.6402C95.7124 23.6402 94.9058 24.4709 94.9058 25.4901C94.9058 26.5092 95.7124 27.34 96.7016 27.34C97.6907 27.34 98.4974 26.5092 98.4974 25.4901C98.4974 24.4709 97.6907 23.6402 96.7016 23.6402Z"
        fill="#2B3483" />
</svg>