<svg width="24" height="24" viewBox="0 0 24 24" fill="none" xmlns="http://www.w3.org/2000/svg">
    <mask id="mask0_1883_81183" style="mask-type:alpha" maskUnits="userSpaceOnUse" x="0" y="0" width="24" height="24">
        <rect width="24" height="24" fill="#D9D9D9" />
    </mask>
    <g mask="url(#mask0_1883_81183)">
        <path
            d="M4.05 18C3.7668 18 3.5208 17.896 3.312 17.688C3.104 17.4792 3 17.2332 3 16.95C3 16.6668 3.104 16.4208 3.312 16.212C3.5208 16.004 3.7668 15.9 4.05 15.9H19.95C20.2332 15.9 20.4792 16.004 20.688 16.212C20.896 16.4208 21 16.6668 21 16.95C21 17.2332 20.896 17.4792 20.688 17.688C20.4792 17.896 20.2332 18 19.95 18H4.05ZM4.05 13.05C3.7668 13.05 3.5208 12.946 3.312 12.738C3.104 12.5292 3 12.2832 3 12C3 11.7168 3.104 11.4708 3.312 11.262C3.5208 11.054 3.7668 10.95 4.05 10.95H19.95C20.2332 10.95 20.4792 11.054 20.688 11.262C20.896 11.4708 21 11.7168 21 12C21 12.2832 20.896 12.5292 20.688 12.738C20.4792 12.946 20.2332 13.05 19.95 13.05H4.05ZM4.05 8.1C3.7668 8.1 3.5208 7.996 3.312 7.788C3.104 7.5792 3 7.3332 3 7.05C3 6.7668 3.104 6.5208 3.312 6.312C3.5208 6.104 3.7668 6 4.05 6H19.95C20.2332 6 20.4792 6.104 20.688 6.312C20.896 6.5208 21 6.7668 21 7.05C21 7.3332 20.896 7.5792 20.688 7.788C20.4792 7.996 20.2332 8.1 19.95 8.1H4.05Z"
            fill="#919EAB" />
    </g>
</svg>