<svg width="24" height="24" viewBox="0 0 24 24" fill="none" xmlns="http://www.w3.org/2000/svg">
    <mask id="mask0_1722_59456" style="mask-type:alpha" maskUnits="userSpaceOnUse" x="0" y="0" width="24" height="24">
        <rect width="24" height="24" fill="#D9D9D9" />
    </mask>
    <g mask="url(#mask0_1722_59456)">
        <path
            d="M6 21V3H13C14.6667 3 16.0833 3.58333 17.25 4.75C18.4167 5.91667 19 7.33333 19 9C19 10.6667 18.4167 12.0833 17.25 13.25C16.0833 14.4167 14.6667 15 13 15H10V21H6ZM10 11H13.2C13.75 11 14.221 10.804 14.613 10.412C15.0043 10.0207 15.2 9.55 15.2 9C15.2 8.45 15.0043 7.979 14.613 7.587C14.221 7.19567 13.75 7 13.2 7H10V11Z"
            fill="#0085FF" />
    </g>
</svg>