<svg width="28" height="28" viewBox="0 0 28 28" fill="none" xmlns="http://www.w3.org/2000/svg">
    <mask id="mask0_4598_14153" style="mask-type:alpha" maskUnits="userSpaceOnUse" x="0" y="0" width="28" height="28">
        <rect width="28" height="28" fill="#D9D9D9" />
    </mask>
    <g mask="url(#mask0_4598_14153)">
        <path
            d="M13.9999 13.9999C12.6799 13.9999 11.5499 13.5299 10.6099 12.5899C9.6699 11.6499 9.1999 10.5199 9.1999 9.1999C9.1999 7.8799 9.6699 6.7499 10.6099 5.8099C11.5499 4.8699 12.6799 4.3999 13.9999 4.3999C15.3199 4.3999 16.4499 4.8699 17.3899 5.8099C18.3299 6.7499 18.7999 7.8799 18.7999 9.1999C18.7999 10.5199 18.3299 11.6499 17.3899 12.5899C16.4499 13.5299 15.3199 13.9999 13.9999 13.9999ZM4.3999 23.5999V20.2399C4.3999 19.5599 4.5751 18.9347 4.9255 18.3643C5.2751 17.7947 5.7399 17.3599 6.3199 17.0599C7.5599 16.4399 8.8199 15.9747 10.0999 15.6643C11.3799 15.3547 12.6799 15.1999 13.9999 15.1999C15.3199 15.1999 16.6199 15.3547 17.8999 15.6643C19.1799 15.9747 20.4399 16.4399 21.6799 17.0599C22.2599 17.3599 22.7247 17.7947 23.0743 18.3643C23.4247 18.9347 23.5999 19.5599 23.5999 20.2399V23.5999H4.3999ZM6.7999 21.1999H21.1999V20.2399C21.1999 20.0199 21.1451 19.8199 21.0355 19.6399C20.9251 19.4599 20.7799 19.3199 20.5999 19.2199C19.5199 18.6799 18.4299 18.2747 17.3299 18.0043C16.2299 17.7347 15.1199 17.5999 13.9999 17.5999C12.8799 17.5999 11.7699 17.7347 10.6699 18.0043C9.5699 18.2747 8.4799 18.6799 7.3999 19.2199C7.2199 19.3199 7.0751 19.4599 6.9655 19.6399C6.8551 19.8199 6.7999 20.0199 6.7999 20.2399V21.1999ZM13.9999 11.5999C14.6599 11.5999 15.2251 11.3647 15.6955 10.8943C16.1651 10.4247 16.3999 9.8599 16.3999 9.1999C16.3999 8.5399 16.1651 7.9751 15.6955 7.5055C15.2251 7.0351 14.6599 6.7999 13.9999 6.7999C13.3399 6.7999 12.7751 7.0351 12.3055 7.5055C11.8351 7.9751 11.5999 8.5399 11.5999 9.1999C11.5999 9.8599 11.8351 10.4247 12.3055 10.8943C12.7751 11.3647 13.3399 11.5999 13.9999 11.5999Z"
            fill="white" />
    </g>
</svg>