<svg width="368" height="158" viewBox="0 0 368 158" fill="none" xmlns="http://www.w3.org/2000/svg">
    <g clip-path="url(#clip0_4778_68182)">
        <rect width="368" height="158" fill="#648BDC" />
        <path
            d="M391 125.653C390.727 126.507 390.446 127.355 390.16 128.196C390.04 128.553 389.909 128.905 389.794 129.262C389.294 130.693 388.759 132.103 388.213 133.483C387.912 134.24 387.604 134.989 387.29 135.728C386.54 137.487 385.749 139.189 384.921 140.83C384.741 141.187 384.559 141.542 384.379 141.891C383.436 143.681 382.45 145.388 381.409 146.991C381.189 147.333 380.964 147.668 380.737 147.997C379.53 149.791 378.192 151.493 376.734 153.087C376.281 153.59 375.821 154.055 375.353 154.505C373.102 156.697 370.658 158.429 368.042 159.585C367.851 159.671 367.661 159.751 367.466 159.837L367.321 159.897L217.141 160L-0.168625 158.69C-0.457127 158.049 -0.743141 157.397 -1.02664 156.737C-1.25844 156.203 -1.48942 155.661 -1.71955 155.113C-1.88631 154.703 -2.0589 154.284 -2.23734 153.856C-3.63566 150.465 -4.98895 146.871 -6.26969 143.1C-9.64667 133.098 -12.3858 121.867 -13.4839 109.969C-14.6246 97.612 -13.9842 84.5382 -10.4546 71.3788C-9.35186 67.2791 -7.98828 63.2547 -6.37226 59.3306C-2.62007 50.1957 2.71556 41.1136 9.99231 32.2955C10.5101 32.2101 11.0329 32.1271 11.5607 32.0441C12.006 31.9738 12.4537 31.9059 12.904 31.8431C15.0719 31.5263 17.1507 31.1518 19.1401 30.7194V53.5138H29.0534V48.1998L40.7453 48.2476V39.6205H43.0992V37.9112H43.4093V39.6205H54.2432V37.9087H54.5533V39.6205H56.7296V56.7792H70.6478V63.0936H78.3848V59.4286H85.559V44.8692H89.136V38.0821H89.6789V44.8692H98.2564V32.1397H99.0944V44.8692H104.765V19.9029H106.456V18H106.726V19.9029H119.251V18H119.521V19.9029H121.805V33.2105H123.416H123.404V30.6666H123.416V28.907H123.404V26.3682H123.416V24.6086H123.404V22.0747H141.212L141.617 22.482V36.8102H152.718V55.8818H161.686V20.6042H163.637V18.1433H163.987V20.6118H171.071V18.1433H171.424V20.6118H181.453V18.1433H181.803V20.6118H188.114V18.1433H188.464V20.6118H191.058V53.5415H200.969V48.1998L212.661 48.2476V39.6205H215.015V37.9112H215.325V39.6205H226.154V37.9087H226.469V39.6205H228.645V56.7792H242.566V63.0936H250.3V59.4286H257.474V44.8692H261.052V38.0821H261.592V44.8692H270.169V32.1397H271.01V44.8692H276.683V19.9029H278.374V18H278.644V19.9029H291.167V18H291.439V19.9029H293.726V33.2105H295.334H295.319V30.6666H295.334V28.907H295.319V26.3682H295.334V24.6086H295.319V22.0747H313.129L313.535 22.2784V36.8001H332.168V55.8717H341.138V20.6042H343.09V18.1433H343.44V20.6118H350.521V18.1433H350.872V20.6118L376.924 19.9029C377.027 21.8661 377.074 23.7338 377.082 25.4808C377.082 26.5291 377.082 27.5345 377.057 28.4973C377.014 30.6088 376.917 32.4891 376.807 34.0778C376.717 35.3346 376.617 36.4004 376.527 37.2651C376.354 38.9041 376.206 39.8115 376.206 39.8115C376.206 39.8115 375.806 41.1916 375.338 42.8456C375.028 43.9416 374.691 45.1582 374.418 46.1738C374.263 46.7494 374.13 47.2647 374.035 47.6543C373.702 49.057 373.401 50.4236 373.135 51.7542C372.93 52.7798 372.749 53.7853 372.592 54.7707C372.502 55.3111 372.422 55.8466 372.342 56.3769C372.234 57.1311 372.142 57.85 372.064 58.5714C371.996 59.1731 376.784 56.7775 376.734 57.3623C376.357 61.3524 369.518 69.0693 370 73.0479C371.814 87.2555 363.501 95.9479 371.881 104.105C374.438 106.591 377.059 109.024 379.601 111.553C379.911 111.86 380.224 112.171 380.531 112.483C381.062 113.019 381.587 113.562 382.107 114.112L382.317 114.336C384.403 116.515 386.344 118.828 388.131 121.261C388.536 121.812 388.926 122.375 389.309 122.948C389.759 123.618 390.195 124.306 390.617 125.012C390.745 125.228 390.872 125.434 391 125.653Z"
            fill="#3B61CB" />
        <path d="M191.061 20.6017H168.655V26.1822H191.061V20.6017Z" fill="#3B61CB" />
        <path d="M191.061 29.1911H168.655V34.7715H191.061V29.1911Z" fill="#3B61CB" />
        <path d="M191.061 37.9615H168.655V43.5419H191.061V37.9615Z" fill="#3B61CB" />
        <path d="M191.061 46.8701H168.655V52.4505H191.061V46.8701Z" fill="#3B61CB" />
        <path d="M191.061 55.4645H168.655V61.0449H191.061V55.4645Z" fill="#3B61CB" />
        <path d="M287.169 19.9029H276.716V23.2914H287.169V19.9029Z" fill="#3B61CB" />
        <path d="M287.169 25.1189H276.716V28.5074H287.169V25.1189Z" fill="#3B61CB" />
        <path d="M287.169 30.4454H276.716V33.8339H287.169V30.4454Z" fill="#3B61CB" />
        <path d="M287.169 35.855H276.716V39.2434H287.169V35.855Z" fill="#3B61CB" />
        <path d="M287.169 41.0759H276.716V44.4644H287.169V41.0759Z" fill="#3B61CB" />
        <path d="M287.169 46.8198H276.716V50.2083H287.169V46.8198Z" fill="#3B61CB" />
        <path d="M287.169 52.0383H276.716V55.4268H287.169V52.0383Z" fill="#3B61CB" />
        <path d="M287.169 57.3623H276.716V60.7508H287.169V57.3623Z" fill="#3B61CB" />
        <path d="M287.169 62.7744H276.716V66.1629H287.169V62.7744Z" fill="#3B61CB" />
        <path d="M287.169 67.9928H276.716V71.3813H287.169V67.9928Z" fill="#3B61CB" />
        <path d="M306.516 22.125H295.312V25.5135H306.516V22.125Z" fill="#3B61CB" />
        <path d="M306.516 27.341H295.312V30.7295H306.516V27.341Z" fill="#3B61CB" />
        <path d="M306.516 32.6676H295.312V36.0561H306.516V32.6676Z" fill="#3B61CB" />
        <path d="M306.516 38.0771H295.312V41.4656H306.516V38.0771Z" fill="#3B61CB" />
        <path d="M306.516 43.2981H295.312V46.6866H306.516V43.2981Z" fill="#3B61CB" />
        <path d="M306.516 48.7403H295.312V52.1288H306.516V48.7403Z" fill="#3B61CB" />
        <path d="M306.516 53.9562H295.312V57.3447H306.516V53.9562Z" fill="#3B61CB" />
        <path d="M306.516 59.2828H295.312V62.6713H306.516V59.2828Z" fill="#3B61CB" />
        <path d="M306.516 64.6923H295.312V68.0808H306.516V64.6923Z" fill="#3B61CB" />
        <path d="M306.516 69.9133H295.312V73.3018H306.516V69.9133Z" fill="#3B61CB" />
        <path d="M306.516 75.901H295.312V79.2895H306.516V75.901Z" fill="#3B61CB" />
        <path d="M306.516 81.117H295.312V84.5055H306.516V81.117Z" fill="#3B61CB" />
        <path d="M306.516 86.4436H295.312V89.832H306.516V86.4436Z" fill="#3B61CB" />
        <path d="M306.516 91.8531H295.312V95.2416H306.516V91.8531Z" fill="#3B61CB" />
        <path d="M306.516 97.0741H295.312V100.463H306.516V97.0741Z" fill="#3B61CB" />
        <path
            d="M377.044 28.4948C377.002 30.6063 376.904 32.4866 376.794 34.0752L350.099 34.7841V29.2036L377.044 28.4948Z"
            fill="#3B61CB" />
        <path
            d="M376.522 37.2526C376.349 38.8915 376.201 39.799 376.201 39.799C376.201 39.799 375.801 41.179 375.333 42.833L350.106 43.5419V37.9615L376.522 37.2526Z"
            fill="#3B61CB" />
        <path
            d="M374.413 46.1612C374.258 46.7368 374.125 47.2521 374.03 47.6418C373.697 49.0444 373.396 50.4111 373.13 51.7416L350.106 52.4505V46.8701L374.413 46.1612Z"
            fill="#3B61CB" />
        <path d="M115.869 19.9029H104.665V23.2914H115.869V19.9029Z" fill="#3B61CB" />
        <path d="M115.869 25.1189H104.665V28.5074H115.869V25.1189Z" fill="#3B61CB" />
        <path d="M115.869 30.4454H104.665V33.8339H115.869V30.4454Z" fill="#3B61CB" />
        <path d="M115.869 35.855H104.665V39.2434H115.869V35.855Z" fill="#3B61CB" />
        <path d="M115.869 41.0759H104.665V44.4644H115.869V41.0759Z" fill="#3B61CB" />
        <path d="M115.869 46.8198H104.665V50.2083H115.869V46.8198Z" fill="#3B61CB" />
        <path d="M115.869 52.0383H104.665V55.4268H115.869V52.0383Z" fill="#3B61CB" />
        <path d="M115.869 57.3623H104.665V60.7508H115.869V57.3623Z" fill="#3B61CB" />
        <path d="M115.869 62.7744H104.665V66.1629H115.869V62.7744Z" fill="#3B61CB" />
        <path d="M115.869 67.9928H104.665V71.3813H115.869V67.9928Z" fill="#3B61CB" />
        <path d="M136.369 22.125H123.636V25.5135H136.369V22.125Z" fill="#3B61CB" />
        <path d="M136.369 27.341H123.636V30.7295H136.369V27.341Z" fill="#3B61CB" />
        <path d="M136.369 32.6676H123.636V36.0561H136.369V32.6676Z" fill="#3B61CB" />
        <path d="M136.369 38.0771H123.636V41.4656H136.369V38.0771Z" fill="#3B61CB" />
        <path d="M136.369 43.2981H123.636V46.6866H136.369V43.2981Z" fill="#3B61CB" />
        <path d="M136.369 48.7403H123.636V52.1288H136.369V48.7403Z" fill="#3B61CB" />
        <path d="M136.369 53.9562H123.636V57.3447H136.369V53.9562Z" fill="#3B61CB" />
        <path d="M136.369 59.2828H123.636V62.6713H136.369V59.2828Z" fill="#3B61CB" />
        <path d="M136.369 64.6923H123.636V68.0808H136.369V64.6923Z" fill="#3B61CB" />
        <path d="M136.369 69.9133H123.636V73.3018H136.369V69.9133Z" fill="#3B61CB" />
        <path d="M136.369 75.901H123.636V79.2895H136.369V75.901Z" fill="#3B61CB" />
        <path d="M136.369 81.117H123.636V84.5055H136.369V81.117Z" fill="#3B61CB" />
        <path d="M136.369 86.4436H123.636V89.832H136.369V86.4436Z" fill="#3B61CB" />
        <path d="M136.369 91.8531H123.636V95.2416H136.369V91.8531Z" fill="#3B61CB" />
        <path d="M136.369 97.0741H123.636V100.463H136.369V97.0741Z" fill="#3B61CB" />
        <path
            d="M398.424 123.133C398.054 129.25 396.9 136.14 394.768 143.981C393.674 148.008 391.284 151.563 387.969 154.097C384.654 156.63 380.596 158.002 376.424 158L199.215 157.917H196.871H180.154H178.007H162.052H159.324H137.093H133.174H115.044H110.115L78.8665 157.901H73.4087H47.9049H44.1464L3.74561 157.882C-1.07248 157.881 -5.80322 156.595 -9.95976 154.158C-14.1163 151.721 -17.5485 148.22 -19.9032 144.016C-23.6691 137.274 -27.0404 130.319 -30 123.187L398.424 123.133Z"
            fill="#3E65CE" />
        <path d="M169.601 139.965L147.021 139.576L150.095 137.492L172.675 137.882L169.601 139.965Z" fill="#6B91DE" />
        <path d="M389.601 139.965L367.021 139.576L370.094 137.492L392.675 137.882L389.601 139.965Z" fill="#6B91DE" />
        <path d="M257.401 94.375H225.749V123.602H257.401V94.375Z" fill="#567DD6" />
        <path d="M273.962 94.375H257.4V123.602H273.962V94.375Z" fill="#7096E0" />
        <path d="M235.086 123.602H244.794V102.326H235.086V123.602Z" fill="#2246A8" />
        <path d="M237.479 123.604H244.794V103.105H237.479V123.604Z" fill="#7096E0" />
        <path d="M270.792 98.2754H260.566V102.703H270.792V98.2754Z" fill="#2246A8" />
        <path
            d="M261.465 98.707H269.892C270.012 98.707 270.126 98.7541 270.21 98.8379C270.294 98.9217 270.342 99.0353 270.342 99.1538V99.1766H261.012V99.1538C261.012 99.0948 261.024 99.0364 261.046 98.9819C261.069 98.9275 261.103 98.8781 261.145 98.8365C261.187 98.795 261.237 98.7622 261.292 98.74C261.347 98.7177 261.406 98.7065 261.465 98.707Z"
            fill="#07336C" />
        <path
            d="M261.465 99.4805H269.892C270.012 99.4805 270.126 99.5276 270.21 99.6113C270.294 99.6951 270.342 99.8087 270.342 99.9272V99.95H261.012V99.9272C261.012 99.8682 261.024 99.8098 261.046 99.7554C261.069 99.7009 261.103 99.6515 261.145 99.61C261.187 99.5684 261.237 99.5356 261.292 99.5134C261.347 99.4912 261.406 99.48 261.465 99.4805Z"
            fill="#07336C" />
        <path
            d="M261.465 100.254H269.892C270.012 100.254 270.126 100.301 270.21 100.385C270.294 100.469 270.342 100.582 270.342 100.701V100.723H261.012V100.701C261.012 100.642 261.024 100.583 261.046 100.529C261.069 100.474 261.103 100.425 261.145 100.383C261.187 100.342 261.237 100.309 261.292 100.287C261.347 100.265 261.406 100.253 261.465 100.254Z"
            fill="#07336C" />
        <path
            d="M261.465 101.029H269.892C270.012 101.029 270.126 101.076 270.21 101.16C270.294 101.244 270.342 101.358 270.342 101.476V101.499H261.012V101.476C261.012 101.417 261.024 101.359 261.046 101.304C261.069 101.25 261.103 101.2 261.145 101.159C261.187 101.117 261.237 101.084 261.292 101.062C261.347 101.04 261.406 101.029 261.465 101.029Z"
            fill="#07336C" />
        <path
            d="M261.465 101.803H269.892C270.012 101.803 270.126 101.85 270.21 101.934C270.294 102.017 270.342 102.131 270.342 102.249V102.272H261.012V102.249C261.012 102.19 261.024 102.132 261.046 102.078C261.069 102.023 261.103 101.974 261.145 101.932C261.187 101.891 261.237 101.858 261.292 101.836C261.347 101.813 261.406 101.802 261.465 101.803Z"
            fill="#07336C" />
        <path d="M275 92.2363H224.992V94.3743H275V92.2363Z" fill="#073D84" />
        <path
            d="M237.984 112.199C238.06 112.195 238.132 112.161 238.183 112.105C238.234 112.049 238.26 111.975 238.257 111.9C238.253 111.824 238.219 111.753 238.162 111.703C238.106 111.652 238.032 111.625 237.956 111.629C237.64 111.646 237.109 111.567 236.86 111.808C236.612 112.049 236.717 112.567 236.717 112.881C236.717 113.239 236.606 113.775 236.832 114.084C237.057 114.394 237.61 114.274 237.954 114.259C238.03 114.255 238.101 114.222 238.152 114.165C238.203 114.109 238.23 114.035 238.226 113.96C238.222 113.884 238.188 113.813 238.132 113.763C238.075 113.712 238.001 113.686 237.925 113.689L237.543 113.708C237.407 113.708 237.363 113.743 237.292 113.65C237.222 113.556 237.292 113.004 237.292 112.85C237.276 112.642 237.27 112.433 237.275 112.224C237.511 112.202 237.748 112.194 237.984 112.199Z"
            fill="#07336C" />
        <path
            d="M267.805 110.441C268.515 110.441 269.09 109.869 269.09 109.165C269.09 108.46 268.515 107.889 267.805 107.889C267.096 107.889 266.521 108.46 266.521 109.165C266.521 109.869 267.096 110.441 267.805 110.441Z"
            fill="#07336C" />
        <path
            d="M271.984 123.601H269.769V111.095C269.769 110.873 269.68 110.661 269.523 110.504C269.365 110.347 269.151 110.259 268.928 110.259H267.972C267.678 110.259 267.396 110.143 267.188 109.937C266.98 109.73 266.864 109.45 266.864 109.158C266.864 108.866 266.98 108.586 267.188 108.379C267.396 108.173 267.678 108.057 267.972 108.057H268.928C269.739 108.057 270.517 108.377 271.09 108.946C271.664 109.516 271.986 110.289 271.986 111.095L271.984 123.601Z"
            fill="#567DD6" />
        <path d="M272.526 123.601H269.221L269.647 122.363H272.101L272.526 123.601Z" fill="#07336C" />
        <path
            d="M269.296 108.102C268.722 108.612 268.642 109.366 268.699 110.088C268.728 110.45 269.302 110.454 269.273 110.088C269.227 109.518 269.242 108.918 269.701 108.504C269.974 108.259 269.569 107.857 269.296 108.102Z"
            fill="#8CA9E0" />
        <path
            d="M271.747 110.001C271.07 110.045 270.126 110.062 269.601 110.544C269.329 110.793 269.736 111.196 270.006 110.947C270.197 110.757 270.526 110.735 270.77 110.687C271.091 110.629 271.414 110.589 271.739 110.569C272.114 110.546 272.116 109.976 271.747 110.001Z"
            fill="#8CA9E0" />
        <path
            d="M271.921 121.029H269.958C269.882 121.029 269.809 121.059 269.755 121.113C269.702 121.166 269.671 121.239 269.671 121.314C269.671 121.39 269.702 121.463 269.755 121.516C269.809 121.57 269.882 121.6 269.958 121.6H271.921C271.997 121.6 272.07 121.57 272.124 121.516C272.178 121.463 272.208 121.39 272.208 121.314C272.208 121.239 272.178 121.166 272.124 121.113C272.07 121.059 271.997 121.029 271.921 121.029Z"
            fill="#8CA9E0" />
        <path
            d="M270.497 120.174C270.421 120.174 270.348 120.204 270.294 120.257C270.24 120.311 270.21 120.383 270.21 120.459C270.21 120.535 270.24 120.607 270.294 120.661C270.348 120.714 270.421 120.744 270.497 120.744C270.573 120.744 270.646 120.714 270.7 120.661C270.753 120.607 270.784 120.535 270.784 120.459C270.784 120.383 270.753 120.311 270.7 120.257C270.646 120.204 270.573 120.174 270.497 120.174Z"
            fill="#8CA9E0" />
        <path
            d="M262.13 110.441C262.84 110.441 263.415 109.869 263.415 109.165C263.415 108.46 262.84 107.889 262.13 107.889C261.421 107.889 260.846 108.46 260.846 109.165C260.846 109.869 261.421 110.441 262.13 110.441Z"
            fill="#07336C" />
        <path
            d="M266.307 123.601H264.092V111.095C264.092 110.873 264.004 110.661 263.846 110.504C263.688 110.347 263.474 110.259 263.251 110.259H262.295C262.001 110.259 261.719 110.143 261.511 109.937C261.304 109.73 261.187 109.45 261.187 109.158C261.187 108.866 261.304 108.586 261.511 108.379C261.719 108.173 262.001 108.057 262.295 108.057H263.251C264.062 108.057 264.84 108.377 265.414 108.946C265.987 109.516 266.309 110.289 266.309 111.095L266.307 123.601Z"
            fill="#567DD6" />
        <path d="M266.853 123.601H263.548L263.972 122.363H266.427L266.853 123.601Z" fill="#07336C" />
        <path
            d="M263.619 108.102C263.046 108.612 262.965 109.366 263.023 110.088C263.051 110.45 263.625 110.454 263.596 110.088C263.55 109.518 263.565 108.918 264.024 108.504C264.299 108.259 263.892 107.857 263.619 108.102Z"
            fill="#8CA9E0" />
        <path
            d="M266.071 110.001C265.395 110.045 264.45 110.062 263.925 110.544C263.653 110.793 264.06 111.196 264.33 110.947C264.521 110.757 264.85 110.735 265.095 110.687C265.415 110.629 265.739 110.589 266.064 110.569C266.438 110.546 266.442 109.976 266.071 110.001Z"
            fill="#8CA9E0" />
        <path
            d="M266.245 121.029H264.282C264.206 121.029 264.133 121.059 264.079 121.113C264.026 121.166 263.995 121.239 263.995 121.314C263.995 121.39 264.026 121.463 264.079 121.516C264.133 121.57 264.206 121.6 264.282 121.6H266.245C266.321 121.6 266.394 121.57 266.448 121.516C266.502 121.463 266.532 121.39 266.532 121.314C266.532 121.239 266.502 121.166 266.448 121.113C266.394 121.059 266.321 121.029 266.245 121.029Z"
            fill="#8CA9E0" />
        <path
            d="M264.82 120.174C264.744 120.174 264.671 120.204 264.617 120.257C264.563 120.311 264.533 120.383 264.533 120.459C264.533 120.535 264.563 120.607 264.617 120.661C264.671 120.714 264.744 120.744 264.82 120.744C264.896 120.744 264.969 120.714 265.023 120.661C265.076 120.607 265.107 120.535 265.107 120.459C265.107 120.383 265.076 120.311 265.023 120.257C264.969 120.204 264.896 120.174 264.82 120.174Z"
            fill="#8CA9E0" />
        <path
            d="M210.909 131.446H205.331V129.168H210.909C211.621 129.167 212.303 128.886 212.807 128.386C213.31 127.886 213.593 127.208 213.594 126.5V111.69C213.596 110.379 214.121 109.122 215.054 108.195C215.988 107.267 217.254 106.746 218.574 106.744H225.738V109.023H218.566C217.854 109.024 217.172 109.305 216.668 109.805C216.165 110.305 215.881 110.983 215.88 111.69V126.5C215.879 127.81 215.355 129.066 214.423 129.993C213.491 130.92 212.228 131.443 210.909 131.446Z"
            fill="#2246A8" />
        <path d="M174.35 94.457H103.327V143H174.35V94.457Z" fill="#7096E0" />
        <path d="M174.351 143H205.996V94.4573H174.351V143Z" fill="#567DD6" />
        <path d="M208.493 89.7285H100.912V94.4582H208.493V89.7285Z" fill="#073D84" />
        <path d="M133.84 118.43H119.244V122.083H133.84V118.43Z" fill="#567DD6" />
        <path d="M133.837 118.852H121.604V122.081H133.837V118.852Z" fill="#07336C" />
        <path d="M158.435 118.43H143.84V122.083H158.435V118.43Z" fill="#567DD6" />
        <path d="M158.434 118.852H146.201V122.081H158.434V118.852Z" fill="#07336C" />
        <path d="M197.071 112.764H183.274V143.001H197.071V112.764Z" fill="#2246A8" />
        <path d="M193.671 113.867H183.274V143.001H193.671V113.867Z" fill="#7096E0" />
        <path
            d="M114.069 113.516H117.064C117.351 113.516 117.502 114.999 117.064 114.999H114.069C113.61 114.999 113.712 113.516 114.069 113.516Z"
            fill="#4F77D3" />
        <path
            d="M118.296 113.516H121.291C121.578 113.516 121.729 114.999 121.291 114.999H118.296C117.841 114.999 117.942 113.516 118.296 113.516Z"
            fill="#4F77D3" />
        <path
            d="M122.524 113.516H125.52C125.806 113.516 125.957 114.999 125.52 114.999H122.524C122.071 114.999 122.171 113.516 122.524 113.516Z"
            fill="#4F77D3" />
        <path
            d="M107.786 111.338H110.781C111.068 111.338 111.219 112.821 110.781 112.821H107.786C107.331 112.813 107.432 111.338 107.786 111.338Z"
            fill="#4F77D3" />
        <path
            d="M112.016 111.338H115.011C115.297 111.338 115.448 112.821 115.011 112.821H112.016C111.563 112.813 111.662 111.338 112.016 111.338Z"
            fill="#4F77D3" />
        <path
            d="M116.244 111.338H119.239C119.526 111.338 119.677 112.821 119.239 112.821H116.244C115.789 112.813 115.89 111.338 116.244 111.338Z"
            fill="#4F77D3" />
        <path
            d="M120.472 111.338H123.467C123.754 111.338 123.905 112.821 123.467 112.821H120.472C120.019 112.813 120.118 111.338 120.472 111.338Z"
            fill="#4F77D3" />
        <path
            d="M124.704 111.338H127.699C127.986 111.338 128.137 112.821 127.699 112.821H124.704C124.249 112.813 124.35 111.338 124.704 111.338Z"
            fill="#4F77D3" />
        <path
            d="M105.607 109.146H108.602C108.889 109.146 109.04 110.629 108.602 110.629H105.607C105.152 110.629 105.254 109.146 105.607 109.146Z"
            fill="#4F77D3" />
        <path
            d="M109.838 109.146H112.833C113.12 109.146 113.271 110.629 112.833 110.629H109.838C109.383 110.629 109.483 109.146 109.838 109.146Z"
            fill="#4F77D3" />
        <path
            d="M114.069 109.146H117.064C117.351 109.146 117.502 110.629 117.064 110.629H114.069C113.61 110.629 113.712 109.146 114.069 109.146Z"
            fill="#4F77D3" />
        <path
            d="M118.296 109.146H121.291C121.578 109.146 121.729 110.629 121.291 110.629H118.296C117.841 110.629 117.942 109.146 118.296 109.146Z"
            fill="#4F77D3" />
        <path
            d="M122.524 109.146H125.52C125.806 109.146 125.957 110.629 125.52 110.629H122.524C122.071 110.629 122.171 109.146 122.524 109.146Z"
            fill="#4F77D3" />
        <path
            d="M126.755 109.146H129.744C130.031 109.146 130.182 110.629 129.744 110.629H126.749C126.304 110.629 126.401 109.146 126.755 109.146Z"
            fill="#4F77D3" />
        <path
            d="M130.982 109.146H133.978C134.264 109.146 134.415 110.629 133.978 110.629H130.982C130.529 110.629 130.629 109.146 130.982 109.146Z"
            fill="#4F77D3" />
        <path
            d="M135.211 109.146H138.206C138.493 109.146 138.644 110.629 138.206 110.629H135.211C134.756 110.629 134.857 109.146 135.211 109.146Z"
            fill="#4F77D3" />
        <path
            d="M107.786 106.971H110.781C111.068 106.971 111.219 108.454 110.781 108.454H107.786C107.331 108.444 107.432 106.971 107.786 106.971Z"
            fill="#4F77D3" />
        <path
            d="M112.016 106.971H115.011C115.297 106.971 115.448 108.454 115.011 108.454H112.016C111.563 108.444 111.662 106.971 112.016 106.971Z"
            fill="#4F77D3" />
        <path
            d="M116.244 106.971H119.239C119.526 106.971 119.677 108.454 119.239 108.454H116.244C115.789 108.444 115.89 106.971 116.244 106.971Z"
            fill="#4F77D3" />
        <path
            d="M120.472 106.971H123.467C123.754 106.971 123.905 108.454 123.467 108.454H120.472C120.019 108.444 120.118 106.971 120.472 106.971Z"
            fill="#4F77D3" />
        <path
            d="M124.704 106.971H127.699C127.986 106.971 128.137 108.454 127.699 108.454H124.704C124.249 108.444 124.35 106.971 124.704 106.971Z"
            fill="#4F77D3" />
        <path
            d="M128.932 106.971H131.927C132.213 106.971 132.364 108.454 131.927 108.454H128.932C128.479 108.444 128.578 106.971 128.932 106.971Z"
            fill="#4F77D3" />
        <path
            d="M133.16 106.971H136.155C136.442 106.971 136.593 108.454 136.155 108.454H133.16C132.705 108.444 132.801 106.971 133.16 106.971Z"
            fill="#4F77D3" />
        <path
            d="M114.069 104.777H117.064C117.351 104.777 117.502 106.26 117.064 106.26H114.069C113.61 106.26 113.712 104.777 114.069 104.777Z"
            fill="#4F77D3" />
        <path
            d="M118.296 104.777H121.291C121.578 104.777 121.729 106.26 121.291 106.26H118.296C117.841 106.26 117.942 104.777 118.296 104.777Z"
            fill="#4F77D3" />
        <path
            d="M122.524 104.777H125.52C125.806 104.777 125.957 106.26 125.52 106.26H122.524C122.071 106.26 122.171 104.777 122.524 104.777Z"
            fill="#4F77D3" />
        <path
            d="M126.755 104.777H129.744C130.031 104.777 130.182 106.26 129.744 106.26H126.749C126.304 106.26 126.401 104.777 126.755 104.777Z"
            fill="#4F77D3" />
        <path
            d="M130.982 104.777H133.978C134.264 104.777 134.415 106.26 133.978 106.26H130.982C130.529 106.26 130.629 104.777 130.982 104.777Z"
            fill="#4F77D3" />
        <path
            d="M135.211 104.777H138.206C138.493 104.777 138.644 106.26 138.206 106.26H135.211C134.756 106.26 134.857 104.777 135.211 104.777Z"
            fill="#4F77D3" />
        <path
            d="M145.688 109.146H148.683C148.969 109.146 149.12 110.629 148.683 110.629H145.688C145.227 110.629 145.334 109.146 145.688 109.146Z"
            fill="#4F77D3" />
        <path
            d="M149.917 109.146H152.912C153.199 109.146 153.35 110.629 152.912 110.629H149.917C149.462 110.629 149.563 109.146 149.917 109.146Z"
            fill="#4F77D3" />
        <path
            d="M143.637 106.971H146.632C146.919 106.971 147.07 108.454 146.632 108.454H143.637C143.184 108.444 143.283 106.971 143.637 106.971Z"
            fill="#4F77D3" />
        <path
            d="M147.866 106.971H150.861C151.148 106.971 151.299 108.454 150.861 108.454H147.866C147.411 108.444 147.52 106.971 147.866 106.971Z"
            fill="#4F77D3" />
        <path
            d="M152.094 106.971H155.089C155.376 106.971 155.527 108.454 155.089 108.454H152.094C151.641 108.444 151.742 106.971 152.094 106.971Z"
            fill="#4F77D3" />
        <path
            d="M145.688 104.777H148.683C148.969 104.777 149.12 106.26 148.683 106.26H145.688C145.227 106.26 145.334 104.777 145.688 104.777Z"
            fill="#4F77D3" />
        <path
            d="M112.016 102.594H115.011C115.297 102.594 115.448 104.077 115.011 104.077H112.016C111.563 104.075 111.662 102.594 112.016 102.594Z"
            fill="#4F77D3" />
        <path
            d="M116.244 102.594H119.239C119.526 102.594 119.677 104.077 119.239 104.077H116.244C115.789 104.075 115.89 102.594 116.244 102.594Z"
            fill="#4F77D3" />
        <path
            d="M120.472 102.594H123.467C123.754 102.594 123.905 104.077 123.467 104.077H120.472C120.019 104.075 120.118 102.594 120.472 102.594Z"
            fill="#4F77D3" />
        <path
            d="M124.704 102.594H127.699C127.986 102.594 128.137 104.077 127.699 104.077H124.704C124.249 104.075 124.35 102.594 124.704 102.594Z"
            fill="#4F77D3" />
        <path
            d="M128.932 102.594H131.927C132.213 102.594 132.364 104.077 131.927 104.077H128.932C128.479 104.075 128.578 102.594 128.932 102.594Z"
            fill="#4F77D3" />
        <path
            d="M133.16 102.594H136.155C136.442 102.594 136.593 104.077 136.155 104.077H133.16C132.705 104.075 132.801 102.594 133.16 102.594Z"
            fill="#4F77D3" />
        <path
            d="M148.5 140.471H151.495C151.782 140.471 151.933 141.954 151.495 141.954H148.5C148.045 141.954 148.146 140.471 148.5 140.471Z"
            fill="#4F77D3" />
        <path
            d="M152.728 140.471H155.724C156.01 140.471 156.161 141.954 155.724 141.954H152.728C152.275 141.954 152.375 140.471 152.728 140.471Z"
            fill="#4F77D3" />
        <path
            d="M156.959 140.471H159.954C160.241 140.471 160.392 141.954 159.954 141.954H156.959C156.504 141.954 156.605 140.471 156.959 140.471Z"
            fill="#4F77D3" />
        <path
            d="M142.22 138.287H145.215C145.502 138.287 145.653 139.77 145.215 139.77H142.22C141.767 139.77 141.866 138.287 142.22 138.287Z"
            fill="#4F77D3" />
        <path
            d="M146.448 138.287H149.444C149.73 138.287 149.881 139.77 149.444 139.77H146.448C145.99 139.77 146.095 138.287 146.448 138.287Z"
            fill="#4F77D3" />
        <path
            d="M150.677 138.287H153.672C153.959 138.287 154.11 139.77 153.672 139.77H150.677C150.224 139.77 150.323 138.287 150.677 138.287Z"
            fill="#4F77D3" />
        <path
            d="M154.907 138.287H157.902C158.189 138.287 158.34 139.77 157.902 139.77H154.907C154.452 139.77 154.553 138.287 154.907 138.287Z"
            fill="#4F77D3" />
        <path
            d="M159.134 138.287H162.129C162.416 138.287 162.567 139.77 162.129 139.77H159.134C158.681 139.77 158.78 138.287 159.134 138.287Z"
            fill="#4F77D3" />
        <path
            d="M140.043 136.102H143.038C143.325 136.102 143.476 137.584 143.038 137.584H140.043C139.588 137.584 139.683 136.102 140.043 136.102Z"
            fill="#4F77D3" />
        <path
            d="M144.271 136.102H147.266C147.553 136.102 147.704 137.584 147.266 137.584H144.271C143.816 137.584 143.918 136.102 144.271 136.102Z"
            fill="#4F77D3" />
        <path
            d="M148.5 136.102H151.495C151.782 136.102 151.933 137.584 151.495 137.584H148.5C148.045 137.584 148.146 136.102 148.5 136.102Z"
            fill="#4F77D3" />
        <path
            d="M152.728 136.102H155.724C156.01 136.102 156.161 137.584 155.724 137.584H152.728C152.275 137.584 152.375 136.102 152.728 136.102Z"
            fill="#4F77D3" />
        <path
            d="M156.959 136.102H159.954C160.241 136.102 160.392 137.584 159.954 137.584H156.959C156.504 137.584 156.605 136.102 156.959 136.102Z"
            fill="#4F77D3" />
        <path
            d="M161.186 136.102H164.182C164.468 136.102 164.619 137.584 164.182 137.584H161.186C160.733 137.584 160.833 136.102 161.186 136.102Z"
            fill="#4F77D3" />
        <path
            d="M165.416 136.102H168.411C168.698 136.102 168.849 137.584 168.411 137.584H165.416C164.961 137.584 165.062 136.102 165.416 136.102Z"
            fill="#4F77D3" />
        <path
            d="M169.643 136.102H172.639C172.925 136.102 173.076 137.584 172.639 137.584H169.643C169.19 137.584 169.29 136.102 169.643 136.102Z"
            fill="#4F77D3" />
        <path
            d="M142.22 133.918H145.215C145.502 133.918 145.653 135.401 145.215 135.401H142.22C141.767 135.401 141.866 133.918 142.22 133.918Z"
            fill="#4F77D3" />
        <path
            d="M146.448 133.918H149.444C149.73 133.918 149.881 135.401 149.444 135.401H146.448C145.99 135.401 146.095 133.918 146.448 133.918Z"
            fill="#4F77D3" />
        <path
            d="M150.677 133.918H153.672C153.959 133.918 154.11 135.401 153.672 135.401H150.677C150.224 135.401 150.323 133.918 150.677 133.918Z"
            fill="#4F77D3" />
        <path
            d="M154.907 133.918H157.902C158.189 133.918 158.34 135.401 157.902 135.401H154.907C154.452 135.401 154.553 133.918 154.907 133.918Z"
            fill="#4F77D3" />
        <path
            d="M159.134 133.918H162.129C162.416 133.918 162.567 135.401 162.129 135.401H159.134C158.681 135.401 158.78 133.918 159.134 133.918Z"
            fill="#4F77D3" />
        <path
            d="M163.366 133.918H166.362C166.648 133.918 166.799 135.401 166.362 135.401H163.366C162.911 135.401 163.003 133.918 163.366 133.918Z"
            fill="#4F77D3" />
        <path
            d="M167.589 133.918H170.584C170.871 133.918 171.022 135.401 170.584 135.401H167.589C167.14 135.401 167.239 133.918 167.589 133.918Z"
            fill="#4F77D3" />
        <path
            d="M148.5 131.732H151.495C151.782 131.732 151.933 133.215 151.495 133.215H148.5C148.045 133.215 148.146 131.732 148.5 131.732Z"
            fill="#4F77D3" />
        <path
            d="M152.728 131.732H155.724C156.01 131.732 156.161 133.215 155.724 133.215H152.728C152.275 133.215 152.375 131.732 152.728 131.732Z"
            fill="#4F77D3" />
        <path
            d="M156.959 131.732H159.954C160.241 131.732 160.392 133.215 159.954 133.215H156.959C156.504 133.215 156.605 131.732 156.959 131.732Z"
            fill="#4F77D3" />
        <path
            d="M161.186 131.732H164.182C164.468 131.732 164.619 133.215 164.182 133.215H161.186C160.733 133.215 160.833 131.732 161.186 131.732Z"
            fill="#4F77D3" />
        <path
            d="M165.416 131.732H168.411C168.698 131.732 168.849 133.215 168.411 133.215H165.416C164.961 133.215 165.062 131.732 165.416 131.732Z"
            fill="#4F77D3" />
        <path
            d="M169.643 131.732H172.639C172.925 131.732 173.076 133.215 172.639 133.215H169.643C169.19 133.215 169.29 131.732 169.643 131.732Z"
            fill="#4F77D3" />
        <path
            d="M146.448 129.549H149.444C149.73 129.549 149.881 131.032 149.444 131.032H146.448C145.99 131.03 146.095 129.549 146.448 129.549Z"
            fill="#4F77D3" />
        <path
            d="M150.677 129.549H153.672C153.959 129.549 154.11 131.032 153.672 131.032H150.677C150.224 131.03 150.323 129.549 150.677 129.549Z"
            fill="#4F77D3" />
        <path
            d="M154.907 129.549H157.902C158.189 129.549 158.34 131.032 157.902 131.032H154.907C154.452 131.03 154.553 129.549 154.907 129.549Z"
            fill="#4F77D3" />
        <path
            d="M159.134 129.549H162.129C162.416 129.549 162.567 131.032 162.129 131.032H159.134C158.681 131.03 158.78 129.549 159.134 129.549Z"
            fill="#4F77D3" />
        <path
            d="M163.366 129.549H166.362C166.648 129.549 166.799 131.032 166.362 131.032H163.366C162.911 131.03 163.003 129.549 163.366 129.549Z"
            fill="#4F77D3" />
        <path
            d="M167.589 129.549H170.584C170.871 129.549 171.022 131.032 170.584 131.032H167.589C167.14 131.03 167.239 129.549 167.589 129.549Z"
            fill="#4F77D3" />
        <path
            d="M105.607 100.408H108.602C108.889 100.408 109.04 101.891 108.602 101.891H105.607C105.152 101.891 105.254 100.408 105.607 100.408Z"
            fill="#4F77D3" />
        <path
            d="M109.838 100.408H112.833C113.12 100.408 113.271 101.891 112.833 101.891H109.838C109.383 101.891 109.483 100.408 109.838 100.408Z"
            fill="#4F77D3" />
        <path
            d="M114.069 100.408H117.064C117.351 100.408 117.502 101.891 117.064 101.891H114.069C113.61 101.891 113.712 100.408 114.069 100.408Z"
            fill="#4F77D3" />
        <path
            d="M118.296 100.408H121.291C121.578 100.408 121.729 101.891 121.291 101.891H118.296C117.841 101.891 117.942 100.408 118.296 100.408Z"
            fill="#4F77D3" />
        <path
            d="M122.524 100.408H125.52C125.806 100.408 125.957 101.891 125.52 101.891H122.524C122.071 101.891 122.171 100.408 122.524 100.408Z"
            fill="#4F77D3" />
        <path
            d="M126.755 100.408H129.744C130.031 100.408 130.182 101.891 129.744 101.891H126.749C126.304 101.891 126.401 100.408 126.755 100.408Z"
            fill="#4F77D3" />
        <path
            d="M130.982 100.408H133.978C134.264 100.408 134.415 101.891 133.978 101.891H130.982C130.529 101.891 130.629 100.408 130.982 100.408Z"
            fill="#4F77D3" />
        <path
            d="M135.211 100.408H138.206C138.493 100.408 138.644 101.891 138.206 101.891H135.211C134.756 101.891 134.857 100.408 135.211 100.408Z"
            fill="#4F77D3" />
        <path
            d="M161.186 100.408H164.182C164.468 100.408 164.619 101.891 164.182 101.891H161.186C160.733 101.891 160.833 100.408 161.186 100.408Z"
            fill="#4F77D3" />
        <path
            d="M165.416 100.408H168.411C168.698 100.408 168.849 101.891 168.411 101.891H165.416C164.961 101.891 165.062 100.408 165.416 100.408Z"
            fill="#4F77D3" />
        <path
            d="M169.643 100.408H172.639C172.925 100.408 173.076 101.891 172.639 101.891H169.643C169.19 101.891 169.29 100.408 169.643 100.408Z"
            fill="#4F77D3" />
        <path
            d="M159.134 98.2246H162.129C162.416 98.2246 162.567 99.7075 162.129 99.7075H159.134C158.681 99.7056 158.78 98.2246 159.134 98.2246Z"
            fill="#4F77D3" />
        <path
            d="M163.366 98.2246H166.362C166.648 98.2246 166.799 99.7075 166.362 99.7075H163.366C162.911 99.7056 163.003 98.2246 163.366 98.2246Z"
            fill="#4F77D3" />
        <path
            d="M167.589 98.2246H170.584C170.871 98.2246 171.022 99.7075 170.584 99.7075H167.589C167.14 99.7056 167.239 98.2246 167.589 98.2246Z"
            fill="#4F77D3" />
        <path
            d="M161.186 96.0391H164.182C164.468 96.0391 164.619 97.522 164.182 97.522H161.186C160.733 97.522 160.833 96.0391 161.186 96.0391Z"
            fill="#4F77D3" />
        <path
            d="M165.416 96.0391H168.411C168.698 96.0391 168.849 97.522 168.411 97.522H165.416C164.961 97.522 165.062 96.0391 165.416 96.0391Z"
            fill="#4F77D3" />
        <path
            d="M169.643 96.0391H172.639C172.925 96.0391 173.076 97.522 172.639 97.522H169.643C169.19 97.522 169.29 96.0391 169.643 96.0391Z"
            fill="#4F77D3" />
        <path
            d="M107.786 98.2246H110.781C111.068 98.2246 111.219 99.7075 110.781 99.7075H107.786C107.331 99.7056 107.432 98.2246 107.786 98.2246Z"
            fill="#4F77D3" />
        <path
            d="M112.016 98.2246H115.011C115.297 98.2246 115.448 99.7075 115.011 99.7075H112.016C111.563 99.7056 111.662 98.2246 112.016 98.2246Z"
            fill="#4F77D3" />
        <path
            d="M116.244 98.2246H119.239C119.526 98.2246 119.677 99.7075 119.239 99.7075H116.244C115.789 99.7056 115.89 98.2246 116.244 98.2246Z"
            fill="#4F77D3" />
        <path
            d="M120.472 98.2246H123.467C123.754 98.2246 123.905 99.7075 123.467 99.7075H120.472C120.019 99.7056 120.118 98.2246 120.472 98.2246Z"
            fill="#4F77D3" />
        <path
            d="M124.704 98.2246H127.699C127.986 98.2246 128.137 99.7075 127.699 99.7075H124.704C124.249 99.7056 124.35 98.2246 124.704 98.2246Z"
            fill="#4F77D3" />
        <path
            d="M128.932 98.2246H131.927C132.213 98.2246 132.364 99.7075 131.927 99.7075H128.932C128.479 99.7056 128.578 98.2246 128.932 98.2246Z"
            fill="#4F77D3" />
        <path
            d="M133.16 98.2246H136.155C136.442 98.2246 136.593 99.7075 136.155 99.7075H133.16C132.705 99.7056 132.801 98.2246 133.16 98.2246Z"
            fill="#4F77D3" />
        <path
            d="M105.607 96.0391H108.602C108.889 96.0391 109.04 97.522 108.602 97.522H105.607C105.152 97.522 105.254 96.0391 105.607 96.0391Z"
            fill="#4F77D3" />
        <path
            d="M109.838 96.0391H112.833C113.12 96.0391 113.271 97.522 112.833 97.522H109.838C109.383 97.522 109.483 96.0391 109.838 96.0391Z"
            fill="#4F77D3" />
        <path
            d="M114.069 96.0391H117.064C117.351 96.0391 117.502 97.522 117.064 97.522H114.069C113.61 97.522 113.712 96.0391 114.069 96.0391Z"
            fill="#4F77D3" />
        <path
            d="M118.296 96.0391H121.291C121.578 96.0391 121.729 97.522 121.291 97.522H118.296C117.841 97.522 117.942 96.0391 118.296 96.0391Z"
            fill="#4F77D3" />
        <path
            d="M122.524 96.0391H125.52C125.806 96.0391 125.957 97.522 125.52 97.522H122.524C122.071 97.522 122.171 96.0391 122.524 96.0391Z"
            fill="#4F77D3" />
        <path
            d="M126.755 96.0391H129.744C130.031 96.0391 130.182 97.522 129.744 97.522H126.749C126.304 97.522 126.401 96.0391 126.755 96.0391Z"
            fill="#4F77D3" />
        <path
            d="M130.982 96.0391H133.978C134.264 96.0391 134.415 97.522 133.978 97.522H130.982C130.529 97.522 130.629 96.0391 130.982 96.0391Z"
            fill="#4F77D3" />
        <path
            d="M135.211 96.0391H138.206C138.493 96.0391 138.644 97.522 138.206 97.522H135.211C134.756 97.522 134.857 96.0391 135.211 96.0391Z"
            fill="#4F77D3" />
        <path
            d="M194.391 127.725C194.391 127.357 194.548 126.569 194.24 126.271C193.933 125.973 193.204 126.163 192.849 126.193C192.493 126.223 192.48 126.793 192.849 126.763C193.065 126.746 193.678 126.597 193.864 126.713C193.736 126.633 193.81 127.009 193.812 127.131C193.812 127.328 193.812 127.527 193.812 127.725C193.812 128.121 193.812 128.517 193.812 128.912C193.826 129.034 193.823 129.157 193.803 129.278C193.741 129.349 193.181 129.278 193.099 129.278C193.023 129.278 192.95 129.308 192.896 129.362C192.843 129.415 192.813 129.488 192.813 129.563C192.813 129.639 192.843 129.711 192.896 129.765C192.95 129.818 193.023 129.848 193.099 129.848C193.482 129.848 194.128 129.987 194.33 129.542C194.54 129.066 194.393 128.236 194.391 127.725Z"
            fill="#07336C" />
        <path
            d="M126.2 127.98H119.853V132.537H126.2C126.809 132.537 127.392 132.297 127.822 131.87C128.252 131.443 128.494 130.863 128.494 130.259C128.494 129.655 128.252 129.075 127.822 128.648C127.392 128.221 126.809 127.98 126.2 127.98Z"
            fill="#567DD6" />
        <path
            d="M120.604 125.723H117.19C115.976 125.723 114.992 126.7 114.992 127.906V132.606C114.992 133.811 115.976 134.789 117.19 134.789H120.604C121.818 134.789 122.802 133.811 122.802 132.606V127.906C122.802 126.7 121.818 125.723 120.604 125.723Z"
            fill="#2246A8" />
        <path
            d="M119.923 125.869H117.048C116.027 125.869 115.198 126.692 115.198 127.707V131.664C115.198 132.679 116.027 133.502 117.048 133.502H119.923C120.945 133.502 121.774 132.679 121.774 131.664V127.707C121.774 126.692 120.945 125.869 119.923 125.869Z"
            fill="#567DD6" />
        <path
            d="M97.5874 143.001H93V137.478C93 134.922 94.0222 132.47 95.8418 130.663C97.6613 128.855 100.129 127.84 102.702 127.84H116.189C116.798 127.84 117.381 128.08 117.811 128.507C118.241 128.934 118.483 129.514 118.483 130.118C118.483 130.723 118.241 131.302 117.811 131.729C117.381 132.157 116.798 132.397 116.189 132.397H102.702C101.344 132.397 100.041 132.933 99.0802 133.887C98.1195 134.841 97.5798 136.136 97.5798 137.485L97.5874 143.001Z"
            fill="#567DD6" />
        <path
            d="M104.946 130.705C102.372 130.705 99.9045 131.72 98.0849 133.528C96.2654 135.335 95.2432 137.787 95.2432 140.343V143.001H97.5866V137.478C97.5866 136.128 98.1263 134.834 99.0869 133.88C100.048 132.925 101.351 132.389 102.709 132.389H116.196C116.699 132.388 117.188 132.223 117.587 131.919C117.987 131.615 118.274 131.189 118.406 130.707L104.946 130.705Z"
            fill="#2246A8" />
        <path d="M121.706 129.83H118.2V130.4H121.706V129.83Z" fill="#07336C" />
        <path d="M123.47 126.329L121.575 129.82L122.08 130.091L123.975 126.599L123.47 126.329Z" fill="#07336C" />
        <path d="M122.065 130.041L121.695 130.477L124.831 133.101L125.2 132.665L122.065 130.041Z" fill="#07336C" />
        <path
            d="M122.187 134.358C121.342 134.358 120.516 134.109 119.814 133.643C119.111 133.177 118.564 132.514 118.24 131.739C117.917 130.963 117.832 130.11 117.997 129.287C118.162 128.464 118.569 127.708 119.166 127.114C119.764 126.521 120.525 126.116 121.354 125.953C122.182 125.789 123.041 125.873 123.822 126.194C124.603 126.515 125.27 127.059 125.739 127.757C126.209 128.455 126.459 129.275 126.459 130.115C126.458 131.24 126.007 132.318 125.206 133.114C124.405 133.909 123.32 134.357 122.187 134.358ZM122.187 126.439C121.455 126.439 120.74 126.654 120.131 127.058C119.523 127.462 119.048 128.036 118.768 128.708C118.488 129.38 118.415 130.119 118.558 130.832C118.7 131.545 119.053 132.2 119.57 132.714C120.088 133.228 120.747 133.578 121.465 133.72C122.183 133.862 122.927 133.789 123.603 133.511C124.279 133.233 124.857 132.761 125.264 132.157C125.671 131.552 125.888 130.842 125.888 130.115C125.887 129.14 125.496 128.206 124.803 127.517C124.109 126.827 123.168 126.44 122.187 126.439Z"
            fill="#07336C" />
        <path
            d="M121.708 131.089C122.251 131.089 122.691 130.652 122.691 130.113C122.691 129.574 122.251 129.137 121.708 129.137C121.165 129.137 120.726 129.574 120.726 130.113C120.726 130.652 121.165 131.089 121.708 131.089Z"
            fill="#07336C" />
        <path
            d="M103.578 128.333C100.461 128.267 97.3185 129.282 95.6039 132.028C95.4128 132.339 95.904 132.626 96.099 132.315C97.7065 129.748 100.667 128.84 103.578 128.897C103.94 128.91 103.94 128.341 103.578 128.333Z"
            fill="#7096E0" />
        <path
            d="M108.547 128.459C107.366 128.395 106.183 128.35 104.999 128.324C104.63 128.324 104.63 128.895 104.999 128.895C106.182 128.921 107.364 128.966 108.547 129.029C108.91 129.05 108.91 128.48 108.547 128.459Z"
            fill="#7096E0" />
        <path
            d="M119.056 126.032C117.944 126.093 116.535 125.831 115.9 126.998C115.725 127.321 116.22 127.61 116.396 127.285C116.9 126.355 118.187 126.649 119.056 126.6C119.421 126.581 119.421 126.011 119.056 126.032Z"
            fill="#7096E0" />
    </g>
    <defs>
        <clipPath id="clip0_4778_68182">
            <rect width="368" height="158" fill="white" />
        </clipPath>
    </defs>
</svg>