<svg width="13" height="16" viewBox="0 0 13 16" fill="none" xmlns="http://www.w3.org/2000/svg">
    <path
        d="M1.53611 15.0554C1.3287 15.0554 1.1537 14.9872 1.01111 14.8508C0.868519 14.715 0.797222 14.5434 0.797222 14.3359V12.7804C0.563889 12.5341 0.372815 12.252 0.224 11.9342C0.0746668 11.6168 0 11.2702 0 10.8943V3.6415C0 2.5915 0.47963 1.83317 1.43889 1.3665C2.39815 0.899837 3.93426 0.666504 6.04722 0.666504C8.21204 0.666504 9.76111 0.896467 10.6944 1.35639C11.6278 1.81684 12.0944 2.57854 12.0944 3.6415V10.8943C12.0944 11.2702 12.02 11.6168 11.8712 11.9342C11.7219 12.252 11.5306 12.5341 11.2972 12.7804V14.3359C11.2972 14.5434 11.2259 14.715 11.0833 14.8508C10.9407 14.9872 10.7657 15.0554 10.5583 15.0554H9.85833C9.65093 15.0554 9.47593 14.9872 9.33333 14.8508C9.19074 14.715 9.11945 14.5434 9.11945 14.3359V13.5387H2.975V14.3359C2.975 14.5434 2.9037 14.715 2.76111 14.8508C2.61852 14.9872 2.44352 15.0554 2.23611 15.0554H1.53611ZM1.45833 6.7915H10.6361V4.38039H1.45833V6.7915ZM3.36389 11.2832C3.675 11.2832 3.94074 11.173 4.16111 10.9526C4.38148 10.7322 4.49167 10.4665 4.49167 10.1554C4.49167 9.84428 4.38148 9.57854 4.16111 9.35817C3.94074 9.1378 3.675 9.02762 3.36389 9.02762C3.05278 9.02762 2.78704 9.1378 2.56667 9.35817C2.3463 9.57854 2.23611 9.84428 2.23611 10.1554C2.23611 10.4665 2.3463 10.7322 2.56667 10.9526C2.78704 11.173 3.05278 11.2832 3.36389 11.2832ZM8.73056 11.2832C9.04167 11.2832 9.30741 11.173 9.52778 10.9526C9.74815 10.7322 9.85833 10.4665 9.85833 10.1554C9.85833 9.84428 9.74815 9.57854 9.52778 9.35817C9.30741 9.1378 9.04167 9.02762 8.73056 9.02762C8.41945 9.02762 8.1537 9.1378 7.93333 9.35817C7.71296 9.57854 7.60278 9.84428 7.60278 10.1554C7.60278 10.4665 7.71296 10.7322 7.93333 10.9526C8.1537 11.173 8.41945 11.2832 8.73056 11.2832Z"
        fill="white" />
</svg>