<svg width="24" height="24" viewBox="0 0 24 24" fill="none" xmlns="http://www.w3.org/2000/svg">
    <rect width="24" height="24" rx="4" fill="#0085FF" />
    <rect x="0.5" y="0.5" width="23" height="23" rx="3.5" stroke="white" stroke-opacity="0.9" />
    <path
        d="M7.52412 19.1998C7.31833 19.1998 7.14469 19.1316 7.00322 18.9951C6.86174 18.8591 6.791 18.6874 6.791 18.4798V16.923C6.55949 16.6766 6.3699 16.3943 6.22225 16.0762C6.07408 15.7586 6 15.4117 6 15.0355V7.7771C6 6.72629 6.47588 5.96737 7.42765 5.50035C8.37942 5.03332 9.90354 4.7998 12 4.7998C14.1479 4.7998 15.6849 5.02995 16.6109 5.49023C17.537 5.95103 18 6.71332 18 7.7771V15.0355C18 15.4117 17.9262 15.7586 17.7785 16.0762C17.6304 16.3943 17.4405 16.6766 17.209 16.923V18.4798C17.209 18.6874 17.1383 18.8591 16.9968 18.9951C16.8553 19.1316 16.6817 19.1998 16.4759 19.1998H15.7814C15.5756 19.1998 15.4019 19.1316 15.2605 18.9951C15.119 18.8591 15.0482 18.6874 15.0482 18.4798V17.682H8.95177V18.4798C8.95177 18.6874 8.88103 18.8591 8.73955 18.9951C8.59807 19.1316 8.42444 19.1998 8.21865 19.1998H7.52412ZM7.44695 10.9295H16.5531V8.51656H7.44695V10.9295ZM9.33762 15.4247C9.6463 15.4247 9.90997 15.3144 10.1286 15.0939C10.3473 14.8733 10.4566 14.6074 10.4566 14.296C10.4566 13.9847 10.3473 13.7187 10.1286 13.4982C9.90997 13.2776 9.6463 13.1674 9.33762 13.1674C9.02894 13.1674 8.76527 13.2776 8.54662 13.4982C8.32797 13.7187 8.21865 13.9847 8.21865 14.296C8.21865 14.6074 8.32797 14.8733 8.54662 15.0939C8.76527 15.3144 9.02894 15.4247 9.33762 15.4247ZM14.6624 15.4247C14.9711 15.4247 15.2347 15.3144 15.4534 15.0939C15.672 14.8733 15.7814 14.6074 15.7814 14.296C15.7814 13.9847 15.672 13.7187 15.4534 13.4982C15.2347 13.2776 14.9711 13.1674 14.6624 13.1674C14.3537 13.1674 14.09 13.2776 13.8714 13.4982C13.6527 13.7187 13.5434 13.9847 13.5434 14.296C13.5434 14.6074 13.6527 14.8733 13.8714 15.0939C14.09 15.3144 14.3537 15.4247 14.6624 15.4247Z"
        fill="white" />
</svg>