<svg width="48" height="48" viewBox="0 0 48 48" fill="none" xmlns="http://www.w3.org/2000/svg">
    <rect width="48" height="48" rx="24" fill="#0085FF" />
    <mask id="mask0_4524_20672" style="mask-type:alpha" maskUnits="userSpaceOnUse" x="10" y="10" width="28" height="28">
        <rect x="10" y="10" width="28" height="28" fill="#D9D9D9" />
    </mask>
    <g mask="url(#mask0_4524_20672)">
        <path
            d="M17.0291 31.9625V32.6333C17.0291 33.0805 16.8736 33.4597 16.5625 33.7708C16.2513 34.0819 15.8625 34.2375 15.3958 34.2375C14.9486 34.2375 14.5647 34.0769 14.2443 33.7557C13.9231 33.4352 13.7625 33.0514 13.7625 32.6042V24.0292L16.1833 17.175C16.3 16.8444 16.4944 16.5819 16.7666 16.3875C17.0388 16.193 17.35 16.0958 17.7 16.0958H30.2999C30.65 16.0958 30.9611 16.193 31.2333 16.3875C31.5055 16.5819 31.7 16.8444 31.8166 17.175L34.2374 24.0292V32.6333C34.2374 33.0805 34.0819 33.4597 33.7708 33.7708C33.4597 34.0819 33.0708 34.2375 32.6041 34.2375C32.1569 34.2375 31.7731 34.0769 31.4526 33.7557C31.1314 33.4352 30.9708 33.0514 30.9708 32.6042V31.9625H17.0291ZM16.825 21.8417H31.1749L29.9208 18.2833H18.0791L16.825 21.8417ZM18.8083 28.5792C19.275 28.5792 19.6736 28.4139 20.0041 28.0833C20.3347 27.7528 20.5 27.3542 20.5 26.8875C20.5 26.4208 20.3347 26.0222 20.0041 25.6917C19.6736 25.3611 19.275 25.1958 18.8083 25.1958C18.3416 25.1958 17.943 25.3611 17.6125 25.6917C17.2819 26.0222 17.1166 26.4208 17.1166 26.8875C17.1166 27.3542 17.2819 27.7528 17.6125 28.0833C17.943 28.4139 18.3416 28.5792 18.8083 28.5792ZM29.1916 28.5792C29.6583 28.5792 30.0569 28.4139 30.3875 28.0833C30.718 27.7528 30.8833 27.3542 30.8833 26.8875C30.8833 26.4208 30.718 26.0222 30.3875 25.6917C30.0569 25.3611 29.6583 25.1958 29.1916 25.1958C28.725 25.1958 28.3263 25.3611 27.9958 25.6917C27.6652 26.0222 27.5 26.4208 27.5 26.8875C27.5 27.3542 27.6652 27.7528 27.9958 28.0833C28.3263 28.4139 28.725 28.5792 29.1916 28.5792Z"
            fill="white" />
    </g>
</svg>