<svg width="48" height="48" viewBox="0 0 48 48" fill="none" xmlns="http://www.w3.org/2000/svg">
    <rect width="48" height="48" rx="24" fill="#0085FF" />
    <mask id="mask0_4524_20719" style="mask-type:alpha" maskUnits="userSpaceOnUse" x="10" y="10" width="28" height="28">
        <rect x="10" y="10" width="28" height="28" fill="#D9D9D9" />
    </mask>
    <g mask="url(#mask0_4524_20719)">
        <path
            d="M24.875 34.5583C24.6611 34.3445 24.5542 34.082 24.5542 33.7708C24.5542 33.4597 24.6611 33.1972 24.875 32.9833L28.1708 29.6875L18.3125 19.8292L15.0167 23.125C14.7833 23.3389 14.5158 23.4458 14.214 23.4458C13.913 23.4458 13.6556 23.3292 13.4417 23.0958C13.2083 22.882 13.0917 22.6195 13.0917 22.3083C13.0917 21.9972 13.2083 21.7347 13.4417 21.5208L14.2875 20.675L13.4708 19.8583C13.257 19.6445 13.15 19.3917 13.15 19.1C13.15 18.8083 13.257 18.5556 13.4708 18.3417L15.1625 16.65L14.3167 15.8042C14.1028 15.5903 14.0009 15.3375 14.011 15.0458C14.0203 14.7542 14.132 14.5014 14.3458 14.2875C14.5597 14.0736 14.8125 13.9667 15.1042 13.9667C15.3958 13.9667 15.6486 14.0736 15.8625 14.2875L16.6792 15.1042L18.3708 13.4417C18.5847 13.2278 18.8375 13.1208 19.1292 13.1208C19.4208 13.1208 19.6736 13.2278 19.8875 13.4417L20.7042 14.2583L21.5792 13.4125C21.7931 13.1986 22.0556 13.0917 22.3667 13.0917C22.6778 13.0917 22.9403 13.1986 23.1542 13.4125C23.3681 13.6264 23.475 13.8889 23.475 14.2C23.475 14.5111 23.3681 14.7736 23.1542 14.9875L19.8583 18.2833L29.7167 28.1417L33.0125 24.8458C33.2264 24.6125 33.4889 24.4958 33.8 24.4958C34.1111 24.4958 34.3736 24.6125 34.5875 24.8458C34.8208 25.0597 34.9375 25.3222 34.9375 25.6333C34.9375 25.9445 34.8208 26.207 34.5875 26.4208L33.7417 27.2958L34.5583 28.1125C34.7722 28.3264 34.8792 28.5792 34.8792 28.8708C34.8792 29.1625 34.7722 29.4153 34.5583 29.6292L32.8667 31.3208L33.6833 32.1375C33.8972 32.3514 34.0042 32.6042 34.0042 32.8958C34.0042 33.1875 33.8972 33.4403 33.6833 33.6542C33.4695 33.8681 33.2167 33.975 32.925 33.975C32.6333 33.975 32.3806 33.8681 32.1667 33.6542L31.3208 32.8375L29.6583 34.5292C29.4445 34.7431 29.1917 34.85 28.9 34.85C28.6083 34.85 28.3556 34.7431 28.1417 34.5292L27.2958 33.6833L26.45 34.5583C26.2361 34.7722 25.9736 34.8792 25.6625 34.8792C25.3514 34.8792 25.0889 34.7722 24.875 34.5583Z"
            fill="white" />
    </g>
</svg>