<svg width="48" height="48" viewBox="0 0 48 48" fill="none" xmlns="http://www.w3.org/2000/svg">
    <rect width="48" height="48" rx="24" fill="#0085FF" />
    <mask id="mask0_4524_20687" style="mask-type:alpha" maskUnits="userSpaceOnUse" x="10" y="10" width="28" height="28">
        <rect x="10" y="10" width="28" height="28" fill="#D9D9D9" />
    </mask>
    <g mask="url(#mask0_4524_20687)">
        <path
            d="M15.425 31.9333C14.5305 31.9333 13.8208 31.5981 13.2958 30.9276C12.7708 30.2564 12.5666 29.4736 12.6833 28.5792L13.8791 19.9458C14.0541 18.8375 14.555 17.9139 15.3818 17.175C16.2078 16.4361 17.1847 16.0667 18.3125 16.0667H29.6875C30.8153 16.0667 31.7925 16.4361 32.6193 17.175C33.4453 17.9139 33.9458 18.8375 34.1208 19.9458L35.3166 28.5792C35.4528 29.4736 35.2583 30.2564 34.7333 30.9276C34.2083 31.5981 33.4889 31.9333 32.575 31.9333C32.2055 31.9333 31.8509 31.8653 31.511 31.7291C31.1703 31.593 30.8541 31.3889 30.5625 31.1167L27.9375 28.4917H20.0625L17.4375 31.1167C17.1653 31.3889 16.8592 31.593 16.5193 31.7291C16.1786 31.8653 15.8139 31.9333 15.425 31.9333ZM29.7458 25.1375C30.0569 25.1375 30.3245 25.0259 30.5485 24.8027C30.7717 24.5787 30.8833 24.3111 30.8833 24C30.8833 23.6889 30.7717 23.4213 30.5485 23.1973C30.3245 22.9741 30.0569 22.8625 29.7458 22.8625C29.4347 22.8625 29.1675 22.9741 28.9443 23.1973C28.7203 23.4213 28.6083 23.6889 28.6083 24C28.6083 24.3111 28.7203 24.5787 28.9443 24.8027C29.1675 25.0259 29.4347 25.1375 29.7458 25.1375ZM27.4416 21.6958C27.7528 21.6958 28.0203 21.5838 28.2443 21.3598C28.4675 21.1366 28.5791 20.8694 28.5791 20.5583C28.5791 20.2472 28.4675 19.9797 28.2443 19.7557C28.0203 19.5324 27.7528 19.4208 27.4416 19.4208C27.1305 19.4208 26.8634 19.5324 26.6401 19.7557C26.4161 19.9797 26.3041 20.2472 26.3041 20.5583C26.3041 20.8694 26.4161 21.1366 26.6401 21.3598C26.8634 21.5838 27.1305 21.6958 27.4416 21.6958ZM20.0041 25.1083C20.2375 25.1083 20.4319 25.0255 20.5875 24.8598C20.743 24.6949 20.8208 24.4958 20.8208 24.2625V23.0958H22.0166C22.25 23.0958 22.4444 23.018 22.6 22.8625C22.7555 22.7069 22.8333 22.5125 22.8333 22.2792C22.8333 22.0458 22.7555 21.8514 22.6 21.6958C22.4444 21.5403 22.25 21.4625 22.0166 21.4625H20.8208V20.2667C20.8208 20.0333 20.743 19.8389 20.5875 19.6833C20.4319 19.5278 20.2375 19.45 20.0041 19.45C19.7708 19.45 19.5713 19.5278 19.4056 19.6833C19.2408 19.8389 19.1583 20.0333 19.1583 20.2667V21.4625H17.9625C17.7291 21.4625 17.5347 21.5403 17.3791 21.6958C17.2236 21.8514 17.1458 22.0458 17.1458 22.2792C17.1458 22.5125 17.2236 22.7069 17.3791 22.8625C17.5347 23.018 17.7291 23.0958 17.9625 23.0958H19.1583V24.2625C19.1583 24.4958 19.2408 24.6949 19.4056 24.8598C19.5713 25.0255 19.7708 25.1083 20.0041 25.1083Z"
            fill="white" />
    </g>
</svg>