<svg width="48" height="48" viewBox="0 0 48 48" fill="none" xmlns="http://www.w3.org/2000/svg">
    <rect width="48" height="48" rx="24" fill="#0085FF" />
    <mask id="mask0_4524_20664" style="mask-type:alpha" maskUnits="userSpaceOnUse" x="10" y="10" width="28" height="28">
        <rect x="10" y="10" width="28" height="28" fill="#D9D9D9" />
    </mask>
    <g mask="url(#mask0_4524_20664)">
        <path
            d="M14.2584 23.8833C13.9862 23.8833 13.8065 23.7616 13.7194 23.5182C13.6315 23.2755 13.6848 23.0764 13.8792 22.9208L23.2709 14.4625C23.4848 14.2681 23.7325 14.1708 24.0141 14.1708C24.2964 14.1708 24.5348 14.2681 24.7292 14.4625L28.6959 18.0208V16.125C28.6959 15.8139 28.7982 15.5561 29.0027 15.3515C29.2065 15.1477 29.4639 15.0458 29.7751 15.0458H30.8542C31.1653 15.0458 31.4232 15.1477 31.6277 15.3515C31.8315 15.5561 31.9334 15.8139 31.9334 16.125V20.9375L34.1209 22.9208C34.3153 23.0764 34.3686 23.2755 34.2807 23.5182C34.1936 23.7616 34.0237 23.8833 33.7709 23.8833H32.3417C32.1862 23.8833 32.0547 23.8588 31.9474 23.8098C31.8408 23.7616 31.7389 23.6986 31.6417 23.6208L24.0001 16.7667L16.3584 23.6208C16.2806 23.6986 16.1834 23.7616 16.0667 23.8098C15.9501 23.8588 15.8237 23.8833 15.6876 23.8833H14.2584ZM21.6667 33.0708C21.3556 33.0708 21.0982 32.9686 20.8944 32.764C20.6898 32.5602 20.5876 32.3028 20.5876 31.9917V27.2958C20.5876 26.9847 20.6898 26.7269 20.8944 26.5223C21.0982 26.3186 21.3556 26.2167 21.6667 26.2167H26.3625C26.6542 26.2167 26.907 26.3186 27.1209 26.5223C27.3348 26.7269 27.4417 26.9847 27.4417 27.2958V31.9917C27.4417 32.3028 27.3348 32.5602 27.1209 32.764C26.907 32.9686 26.6542 33.0708 26.3625 33.0708H21.6667ZM22.7751 30.8833H25.2542V28.4042H22.7751V30.8833Z"
            fill="white" />
    </g>
</svg>