<svg width="48" height="48" viewBox="0 0 48 48" fill="none" xmlns="http://www.w3.org/2000/svg">
    <rect width="48" height="48" rx="24" fill="#0085FF" />
    <mask id="mask0_4524_20701" style="mask-type:alpha" maskUnits="userSpaceOnUse" x="10" y="10" width="28" height="28">
        <rect x="10" y="10" width="28" height="28" fill="#D9D9D9" />
    </mask>
    <g mask="url(#mask0_4524_20701)">
        <path
            d="M15.425 35.4333C14.6473 35.4333 14.0736 35.1759 13.7042 34.661C13.3348 34.1453 13.2278 33.4986 13.3834 32.7208C13.6167 31.6903 13.7769 30.6597 13.864 29.6292C13.9519 28.5986 14.0056 27.5681 14.025 26.5375C13.2667 26.2458 12.6445 25.7648 12.1584 25.0943C11.6723 24.4231 11.4292 23.65 11.4292 22.775V21.9875C11.4292 21.5986 11.5556 21.2241 11.8084 20.864C12.0611 20.5047 12.3723 20.2472 12.7417 20.0917C14.9195 19.2167 16.8834 18.1472 18.6334 16.8833C20.3834 15.6194 21.7348 14.5792 22.6875 13.7625C22.882 13.6069 23.0861 13.4903 23.3 13.4125C23.5139 13.3347 23.7473 13.2958 24 13.2958C24.2528 13.2958 24.4912 13.3347 24.7152 13.4125C24.9384 13.4903 25.1375 13.6069 25.3125 13.7625C26.2848 14.5792 27.6412 15.6194 29.3819 16.8833C31.1218 18.1472 33.0903 19.2167 35.2875 20.0917C35.6375 20.2472 35.9436 20.5047 36.2057 20.864C36.4686 21.2241 36.6 21.5986 36.6 21.9875V22.775C36.6 23.65 36.3523 24.4231 35.8569 25.0943C35.3606 25.7648 34.7431 26.2458 34.0042 26.5375C34.0236 27.5681 34.0723 28.5986 34.15 29.6292C34.2278 30.6597 34.3834 31.6903 34.6167 32.7208C34.7917 33.4986 34.6898 34.1453 34.311 34.661C33.9315 35.1759 33.3625 35.4333 32.6042 35.4333H15.425ZM16.7959 20.5875H31.2334C29.7167 19.7514 28.3412 18.8764 27.1069 17.9625C25.8718 17.0486 24.8361 16.2319 24 15.5125C23.1639 16.2319 22.1334 17.0486 20.9084 17.9625C19.6834 18.8764 18.3125 19.7514 16.7959 20.5875ZM26.8875 24.6125C27.3736 24.6125 27.7917 24.4325 28.1417 24.0723C28.4917 23.713 28.6667 23.2806 28.6667 22.775H25.1084C25.1084 23.2806 25.2787 23.713 25.6194 24.0723C25.9593 24.4325 26.382 24.6125 26.8875 24.6125ZM21.1417 24.6125C21.6278 24.6125 22.0459 24.4325 22.3959 24.0723C22.7459 23.713 22.9209 23.2806 22.9209 22.775H19.3625C19.3625 23.2806 19.5329 23.713 19.8735 24.0723C20.2134 24.4325 20.6361 24.6125 21.1417 24.6125ZM15.3959 24.6125C15.882 24.6125 16.3 24.4325 16.65 24.0723C17 23.713 17.175 23.2806 17.175 22.775H13.6167C13.6167 23.2806 13.787 23.713 14.1277 24.0723C14.4676 24.4325 14.8903 24.6125 15.3959 24.6125ZM15.4834 33.2458H18.6917C18.8667 32.0792 19.0028 30.9269 19.1 29.789C19.1973 28.6519 19.275 27.5 19.3334 26.3333C19.1389 26.2361 18.9495 26.1241 18.7652 25.9973C18.5801 25.8713 18.4195 25.7306 18.2834 25.575C17.9917 25.8667 17.6709 26.1047 17.3209 26.289C16.9709 26.4741 16.6014 26.6153 16.2125 26.7125C16.1736 27.8208 16.1009 28.9144 15.9944 29.9932C15.887 31.0727 15.7167 32.1569 15.4834 33.2458ZM20.9084 33.2458H27.1209C26.9653 32.1569 26.844 31.0778 26.7569 30.0083C26.669 28.9389 26.5861 27.8597 26.5084 26.7708C26.0028 26.7319 25.5361 26.6056 25.1084 26.3917C24.6806 26.1778 24.3111 25.8958 24 25.5458C23.6889 25.8958 23.3148 26.1778 22.8777 26.3917C22.4398 26.6056 21.9778 26.7319 21.4917 26.7708C21.4334 27.8597 21.3606 28.9389 21.2735 30.0083C21.1856 31.0778 21.0639 32.1569 20.9084 33.2458ZM29.3375 33.2458H32.5167C32.2834 32.1569 32.1181 31.0727 32.0209 29.9932C31.9236 28.9144 31.8556 27.8208 31.8167 26.7125C31.4084 26.6153 31.0343 26.4741 30.6944 26.289C30.3537 26.1047 30.0473 25.8667 29.775 25.575C29.6195 25.7306 29.4495 25.8713 29.2652 25.9973C29.0801 26.1241 28.8903 26.2361 28.6959 26.3333C28.7542 27.5 28.837 28.6519 28.9444 29.789C29.0509 30.9269 29.182 32.0792 29.3375 33.2458ZM32.6334 24.6125C33.1195 24.6125 33.5375 24.4325 33.8875 24.0723C34.2375 23.713 34.4125 23.2806 34.4125 22.775H30.8542C30.8542 23.2806 31.0241 23.713 31.364 24.0723C31.7047 24.4325 32.1278 24.6125 32.6334 24.6125Z"
            fill="white" />
    </g>
</svg>