<svg width="48" height="48" viewBox="0 0 48 48" fill="none" xmlns="http://www.w3.org/2000/svg">
    <rect width="48" height="48" rx="24" fill="#0085FF" />
    <mask id="mask0_4524_20650" style="mask-type:alpha" maskUnits="userSpaceOnUse" x="10" y="10" width="28" height="28">
        <rect x="10" y="10" width="28" height="28" fill="#D9D9D9" />
    </mask>
    <g mask="url(#mask0_4524_20650)">
        <path
            d="M13.8792 31.9333C13.2764 31.9333 12.7611 31.7194 12.3333 31.2916C11.9055 30.8639 11.6917 30.3486 11.6917 29.7458V18.2542C11.6917 17.6514 11.9055 17.1361 12.3333 16.7083C12.7611 16.2805 13.2764 16.0667 13.8792 16.0667H25.3708C25.9736 16.0667 26.4889 16.2805 26.9166 16.7083C27.3444 17.1361 27.5583 17.6514 27.5583 18.2542V29.7458C27.5583 30.3486 27.3444 30.8639 26.9166 31.2916C26.4889 31.7194 25.9736 31.9333 25.3708 31.9333H13.8792ZM30.8541 31.9333C30.543 31.9333 30.2805 31.8264 30.0667 31.6125C29.8528 31.3986 29.7458 31.1361 29.7458 30.825V17.1458C29.7458 16.8542 29.8528 16.6014 30.0667 16.3875C30.2805 16.1736 30.543 16.0667 30.8541 16.0667C31.1458 16.0667 31.3986 16.1736 31.6125 16.3875C31.8264 16.6014 31.9333 16.8542 31.9333 17.1458V30.825C31.9333 31.1361 31.8264 31.3986 31.6125 31.6125C31.3986 31.8264 31.1458 31.9333 30.8541 31.9333ZM35.2291 31.9333C34.918 31.9333 34.6555 31.8264 34.4417 31.6125C34.2278 31.3986 34.1208 31.1361 34.1208 30.825V17.1458C34.1208 16.8542 34.2278 16.6014 34.4417 16.3875C34.6555 16.1736 34.918 16.0667 35.2291 16.0667C35.5208 16.0667 35.7736 16.1736 35.9875 16.3875C36.2014 16.6014 36.3083 16.8542 36.3083 17.1458V30.825C36.3083 31.1361 36.2014 31.3986 35.9875 31.6125C35.7736 31.8264 35.5208 31.9333 35.2291 31.9333ZM13.8792 27.9083C14.7153 27.4028 15.6148 27.0185 16.5777 26.7557C17.5398 26.4935 18.5555 26.3625 19.625 26.3625C20.6944 26.3625 21.7106 26.4935 22.6735 26.7557C23.6356 27.0185 24.5347 27.4028 25.3708 27.9083V18.2542H13.8792V27.9083ZM19.625 25.4C18.75 25.4 18.0111 25.0986 17.4083 24.4958C16.8055 23.893 16.5042 23.1542 16.5042 22.2792C16.5042 21.4042 16.8055 20.6653 17.4083 20.0625C18.0111 19.4597 18.75 19.1583 19.625 19.1583C20.5 19.1583 21.2389 19.4597 21.8417 20.0625C22.4444 20.6653 22.7458 21.4042 22.7458 22.2792C22.7458 23.1542 22.4444 23.893 21.8417 24.4958C21.2389 25.0986 20.5 25.4 19.625 25.4Z"
            fill="white" />
    </g>
</svg>