<svg width="146" height="164" viewBox="0 0 146 164" fill="none" xmlns="http://www.w3.org/2000/svg">
    <g filter="url(#filter0_d_1903_71187)">
        <path
            d="M73.51 77.523C73.5041 77.6516 73.4488 77.7729 73.3557 77.8618C73.2625 77.9506 73.1387 78.0001 73.01 78C72.72 78 72.5 77.79 72.49 77.523C71 73 70.734 72.306 67.658 71.376C57.53 68.968 50 59.863 50 49C50 36.297 60.297 26 73 26C85.703 26 96 36.297 96 49C96 59.863 88.47 68.968 78.342 71.376C75.266 72.306 75 73 73.512 77.523H73.51Z"
            fill="#F62417" />
        <path
            d="M73 90C70.79 90 69 88.21 69 86C69 83.79 70.79 82 73 82C75.21 82 77 83.79 77 86C77 88.21 75.21 90 73 90Z"
            fill="white" />
        <path fill-rule="evenodd" clip-rule="evenodd"
            d="M73.0002 88C73.2665 88.006 73.5314 87.9588 73.7792 87.861C74.027 87.7633 74.2528 87.617 74.4434 87.4308C74.6339 87.2446 74.7853 87.0222 74.8887 86.7766C74.9921 86.5311 75.0453 86.2674 75.0454 86.001C75.0455 85.7346 74.9923 85.4708 74.8891 85.2253C74.7858 84.9797 74.6345 84.7572 74.4441 84.5709C74.2537 84.3846 74.0279 84.2382 73.7801 84.1403C73.5324 84.0425 73.2675 83.9951 73.0012 84.001C72.4786 84.0125 71.9814 84.2282 71.6158 84.6018C71.2503 84.9754 71.0455 85.4773 71.0454 86C71.0453 86.5227 71.2498 87.0246 71.6151 87.3984C71.9805 87.7722 72.4776 87.9882 73.0002 88Z"
            fill="#F62417" />
        <mask id="mask0_1903_71187" style="mask-type:alpha" maskUnits="userSpaceOnUse" x="63" y="39" width="20"
            height="20">
            <rect x="63.5" y="39.5" width="19" height="19" fill="#D9D9D9" stroke="white" />
        </mask>
        <g mask="url(#mask0_1903_71187)">
            <path
                d="M73.0002 58.6465L72.3521 58.095C70.0774 56.1594 68.3349 54.3255 67.162 52.5915C65.9906 50.8608 65.3335 49.1563 65.3335 47.5001C65.3335 45.1814 66.0904 43.2391 67.6663 41.7859L73.0002 58.6465ZM73.0002 58.6465L73.6482 58.095M73.0002 58.6465L73.6482 58.095M73.6482 58.095C75.923 56.1593 77.6659 54.3254 78.8392 52.5913L78.8393 52.5913M73.6482 58.095L78.8393 52.5913M78.8393 52.5913C80.0101 50.8606 80.6668 49.1562 80.6668 47.5001C80.6668 45.1813 79.9099 43.239 78.3339 41.7857C76.8161 40.3857 75.0244 39.6667 73.0002 39.6667C70.9759 39.6667 69.1843 40.3857 67.6664 41.7857L78.8393 52.5913ZM72.5312 47.8036L72.53 47.8024C72.3897 47.6623 72.3335 47.5241 72.3335 47.3334C72.3335 47.1427 72.3898 47.0038 72.5306 46.863C72.6705 46.7231 72.8089 46.6667 73.0002 46.6667C73.1912 46.6667 73.3301 46.723 73.4706 46.863C73.6106 47.0035 73.6668 47.1424 73.6668 47.3334C73.6668 47.5247 73.6104 47.6631 73.4706 47.803C73.3297 47.9438 73.1909 48.0001 73.0002 48.0001C72.8095 48.0001 72.6712 47.9438 72.5312 47.8036Z"
                fill="#F62417" stroke="white" stroke-width="2" />
        </g>
    </g>
    <defs>
        <filter id="filter0_d_1903_71187" x="0" y="0" width="146" height="164" filterUnits="userSpaceOnUse"
            color-interpolation-filters="sRGB">
            <feFlood flood-opacity="0" result="BackgroundImageFix" />
            <feColorMatrix in="SourceAlpha" type="matrix" values="0 0 0 0 0 0 0 0 0 0 0 0 0 0 0 0 0 0 127 0"
                result="hardAlpha" />
            <feOffset dy="24" />
            <feGaussianBlur stdDeviation="25" />
            <feColorMatrix type="matrix" values="0 0 0 0 0 0 0 0 0 0 0 0 0 0 0 0 0 0 0.05 0" />
            <feBlend mode="normal" in2="BackgroundImageFix" result="effect1_dropShadow_1903_71187" />
            <feBlend mode="normal" in="SourceGraphic" in2="effect1_dropShadow_1903_71187" result="shape" />
        </filter>
    </defs>
</svg>