<svg width="146" height="164" viewBox="0 0 146 164" fill="none" xmlns="http://www.w3.org/2000/svg">
    <g filter="url(#filter0_d_2772_50966)">
        <path
            d="M73.51 77.523C73.5041 77.6516 73.4488 77.7729 73.3557 77.8618C73.2625 77.9506 73.1387 78.0001 73.01 78C72.72 78 72.5 77.79 72.49 77.523C71 73 70.734 72.306 67.658 71.376C57.53 68.968 50 59.863 50 49C50 36.297 60.297 26 73 26C85.703 26 96 36.297 96 49C96 59.863 88.47 68.968 78.342 71.376C75.266 72.306 75 73 73.512 77.523H73.51Z"
            fill="#33B530" />
        <mask id="mask0_2772_50966" style="mask-type:alpha" maskUnits="userSpaceOnUse" x="59" y="35" width="28"
            height="28">
            <rect x="59" y="35" width="28" height="28" fill="#D9D9D9" />
        </mask>
        <g mask="url(#mask0_2772_50966)">
            <path
                d="M73.0002 55.4167C73.4863 55.4167 73.8993 55.2463 74.2392 54.9057C74.5798 54.5658 74.7502 54.1528 74.7502 53.6667V52.5H75.9168C76.4029 52.5 76.8159 52.3297 77.1558 51.989C77.4965 51.6491 77.6668 51.2361 77.6668 50.75C77.6668 50.2639 77.4965 49.8509 77.1558 49.511C76.8159 49.1703 76.4029 49 75.9168 49H74.7502V47.8333C74.7502 47.3472 74.5798 46.9342 74.2392 46.5943C73.8993 46.2537 73.4863 46.0833 73.0002 46.0833C72.5141 46.0833 72.1011 46.2537 71.7612 46.5943C71.4205 46.9342 71.2502 47.3472 71.2502 47.8333V49H70.0835C69.5974 49 69.1844 49.1703 68.8445 49.511C68.5038 49.8509 68.3335 50.2639 68.3335 50.75C68.3335 51.2361 68.5038 51.6491 68.8445 51.989C69.1844 52.3297 69.5974 52.5 70.0835 52.5H71.2502V53.6667C71.2502 54.1528 71.4205 54.5658 71.7612 54.9057C72.1011 55.2463 72.5141 55.4167 73.0002 55.4167ZM67.1668 59.5C66.5252 59.5 65.9761 59.2717 65.5195 58.8152C65.0622 58.3578 64.8335 57.8083 64.8335 57.1667V44.3333C64.8335 43.6917 65.0622 43.1426 65.5195 42.686C65.9761 42.2287 66.5252 42 67.1668 42H78.8335C79.4752 42 80.0247 42.2287 80.482 42.686C80.9386 43.1426 81.1668 43.6917 81.1668 44.3333V57.1667C81.1668 57.8083 80.9386 58.3578 80.482 58.8152C80.0247 59.2717 79.4752 59.5 78.8335 59.5H67.1668ZM67.1668 40.8333C66.8363 40.8333 66.559 40.7213 66.335 40.4973C66.1118 40.2741 66.0002 39.9972 66.0002 39.6667C66.0002 39.3361 66.1118 39.0588 66.335 38.8348C66.559 38.6116 66.8363 38.5 67.1668 38.5H78.8335C79.1641 38.5 79.4409 38.6116 79.6642 38.8348C79.8882 39.0588 80.0002 39.3361 80.0002 39.6667C80.0002 39.9972 79.8882 40.2741 79.6642 40.4973C79.4409 40.7213 79.1641 40.8333 78.8335 40.8333H67.1668Z"
                fill="white" />
        </g>
        <path
            d="M73 90C70.79 90 69 88.21 69 86C69 83.79 70.79 82 73 82C75.21 82 77 83.79 77 86C77 88.21 75.21 90 73 90Z"
            fill="white" />
        <path fill-rule="evenodd" clip-rule="evenodd"
            d="M73.0002 88C73.2665 88.006 73.5314 87.9588 73.7792 87.861C74.027 87.7633 74.2528 87.617 74.4434 87.4308C74.6339 87.2446 74.7853 87.0222 74.8887 86.7766C74.9921 86.5311 75.0453 86.2674 75.0454 86.001C75.0455 85.7346 74.9923 85.4708 74.8891 85.2253C74.7858 84.9797 74.6345 84.7572 74.4441 84.5709C74.2537 84.3846 74.0279 84.2382 73.7801 84.1403C73.5324 84.0425 73.2675 83.9951 73.0012 84.001C72.4786 84.0125 71.9814 84.2282 71.6158 84.6018C71.2503 84.9754 71.0455 85.4773 71.0454 86C71.0453 86.5227 71.2498 87.0246 71.6151 87.3984C71.9805 87.7722 72.4776 87.9882 73.0002 88Z"
            fill="#33B530" />
    </g>
    <defs>
        <filter id="filter0_d_2772_50966" x="0" y="0" width="146" height="164" filterUnits="userSpaceOnUse"
            color-interpolation-filters="sRGB">
            <feFlood flood-opacity="0" result="BackgroundImageFix" />
            <feColorMatrix in="SourceAlpha" type="matrix" values="0 0 0 0 0 0 0 0 0 0 0 0 0 0 0 0 0 0 127 0"
                result="hardAlpha" />
            <feOffset dy="24" />
            <feGaussianBlur stdDeviation="25" />
            <feColorMatrix type="matrix" values="0 0 0 0 0 0 0 0 0 0 0 0 0 0 0 0 0 0 0.05 0" />
            <feBlend mode="normal" in2="BackgroundImageFix" result="effect1_dropShadow_2772_50966" />
            <feBlend mode="normal" in="SourceGraphic" in2="effect1_dropShadow_2772_50966" result="shape" />
        </filter>
    </defs>
</svg>