<svg width="146" height="164" viewBox="0 0 146 164" fill="none" xmlns="http://www.w3.org/2000/svg">
    <g filter="url(#filter0_d_1619_169404)">
        <path
            d="M73.51 77.523C73.5041 77.6516 73.4488 77.7729 73.3557 77.8618C73.2625 77.9506 73.1387 78.0001 73.01 78C72.72 78 72.5 77.79 72.49 77.523C71 73 70.734 72.306 67.658 71.376C57.53 68.968 50 59.863 50 49C50 36.297 60.297 26 73 26C85.703 26 96 36.297 96 49C96 59.863 88.47 68.968 78.342 71.376C75.266 72.306 75 73 73.512 77.523H73.51Z"
            fill="#0085FF" />
        <mask id="mask0_1619_169404" style="mask-type:alpha" maskUnits="userSpaceOnUse" x="59" y="35" width="28"
            height="28">
            <rect x="59" y="35" width="28" height="28" fill="#D9D9D9" />
        </mask>
        <g mask="url(#mask0_1619_169404)">
            <path
                d="M73.0008 49.0004C73.6425 49.0004 74.192 48.7717 74.6493 48.3144C75.1059 47.8578 75.3341 47.3087 75.3341 46.6671C75.3341 46.0254 75.1059 45.4759 74.6493 45.0186C74.192 44.562 73.6425 44.3337 73.0008 44.3337C72.3591 44.3337 71.81 44.562 71.3535 45.0186C70.8961 45.4759 70.6675 46.0254 70.6675 46.6671C70.6675 47.3087 70.8961 47.8578 71.3535 48.3144C71.81 48.7717 72.3591 49.0004 73.0008 49.0004ZM73.0008 60.6671C69.8703 58.0032 67.5323 55.5287 65.9868 53.2436C64.4406 50.9592 63.6675 48.8448 63.6675 46.9004C63.6675 43.9837 64.6059 41.6601 66.4826 39.9296C68.3586 38.199 70.5314 37.3337 73.0008 37.3337C75.4703 37.3337 77.643 38.199 79.519 39.9296C81.3958 41.6601 82.3342 43.9837 82.3342 46.9004C82.3342 48.8448 81.5614 50.9592 80.016 53.2436C78.4698 55.5287 76.1314 58.0032 73.0008 60.6671Z"
                fill="white" />
        </g>
        <path
            d="M73 90C70.79 90 69 88.21 69 86C69 83.79 70.79 82 73 82C75.21 82 77 83.79 77 86C77 88.21 75.21 90 73 90Z"
            fill="white" />
        <path fill-rule="evenodd" clip-rule="evenodd"
            d="M73.0002 88C73.2665 88.006 73.5314 87.9588 73.7792 87.861C74.027 87.7633 74.2528 87.617 74.4434 87.4308C74.6339 87.2446 74.7853 87.0222 74.8887 86.7766C74.9921 86.5311 75.0453 86.2674 75.0454 86.001C75.0455 85.7346 74.9923 85.4708 74.8891 85.2253C74.7858 84.9797 74.6345 84.7572 74.4441 84.5709C74.2537 84.3846 74.0279 84.2382 73.7801 84.1403C73.5324 84.0425 73.2675 83.9951 73.0012 84.001C72.4786 84.0125 71.9814 84.2282 71.6158 84.6018C71.2503 84.9754 71.0455 85.4773 71.0454 86C71.0453 86.5227 71.2498 87.0246 71.6151 87.3984C71.9805 87.7722 72.4776 87.9882 73.0002 88Z"
            fill="#0085FF" />
    </g>
    <defs>
        <filter id="filter0_d_1619_169404" x="0" y="0" width="146" height="164" filterUnits="userSpaceOnUse"
            color-interpolation-filters="sRGB">
            <feFlood flood-opacity="0" result="BackgroundImageFix" />
            <feColorMatrix in="SourceAlpha" type="matrix" values="0 0 0 0 0 0 0 0 0 0 0 0 0 0 0 0 0 0 127 0"
                result="hardAlpha" />
            <feOffset dy="24" />
            <feGaussianBlur stdDeviation="25" />
            <feColorMatrix type="matrix" values="0 0 0 0 0 0 0 0 0 0 0 0 0 0 0 0 0 0 0.05 0" />
            <feBlend mode="normal" in2="BackgroundImageFix" result="effect1_dropShadow_1619_169404" />
            <feBlend mode="normal" in="SourceGraphic" in2="effect1_dropShadow_1619_169404" result="shape" />
        </filter>
    </defs>
</svg>