<svg width="32" height="32" viewBox="0 0 32 32" fill="none" xmlns="http://www.w3.org/2000/svg">
    <g filter="url(#filter0_d_1889_67182)">
        <path d="M16 24C11.58 24 8 20.42 8 16C8 11.58 11.58 8 16 8C20.42 8 24 11.58 24 16C24 20.42 20.42 24 16 24Z"
            fill="white" />
        <path fill-rule="evenodd" clip-rule="evenodd"
            d="M16.0004 20C16.5331 20.012 17.0628 19.9175 17.5584 19.722C18.0541 19.5265 18.5057 19.234 18.8867 18.8615C19.2678 18.4891 19.5706 18.0443 19.7773 17.5533C19.9841 17.0622 20.0907 16.5348 20.0908 16.002C20.091 15.4692 19.9846 14.9417 19.7781 14.4505C19.5716 13.9594 19.269 13.5144 18.8882 13.1418C18.5073 12.7692 18.0559 12.4764 17.5603 12.2807C17.0647 12.0849 16.5351 11.9902 16.0024 12.002C14.9573 12.0251 13.9627 12.4564 13.2316 13.2036C12.5006 13.9509 12.0911 14.9546 12.0908 16C12.0906 17.0453 12.4996 18.0493 13.2303 18.7969C13.9609 19.5445 14.9553 19.9763 16.0004 20Z"
            fill="#0085FF" />
    </g>
    <defs>
        <filter id="filter0_d_1889_67182" x="0" y="0" width="32" height="32" filterUnits="userSpaceOnUse"
            color-interpolation-filters="sRGB">
            <feFlood flood-opacity="0" result="BackgroundImageFix" />
            <feColorMatrix in="SourceAlpha" type="matrix" values="0 0 0 0 0 0 0 0 0 0 0 0 0 0 0 0 0 0 127 0"
                result="hardAlpha" />
            <feOffset />
            <feGaussianBlur stdDeviation="4" />
            <feColorMatrix type="matrix" values="0 0 0 0 0 0 0 0 0 0 0 0 0 0 0 0 0 0 0.16 0" />
            <feBlend mode="normal" in2="BackgroundImageFix" result="effect1_dropShadow_1889_67182" />
            <feBlend mode="normal" in="SourceGraphic" in2="effect1_dropShadow_1889_67182" result="shape" />
        </filter>
    </defs>
</svg>