<svg width="146" height="164" viewBox="0 0 146 164" fill="none" xmlns="http://www.w3.org/2000/svg">
    <g filter="url(#filter0_d_1903_72049)">
        <path
            d="M73.51 77.523C73.5041 77.6516 73.4488 77.7729 73.3557 77.8618C73.2625 77.9506 73.1387 78.0001 73.01 78C72.72 78 72.5 77.79 72.49 77.523C71 73 70.734 72.306 67.658 71.376C57.53 68.968 50 59.863 50 49C50 36.297 60.297 26 73 26C85.703 26 96 36.297 96 49C96 59.863 88.47 68.968 78.342 71.376C75.266 72.306 75 73 73.512 77.523H73.51Z"
            fill="#0085FF" />
        <rect x="51" y="27" width="44" height="44" rx="22" fill="#0085FF" />
        <path
            d="M66.7974 58.3845V39.6157H74.0696C75.7807 39.6157 77.2423 40.226 78.4543 41.4466C79.6663 42.6679 80.2724 44.1341 80.2724 45.8452C80.2724 47.5563 79.6663 49.0222 78.4543 50.2428C77.2423 51.4641 75.7807 52.0747 74.0696 52.0747H70.8078V58.3845H66.7974ZM70.8078 48.0643H74.1498C74.7558 48.0643 75.2773 47.8458 75.7144 47.4088C76.1507 46.9724 76.3689 46.4513 76.3689 45.8452C76.3689 45.2392 76.1507 44.7177 75.7144 44.2806C75.2773 43.8443 74.7558 43.6261 74.1498 43.6261H70.8078V48.0643Z"
            fill="white" />
        <path
            d="M73 90C70.79 90 69 88.21 69 86C69 83.79 70.79 82 73 82C75.21 82 77 83.79 77 86C77 88.21 75.21 90 73 90Z"
            fill="white" />
        <path fill-rule="evenodd" clip-rule="evenodd"
            d="M73.0002 88C73.2665 88.006 73.5314 87.9588 73.7792 87.861C74.027 87.7633 74.2528 87.617 74.4434 87.4308C74.6339 87.2446 74.7853 87.0222 74.8887 86.7766C74.9921 86.5311 75.0453 86.2674 75.0454 86.001C75.0455 85.7346 74.9923 85.4708 74.8891 85.2253C74.7858 84.9797 74.6345 84.7572 74.4441 84.5709C74.2537 84.3846 74.0279 84.2382 73.7801 84.1403C73.5324 84.0425 73.2675 83.9951 73.0012 84.001C72.4786 84.0125 71.9814 84.2282 71.6158 84.6018C71.2503 84.9754 71.0455 85.4773 71.0454 86C71.0453 86.5227 71.2498 87.0246 71.6151 87.3984C71.9805 87.7722 72.4776 87.9882 73.0002 88Z"
            fill="#0085FF" />
    </g>
    <defs>
        <filter id="filter0_d_1903_72049" x="0" y="0" width="146" height="164" filterUnits="userSpaceOnUse"
            color-interpolation-filters="sRGB">
            <feFlood flood-opacity="0" result="BackgroundImageFix" />
            <feColorMatrix in="SourceAlpha" type="matrix" values="0 0 0 0 0 0 0 0 0 0 0 0 0 0 0 0 0 0 127 0"
                result="hardAlpha" />
            <feOffset dy="24" />
            <feGaussianBlur stdDeviation="25" />
            <feColorMatrix type="matrix" values="0 0 0 0 0 0 0 0 0 0 0 0 0 0 0 0 0 0 0.05 0" />
            <feBlend mode="normal" in2="BackgroundImageFix" result="effect1_dropShadow_1903_72049" />
            <feBlend mode="normal" in="SourceGraphic" in2="effect1_dropShadow_1903_72049" result="shape" />
        </filter>
    </defs>
</svg>