<svg width="146" height="164" viewBox="0 0 146 164" fill="none" xmlns="http://www.w3.org/2000/svg">
    <g filter="url(#filter0_d_4122_103334)">
        <path
            d="M73.51 77.523C73.5041 77.6516 73.4488 77.7729 73.3557 77.8618C73.2625 77.9506 73.1387 78.0001 73.01 78C72.72 78 72.5 77.79 72.49 77.523C71 73 70.734 72.306 67.658 71.376C57.53 68.968 50 59.863 50 49C50 36.297 60.297 26 73 26C85.703 26 96 36.297 96 49C96 59.863 88.47 68.968 78.342 71.376C75.266 72.306 75 73 73.512 77.523H73.51Z"
            fill="#0085FF" />
        <path
            d="M73 90C70.79 90 69 88.21 69 86C69 83.79 70.79 82 73 82C75.21 82 77 83.79 77 86C77 88.21 75.21 90 73 90Z"
            fill="white" />
        <path fill-rule="evenodd" clip-rule="evenodd"
            d="M73.0002 88C73.2665 88.006 73.5314 87.9588 73.7792 87.861C74.027 87.7633 74.2528 87.617 74.4434 87.4308C74.6339 87.2446 74.7853 87.0222 74.8887 86.7766C74.9921 86.5311 75.0453 86.2674 75.0454 86.001C75.0455 85.7346 74.9923 85.4708 74.8891 85.2253C74.7858 84.9797 74.6345 84.7572 74.4441 84.5709C74.2537 84.3846 74.0279 84.2382 73.7801 84.1403C73.5324 84.0425 73.2675 83.9951 73.0012 84.001C72.4786 84.0125 71.9814 84.2282 71.6158 84.6018C71.2503 84.9754 71.0455 85.4773 71.0454 86C71.0453 86.5227 71.2498 87.0246 71.6151 87.3984C71.9805 87.7722 72.4776 87.9882 73.0002 88Z"
            fill="#0085FF" />
        <mask id="mask0_4122_103334" style="mask-type:alpha" maskUnits="userSpaceOnUse" x="59" y="35" width="28"
            height="28">
            <rect x="59" y="35" width="28" height="28" fill="#D9D9D9" />
        </mask>
        <g mask="url(#mask0_4122_103334)">
            <path
                d="M66.5827 60.6663C66.2521 60.6663 65.9748 60.5543 65.7508 60.3303C65.5276 60.1071 65.416 59.8302 65.416 59.4997V51.9163H64.8327C64.5021 51.9163 64.2248 51.8043 64.0008 51.5803C63.7776 51.3571 63.666 51.0802 63.666 50.7497V45.4997C63.666 44.858 63.8947 44.3085 64.352 43.8512C64.8086 43.3946 65.3577 43.1663 65.9993 43.1663H69.4993C70.141 43.1663 70.6905 43.3946 71.1478 43.8512C71.6044 44.3085 71.8327 44.858 71.8327 45.4997V50.7497C71.8327 51.0802 71.7211 51.3571 71.4978 51.5803C71.2738 51.8043 70.9966 51.9163 70.666 51.9163H70.0827V59.4997C70.0827 59.8302 69.9711 60.1071 69.7478 60.3303C69.5238 60.5543 69.2466 60.6663 68.916 60.6663H66.5827ZM77.666 60.6663C77.3355 60.6663 77.0586 60.5543 76.8354 60.3303C76.6114 60.1071 76.4993 59.8302 76.4993 59.4997V53.6663H74.6035C74.2146 53.6663 73.9035 53.5057 73.6702 53.1845C73.4368 52.8641 73.3882 52.5094 73.5243 52.1205L75.9743 44.7413C76.1299 44.2358 76.4169 43.8469 76.8354 43.5747C77.253 43.3025 77.7243 43.1663 78.2493 43.1663C78.7744 43.1663 79.2457 43.3025 79.6634 43.5747C80.0818 43.8469 80.3688 44.2358 80.5244 44.7413L82.9743 52.1205C83.1105 52.5094 83.0618 52.8641 82.8285 53.1845C82.5952 53.5057 82.2841 53.6663 81.8952 53.6663H79.9993V59.4997C79.9993 59.8302 79.8874 60.1071 79.6634 60.3303C79.4401 60.5543 79.1632 60.6663 78.8327 60.6663H77.666ZM67.7493 41.9997C67.1077 41.9997 66.5586 41.771 66.102 41.3137C65.6447 40.8571 65.416 40.308 65.416 39.6663C65.416 39.0247 65.6447 38.4752 66.102 38.0178C66.5586 37.5613 67.1077 37.333 67.7493 37.333C68.391 37.333 68.9405 37.5613 69.3978 38.0178C69.8544 38.4752 70.0827 39.0247 70.0827 39.6663C70.0827 40.308 69.8544 40.8571 69.3978 41.3137C68.9405 41.771 68.391 41.9997 67.7493 41.9997ZM78.2493 41.9997C77.6077 41.9997 77.0586 41.771 76.602 41.3137C76.1447 40.8571 75.916 40.308 75.916 39.6663C75.916 39.0247 76.1447 38.4752 76.602 38.0178C77.0586 37.5613 77.6077 37.333 78.2493 37.333C78.891 37.333 79.4405 37.5613 79.8979 38.0178C80.3544 38.4752 80.5827 39.0247 80.5827 39.6663C80.5827 40.308 80.3544 40.8571 79.8979 41.3137C79.4405 41.771 78.891 41.9997 78.2493 41.9997Z"
                fill="white" />
        </g>
    </g>
    <defs>
        <filter id="filter0_d_4122_103334" x="0" y="0" width="146" height="164" filterUnits="userSpaceOnUse"
            color-interpolation-filters="sRGB">
            <feFlood flood-opacity="0" result="BackgroundImageFix" />
            <feColorMatrix in="SourceAlpha" type="matrix" values="0 0 0 0 0 0 0 0 0 0 0 0 0 0 0 0 0 0 127 0"
                result="hardAlpha" />
            <feOffset dy="24" />
            <feGaussianBlur stdDeviation="25" />
            <feColorMatrix type="matrix" values="0 0 0 0 0 0 0 0 0 0 0 0 0 0 0 0 0 0 0.05 0" />
            <feBlend mode="normal" in2="BackgroundImageFix" result="effect1_dropShadow_4122_103334" />
            <feBlend mode="normal" in="SourceGraphic" in2="effect1_dropShadow_4122_103334" result="shape" />
        </filter>
    </defs>
</svg>