<svg width="146" height="164" viewBox="0 0 146 164" fill="none" xmlns="http://www.w3.org/2000/svg">
    <g filter="url(#filter0_d_3558_82410)">
        <path
            d="M73.51 77.523C73.5041 77.6516 73.4488 77.7729 73.3557 77.8618C73.2625 77.9506 73.1387 78.0001 73.01 78C72.72 78 72.5 77.79 72.49 77.523C71 73 70.734 72.306 67.658 71.376C57.53 68.968 50 59.863 50 49C50 36.297 60.297 26 73 26C85.703 26 96 36.297 96 49C96 59.863 88.47 68.968 78.342 71.376C75.266 72.306 75 73 73.512 77.523H73.51Z"
            fill="#0085FF" />
        <path
            d="M73 90C70.79 90 69 88.21 69 86C69 83.79 70.79 82 73 82C75.21 82 77 83.79 77 86C77 88.21 75.21 90 73 90Z"
            fill="white" />
        <path fill-rule="evenodd" clip-rule="evenodd"
            d="M73.0002 88C73.2665 88.006 73.5314 87.9588 73.7792 87.861C74.027 87.7633 74.2528 87.617 74.4434 87.4308C74.6339 87.2446 74.7853 87.0222 74.8887 86.7766C74.9921 86.5311 75.0453 86.2674 75.0454 86.001C75.0455 85.7346 74.9923 85.4708 74.8891 85.2253C74.7858 84.9797 74.6345 84.7572 74.4441 84.5709C74.2537 84.3846 74.0279 84.2382 73.7801 84.1403C73.5324 84.0425 73.2675 83.9951 73.0012 84.001C72.4786 84.0125 71.9814 84.2282 71.6158 84.6018C71.2503 84.9754 71.0455 85.4773 71.0454 86C71.0453 86.5227 71.2498 87.0246 71.6151 87.3984C71.9805 87.7722 72.4776 87.9882 73.0002 88Z"
            fill="#0085FF" />
        <rect x="50" y="26" width="46" height="46" rx="23" fill="#0085FF" />
        <mask id="mask0_3558_82410" style="mask-type:alpha" maskUnits="userSpaceOnUse" x="59" y="35" width="28"
            height="28">
            <rect x="59.5835" y="35.5833" width="26.8333" height="26.8333" fill="#D9D9D9" />
        </mask>
        <g mask="url(#mask0_3558_82410)">
            <path
                d="M63.3009 56.6028C62.7233 56.6028 62.2295 56.3978 61.8195 55.9878C61.4096 55.5779 61.2046 55.0841 61.2046 54.5064V43.4936C61.2046 42.9159 61.4096 42.4221 61.8195 42.0121C62.2295 41.6022 62.7233 41.3972 63.3009 41.3972H74.3138C74.8915 41.3972 75.3853 41.6022 75.7952 42.0121C76.2052 42.4221 76.4101 42.9159 76.4101 43.4936V54.5064C76.4101 55.0841 76.2052 55.5779 75.7952 55.9878C75.3853 56.3978 74.8915 56.6028 74.3138 56.6028H63.3009ZM79.5686 56.6028C79.2705 56.6028 79.0189 56.5003 78.814 56.2953C78.609 56.0903 78.5065 55.8388 78.5065 55.5406V42.4314C78.5065 42.1519 78.609 41.9097 78.814 41.7047C79.0189 41.4997 79.2705 41.3972 79.5686 41.3972C79.8482 41.3972 80.0904 41.4997 80.2954 41.7047C80.5004 41.9097 80.6028 42.1519 80.6028 42.4314V55.5406C80.6028 55.8388 80.5004 56.0903 80.2954 56.2953C80.0904 56.5003 79.8482 56.6028 79.5686 56.6028ZM83.7614 56.6028C83.4632 56.6028 83.2116 56.5003 83.0067 56.2953C82.8017 56.0903 82.6992 55.8388 82.6992 55.5406V42.4314C82.6992 42.1519 82.8017 41.9097 83.0067 41.7047C83.2116 41.4997 83.4632 41.3972 83.7614 41.3972C84.0409 41.3972 84.2831 41.4997 84.4881 41.7047C84.6931 41.9097 84.7956 42.1519 84.7956 42.4314V55.5406C84.7956 55.8388 84.6931 56.0903 84.4881 56.2953C84.2831 56.5003 84.0409 56.6028 83.7614 56.6028ZM63.3009 52.7455C64.1022 52.261 64.9642 51.8928 65.887 51.6408C66.809 51.3897 67.7825 51.2641 68.8074 51.2641C69.8323 51.2641 70.8061 51.3897 71.7288 51.6408C72.6509 51.8928 73.5125 52.261 74.3138 52.7455V43.4936H63.3009V52.7455ZM68.8074 50.3417C67.9688 50.3417 67.2607 50.0528 66.6831 49.4752C66.1054 48.8975 65.8166 48.1894 65.8166 47.3509C65.8166 46.5123 66.1054 45.8042 66.6831 45.2266C67.2607 44.6489 67.9688 44.3601 68.8074 44.3601C69.6459 44.3601 70.354 44.6489 70.9317 45.2266C71.5093 45.8042 71.7982 46.5123 71.7982 47.3509C71.7982 48.1894 71.5093 48.8975 70.9317 49.4752C70.354 50.0528 69.6459 50.3417 68.8074 50.3417Z"
                fill="white" />
        </g>
    </g>
    <defs>
        <filter id="filter0_d_3558_82410" x="0" y="0" width="146" height="164" filterUnits="userSpaceOnUse"
            color-interpolation-filters="sRGB">
            <feFlood flood-opacity="0" result="BackgroundImageFix" />
            <feColorMatrix in="SourceAlpha" type="matrix" values="0 0 0 0 0 0 0 0 0 0 0 0 0 0 0 0 0 0 127 0"
                result="hardAlpha" />
            <feOffset dy="24" />
            <feGaussianBlur stdDeviation="25" />
            <feColorMatrix type="matrix" values="0 0 0 0 0 0 0 0 0 0 0 0 0 0 0 0 0 0 0.05 0" />
            <feBlend mode="normal" in2="BackgroundImageFix" result="effect1_dropShadow_3558_82410" />
            <feBlend mode="normal" in="SourceGraphic" in2="effect1_dropShadow_3558_82410" result="shape" />
        </filter>
    </defs>
</svg>