<svg width="146" height="164" viewBox="0 0 146 164" fill="none" xmlns="http://www.w3.org/2000/svg">
    <g filter="url(#filter0_d_2772_50957)">
        <path
            d="M73.51 77.523C73.5041 77.6516 73.4488 77.7729 73.3557 77.8618C73.2625 77.9506 73.1387 78.0001 73.01 78C72.72 78 72.5 77.79 72.49 77.523C71 73 70.734 72.306 67.658 71.376C57.53 68.968 50 59.863 50 49C50 36.297 60.297 26 73 26C85.703 26 96 36.297 96 49C96 59.863 88.47 68.968 78.342 71.376C75.266 72.306 75 73 73.512 77.523H73.51Z"
            fill="#0085FF" />
        <mask id="mask0_2772_50957" style="mask-type:alpha" maskUnits="userSpaceOnUse" x="59" y="35" width="28"
            height="28">
            <rect x="59" y="35" width="28" height="28" fill="#D9D9D9" />
        </mask>
        <g mask="url(#mask0_2772_50957)">
            <path
                d="M73 61C70.3542 61 68.0263 60.0983 66.0163 58.2949C64.0054 56.4907 63 54.0497 63 50.972C63 49.0357 63.75 46.9363 65.25 44.6739C66.75 42.4115 69.0208 39.9656 72.0625 37.3363C72.1875 37.2344 72.3333 37.1529 72.5 37.0917C72.6667 37.0306 72.8333 37 73 37C73.1667 37 73.3333 37.0306 73.5 37.0917C73.6667 37.1529 73.8125 37.2344 73.9375 37.3363C76.9792 39.9656 79.25 42.4115 80.75 44.6739C82.25 46.9363 83 49.0357 83 50.972C83 54.0497 81.9946 56.4907 79.9837 58.2949C77.9738 60.0983 75.6458 61 73 61ZM73.3438 57.3312C73.5938 57.3108 73.8075 57.2142 73.985 57.0414C74.1617 56.8677 74.25 56.6586 74.25 56.414C74.25 56.1287 74.1562 55.8996 73.9688 55.7267C73.7812 55.5531 73.5417 55.4764 73.25 55.4968C72.3958 55.558 71.4896 55.3289 70.5312 54.8095C69.5729 54.2894 68.9688 53.3465 68.7188 51.9809C68.6771 51.7567 68.5675 51.5732 68.39 51.4306C68.2133 51.2879 68.0104 51.2166 67.7812 51.2166C67.4896 51.2166 67.25 51.3234 67.0625 51.537C66.875 51.7514 66.8125 52.0013 66.875 52.2866C67.2292 54.1414 68.0625 55.4662 69.375 56.2611C70.6875 57.0561 72.0104 57.4127 73.3438 57.3312Z"
                fill="white" />
        </g>
        <path
            d="M73 90C70.79 90 69 88.21 69 86C69 83.79 70.79 82 73 82C75.21 82 77 83.79 77 86C77 88.21 75.21 90 73 90Z"
            fill="white" />
        <path fill-rule="evenodd" clip-rule="evenodd"
            d="M73.0002 88C73.2665 88.006 73.5314 87.9588 73.7792 87.861C74.027 87.7633 74.2528 87.617 74.4434 87.4308C74.6339 87.2446 74.7853 87.0222 74.8887 86.7766C74.9921 86.5311 75.0453 86.2674 75.0454 86.001C75.0455 85.7346 74.9923 85.4708 74.8891 85.2253C74.7858 84.9797 74.6345 84.7572 74.4441 84.5709C74.2537 84.3846 74.0279 84.2382 73.7801 84.1403C73.5324 84.0425 73.2675 83.9951 73.0012 84.001C72.4786 84.0125 71.9814 84.2282 71.6158 84.6018C71.2503 84.9754 71.0455 85.4773 71.0454 86C71.0453 86.5227 71.2498 87.0246 71.6151 87.3984C71.9805 87.7722 72.4776 87.9882 73.0002 88Z"
            fill="#0085FF" />
    </g>
    <defs>
        <filter id="filter0_d_2772_50957" x="0" y="0" width="146" height="164" filterUnits="userSpaceOnUse"
            color-interpolation-filters="sRGB">
            <feFlood flood-opacity="0" result="BackgroundImageFix" />
            <feColorMatrix in="SourceAlpha" type="matrix" values="0 0 0 0 0 0 0 0 0 0 0 0 0 0 0 0 0 0 127 0"
                result="hardAlpha" />
            <feOffset dy="24" />
            <feGaussianBlur stdDeviation="25" />
            <feColorMatrix type="matrix" values="0 0 0 0 0 0 0 0 0 0 0 0 0 0 0 0 0 0 0.05 0" />
            <feBlend mode="normal" in2="BackgroundImageFix" result="effect1_dropShadow_2772_50957" />
            <feBlend mode="normal" in="SourceGraphic" in2="effect1_dropShadow_2772_50957" result="shape" />
        </filter>
    </defs>
</svg>