<svg width="14" height="18" viewBox="0 0 14 18" fill="none" xmlns="http://www.w3.org/2000/svg">
    <path
        d="M1.77814 17.3996C1.53805 17.3996 1.33548 17.32 1.17042 17.1608C1.00536 17.0022 0.92283 16.8018 0.92283 16.5596V14.7434C0.652733 14.4558 0.431554 14.1265 0.259293 13.7554C0.086431 13.3849 0 12.9801 0 12.5412V4.07312C0 2.84718 0.555198 1.96177 1.66559 1.41691C2.77599 0.872042 4.55413 0.599609 7 0.599609C9.5059 0.599609 11.299 0.868107 12.3794 1.4051C13.4598 1.9427 14 2.83204 14 4.07312V12.5412C14 12.9801 13.9139 13.3849 13.7416 13.7554C13.5687 14.1265 13.3473 14.4558 13.0772 14.7434V16.5596C13.0772 16.8018 12.9946 17.0022 12.8296 17.1608C12.6645 17.32 12.462 17.3996 12.2219 17.3996H11.4116C11.1715 17.3996 10.9689 17.32 10.8039 17.1608C10.6388 17.0022 10.5563 16.8018 10.5563 16.5596V15.6288H3.44373V16.5596C3.44373 16.8018 3.3612 17.0022 3.19614 17.1608C3.03108 17.32 2.82851 17.3996 2.58842 17.3996H1.77814ZM1.6881 7.75096H12.3119V4.93583H1.6881V7.75096ZM3.89389 12.9953C4.25402 12.9953 4.56163 12.8666 4.81672 12.6093C5.07181 12.352 5.19936 12.0418 5.19936 11.6785C5.19936 11.3153 5.07181 11.005 4.81672 10.7477C4.56163 10.4904 4.25402 10.3618 3.89389 10.3618C3.53376 10.3618 3.22615 10.4904 2.97106 10.7477C2.71597 11.005 2.58842 11.3153 2.58842 11.6785C2.58842 12.0418 2.71597 12.352 2.97106 12.6093C3.22615 12.8666 3.53376 12.9953 3.89389 12.9953ZM10.1061 12.9953C10.4662 12.9953 10.7738 12.8666 11.0289 12.6093C11.284 12.352 11.4116 12.0418 11.4116 11.6785C11.4116 11.3153 11.284 11.005 11.0289 10.7477C10.7738 10.4904 10.4662 10.3618 10.1061 10.3618C9.74598 10.3618 9.43837 10.4904 9.18328 10.7477C8.92819 11.005 8.80064 11.3153 8.80064 11.6785C8.80064 12.0418 8.92819 12.352 9.18328 12.6093C9.43837 12.8666 9.74598 12.9953 10.1061 12.9953Z"
        fill="#0085FF" />
</svg>