<svg width="32" height="32" viewBox="0 0 32 32" fill="none" xmlns="http://www.w3.org/2000/svg">
    <path
        d="M11.0208 21.6878V22.542C11.0208 22.7642 10.9444 22.9481 10.7917 23.0937C10.6389 23.2398 10.4514 23.3128 10.2292 23.3128H9.47917C9.25694 23.3128 9.06944 23.2398 8.91667 23.0937C8.76389 22.9481 8.6875 22.7642 8.6875 22.542V16.0212L10.4167 11.1253C10.5 10.8892 10.6389 10.7017 10.8333 10.5628C11.0278 10.4239 11.25 10.3545 11.5 10.3545H20.5C20.75 10.3545 20.9722 10.4239 21.1667 10.5628C21.3611 10.7017 21.5 10.8892 21.5833 11.1253L23.3125 16.0212V22.542C23.3125 22.7642 23.2361 22.9481 23.0833 23.0937C22.9306 23.2398 22.7431 23.3128 22.5208 23.3128H21.7708C21.5486 23.3128 21.3611 23.2398 21.2083 23.0937C21.0556 22.9481 20.9792 22.7642 20.9792 22.542V21.6878H11.0208ZM10.875 14.4587H21.125L20.2292 11.917H11.7708L10.875 14.4587ZM12.2917 19.2712C12.625 19.2712 12.9097 19.1531 13.1458 18.917C13.3819 18.6809 13.5 18.3962 13.5 18.0628C13.5 17.7295 13.3819 17.4448 13.1458 17.2087C12.9097 16.9725 12.625 16.8545 12.2917 16.8545C11.9583 16.8545 11.6736 16.9725 11.4375 17.2087C11.2014 17.4448 11.0833 17.7295 11.0833 18.0628C11.0833 18.3962 11.2014 18.6809 11.4375 18.917C11.6736 19.1531 11.9583 19.2712 12.2917 19.2712ZM19.7083 19.2712C20.0417 19.2712 20.3264 19.1531 20.5625 18.917C20.7986 18.6809 20.9167 18.3962 20.9167 18.0628C20.9167 17.7295 20.7986 17.4448 20.5625 17.2087C20.3264 16.9725 20.0417 16.8545 19.7083 16.8545C19.375 16.8545 19.0903 16.9725 18.8542 17.2087C18.6181 17.4448 18.5 17.7295 18.5 18.0628C18.5 18.3962 18.6181 18.6809 18.8542 18.917C19.0903 19.1531 19.375 19.2712 19.7083 19.2712Z"
        fill="#cc5d5d" />
</svg>