<svg width="20" height="20" viewBox="0 0 20 20" fill="none" xmlns="http://www.w3.org/2000/svg">
    <path
        d="M5.24419 4.33909L8.16085 7.25575C8.26292 7.35748 8.38961 7.43104 8.52857 7.46924C8.66752 7.50744 8.814 7.509 8.95374 7.47375C9.09347 7.4385 9.22169 7.36765 9.3259 7.26811C9.4301 7.16857 9.50675 7.04373 9.54835 6.90575L10.7984 2.73909C10.8415 2.59498 10.8449 2.44188 10.8081 2.29601C10.7713 2.15014 10.6957 2.01696 10.5894 1.91058C10.483 1.80421 10.3498 1.72861 10.2039 1.69182C10.0581 1.65502 9.90495 1.6584 9.76085 1.70159L5.59418 2.95159C5.45652 2.9936 5.33204 3.07044 5.2328 3.17469C5.13355 3.27893 5.06291 3.40703 5.02771 3.54659C4.9925 3.68614 4.99393 3.83243 5.03186 3.97127C5.06979 4.11011 5.14292 4.23681 5.24419 4.33909Z"
        fill="#182D3A" />
    <path
        d="M4.13329 6.79764C2.70996 8.04848 2.50662 10.271 3.67662 11.771C4.85496 13.281 7.00162 13.5268 8.47329 12.3193L12.54 8.98264C12.7223 8.83282 12.933 8.72122 13.1594 8.65446C13.3858 8.58771 13.6233 8.56717 13.8577 8.59407C14.0922 8.62097 14.3189 8.69476 14.5243 8.81105C14.7297 8.92734 14.9096 9.08375 15.0533 9.27098C15.6775 10.071 15.5675 11.271 14.8091 11.9376L13.94 12.701C13.5991 13.001 13.56 13.526 13.8516 13.876C14.1433 14.226 14.6566 14.266 14.9975 13.966L15.8666 13.2026C17.29 11.951 17.4941 9.73098 16.3225 8.22931C15.1458 6.72098 12.9958 6.47431 11.5258 7.68098L7.45912 11.0176C7.27684 11.1677 7.06621 11.2795 6.83979 11.3464C6.61338 11.4132 6.37581 11.4339 6.14126 11.4069C5.9067 11.38 5.67997 11.3062 5.47458 11.1897C5.2692 11.0733 5.08936 10.9167 4.94579 10.7293C4.32329 9.93098 4.43246 8.72931 5.18996 8.06264L5.64162 7.71681C5.98246 7.41681 6.02496 6.89181 5.73329 6.54181C5.66477 6.45884 5.58029 6.39048 5.48485 6.34079C5.38941 6.2911 5.28496 6.26109 5.17769 6.25254C5.07043 6.24399 4.96255 6.25708 4.86044 6.29102C4.75833 6.32497 4.66408 6.37908 4.58329 6.45014L4.13329 6.79764Z"
        fill="#182D3A" />
    <path
        d="M8.33337 15.8335C8.33337 15.1705 8.59677 14.5346 9.06561 14.0657C9.53445 13.5969 10.1703 13.3335 10.8334 13.3335C11.4964 13.3335 12.1323 13.5969 12.6011 14.0657C13.07 14.5346 13.3334 15.1705 13.3334 15.8335C13.3334 16.4965 13.07 17.1324 12.6011 17.6013C12.1323 18.0701 11.4964 18.3335 10.8334 18.3335C10.1703 18.3335 9.53445 18.0701 9.06561 17.6013C8.59677 17.1324 8.33337 16.4965 8.33337 15.8335Z"
        fill="#182D3A" />
</svg>