<svg width="170" height="40" viewBox="0 0 170 40" fill="none" xmlns="http://www.w3.org/2000/svg">
    <rect x="6" y="13" width="8" height="27" fill="#E18330" />
    <rect x="16" y="5" width="8" height="35" fill="#E18330" />
    <rect x="26" width="8" height="40" fill="#D3301D" />
    <rect x="36" y="5" width="8" height="35" fill="#E18330" />
    <rect x="46" y="16" width="8" height="24" fill="#F8AF2B" />
    <rect x="56" y="9" width="8" height="31" fill="#F8AF2B" />
    <rect x="66" y="6" width="8" height="34" fill="#E18330" />
    <rect x="76" y="13" width="8" height="27" fill="#F8AF2B" />
    <rect x="86" y="7" width="8" height="33" fill="#E18330" />
    <rect x="96" y="2" width="8" height="38" fill="#D3301D" />
    <rect x="106" y="13" width="8" height="27" fill="#F8AF2B" />
    <rect x="116" y="7" width="8" height="33" fill="#E18330" />
    <rect x="126" y="5" width="8" height="35" fill="#E18330" />
    <rect x="136" y="2" width="8" height="38" fill="#D3301D" />
    <rect x="146" y="6" width="8" height="34" fill="#E18330" />
    <rect x="156" y="10" width="8" height="30" fill="#E18330" />
</svg>