<svg width="21" height="20" viewBox="0 0 21 20" fill="none" xmlns="http://www.w3.org/2000/svg">
    <mask id="mask0_2594_14374" style="mask-type:alpha" maskUnits="userSpaceOnUse" x="0" y="0" width="21" height="20">
        <rect x="0.5" width="20" height="20" fill="#D9D9D9" />
    </mask>
    <g mask="url(#mask0_2594_14374)">
        <path
            d="M14.0834 12.7497C13.9306 12.5969 13.8509 12.4061 13.8442 12.1772C13.837 11.9477 13.9098 11.7497 14.0626 11.583L14.7917 10.833H11.3334C11.0973 10.833 10.8995 10.753 10.7401 10.593C10.5801 10.4336 10.5001 10.2358 10.5001 9.99967C10.5001 9.76356 10.5801 9.56551 10.7401 9.40551C10.8995 9.24606 11.0973 9.16634 11.3334 9.16634H14.7917L14.0626 8.41634C13.9098 8.26356 13.8334 8.07245 13.8334 7.84301C13.8334 7.61412 13.9167 7.41634 14.0834 7.24967C14.2362 7.0969 14.4306 7.02051 14.6667 7.02051C14.9029 7.02051 15.0973 7.0969 15.2501 7.24967L17.4167 9.41634C17.5001 9.49967 17.5592 9.58995 17.5942 9.68717C17.6287 9.7844 17.6459 9.88856 17.6459 9.99967C17.6459 10.1108 17.6287 10.215 17.5942 10.3122C17.5592 10.4094 17.5001 10.4997 17.4167 10.583L15.2501 12.7497C15.0973 12.9025 14.9065 12.9822 14.6776 12.9888C14.4481 12.9961 14.2501 12.9163 14.0834 12.7497ZM14.6667 16.6663H6.33341V17.4997H14.6667V16.6663ZM14.6667 3.33301V2.49967H6.33341V3.33301H14.6667ZM6.33341 19.1663C5.87508 19.1663 5.48286 19.0033 5.15675 18.6772C4.83008 18.3505 4.66675 17.958 4.66675 17.4997V2.49967C4.66675 2.04134 4.83008 1.64884 5.15675 1.32217C5.48286 0.996063 5.87508 0.833008 6.33341 0.833008H14.6667C15.1251 0.833008 15.5176 0.996063 15.8442 1.32217C16.1704 1.64884 16.3334 2.04134 16.3334 2.49967V5.83301H14.6667V4.99967H6.33341V14.9997H14.6667V14.1663H16.3334V17.4997C16.3334 17.958 16.1704 18.3505 15.8442 18.6772C15.5176 19.0033 15.1251 19.1663 14.6667 19.1663H6.33341Z"
            fill="#0085FF" />
    </g>
</svg>